<svg version="1.1" xmlns="http://www.w3.org/2000/svg" xmlns:xlink="http://www.w3.org/1999/xlink" width="30.0232" height="31.23934" viewBox="0,0,30.0232,31.23934"><g transform="translate(-224.96972,-164.38033)"><g data-paper-data="{&quot;isPaintingLayer&quot;:true}" fill-rule="nonzero" stroke="none" stroke-linecap="butt" stroke-linejoin="miter" stroke-miterlimit="10" stroke-dasharray="" stroke-dashoffset="0" style="mix-blend-mode: normal"><path d="M224.99138,195.16059v-30h30.00001v30z" fill="#9a9a9a" stroke-width="0"/><path d="M224.96972,188.30657v-8.30769l4.46154,2.38461l3.10012,2.70139l-4.48475,0.83707z" fill="#7a7a7a" stroke-width="0"/><path d="M253.99293,185.76811l-2.02321,-2.14477l-1.10837,-2.3638l-0.37695,-2.29594l1.91513,-1.67226l1.13347,3.87427l1.45992,-0.93596v8.30769z" data-paper-data="{&quot;index&quot;:null}" fill="#7a7a7a" stroke-width="0"/><path d="M239.29023,195.15272l2.28456,-1.62717l1.80851,-2.42871l3.25695,-1.57513l5.56024,-1.83053c0,0 -1.97027,5.82137 -1.34719,5.40275c0.90806,-0.6101 1.88565,0.36648 1.88565,0.36648l0.38462,1.69231z" fill="#4d4d4d" stroke-width="0"/><path d="M245.66202,165.20108l-1.61539,1.69231l-0.0395,1.90495l5.80269,2.01996l-2.34654,12.65413c0,0 -9.34789,-6.5529 -10.35282,-8.47383c-0.41809,-0.79918 5.00084,-3.25305 5.00084,-3.25305l-2.75698,-2.69831l-0.69231,-3.84616z" data-paper-data="{&quot;index&quot;:null}" fill="#4d4d4d" stroke-width="0"/><path d="M235.66022,180.06779l-6.72315,1.26674c0,0 -1.54967,-4.1202 -1.68878,-4.29645c-0.59434,-0.75298 0.83136,-3.36067 0.83136,-3.36067l1.98442,2.54753c0,0 2.27416,0.81824 2.54877,0.94438c0.82644,0.37961 3.04739,2.89848 3.04739,2.89848z" data-paper-data="{&quot;index&quot;:null}" fill="#676767" stroke-width="0"/><path d="M225.04664,195.22964l0.07693,-2.92307l4.16989,-3.56258l2.20943,3.4056l2.72221,0.8599l2.82155,2.06631z" fill="#cccccc" stroke-width="0"/><path d="M253.18042,195.15272l-0.46736,-1.61935l-0.92313,-0.61543l-0.78391,0.0961l-0.73169,0.3013l0.54461,-1.52465l1.33137,-4.08613l2.8194,3.34783v4.10033z" fill="#cccccc" stroke-width="0"/><path d="M228.25688,166.67018l-3.27778,-1.55556h11.22222l-1.22222,2.11111l1.16753,2.22425l-5.52932,0.46409z" fill="#cccccc" stroke-width="0"/><path d="M242.38889,183.80511l-3.32994,-1.66806l0.77438,-4.55416l0.44445,-3.55556l8.01205,0.44344l-1.56761,3.11212l-3.55555,-0.11112l1.63288,3.04534l3.64846,0.89132l-1.72579,5.61889z" fill="#cccccc" stroke-width="0"/><path d="M225.09243,181.1763v-3.62966c0,0 2.02979,0.48673 4.30701,-0.65397c1.79178,-0.89754 3.91598,-3.59935 4.10476,-2.91416c0.42869,1.556 -1.55589,5.48155 -2.94118,7.19779c-1.38529,1.71625 -5.47059,0 -5.47059,0z" fill="#b83c16" stroke-width="0"/><path d="M245.20204,175.01332c1.58124,-0.58892 9.74927,3.8489 9.74927,3.8489l-0.02701,3.60556c0,0 -1.82542,0.79507 -2.9122,0.4666c-1.10706,-0.33461 -1.47691,-1.79189 -1.59332,-1.68288c-0.71951,0.67367 -0.8049,1.62676 -1.83449,1.92182c-0.21472,0.06154 -0.48153,-0.09282 -0.73286,-0.2313c0.29799,2.40805 -1.99288,7.50286 -2.97826,8.58604c-0.5383,0.59171 -2.45181,2.37023 -3.19912,1.29437c-0.20962,-0.30178 -1.04139,-3.03309 -1.32071,-2.86461c-0.66549,0.40143 -1.66697,0.69425 -2.18105,-0.01072c-0.86581,-1.18731 0.39216,-4.7886 0.90917,-5.73667c1.49684,-2.74479 2.49375,-5.00453 4.17467,-3.99591c-0.1738,-1.24795 -0.31284,-2.49366 -0.44267,-3.47297c-0.00439,0.00394 -0.00879,0.00786 -0.0132,0.01179c-0.84784,0.75251 -1.7841,0.69181 -2.56607,-0.12685c-0.61999,-0.64909 -0.19529,-2.46211 -0.38233,-2.68342c-2.31925,-2.74423 -5.45878,0.7514 -7.02742,-3.72163c-1.3025,-3.71412 3.53549,-4.59124 4.93857,-2.66716l0.08533,-0.0468c2.22663,-0.41638 5.11519,2.56829 5.83859,5.44805c0.02047,-0.00136 0.04106,-0.00205 0.06178,-0.00205c0.28624,0 0.55009,0.13151 0.76116,0.35287c0.27201,0.28527 0.45639,0.71976 0.4881,1.21434c0.09138,0.29729 0.15564,0.51068 0.20407,0.49264z" fill="#bf4a17" stroke-width="0.5"/><path d="M234.02528,176.77509c0.91699,0.60377 1.28787,1.2248 1.37463,2.30072c0.0771,0.95615 2.25548,0.32222 2.478,1.25312c1.15291,4.82301 -4.52642,4.07661 -6.9803,2.44347c-0.2651,0.24713 -0.61463,0.3973 -0.9977,0.3973c-0.82843,0 -1.5,-0.70235 -1.5,-1.56875c0,-0.17267 0.02667,-0.33882 0.07594,-0.49419c-0.39941,-2.70307 2.80772,-6.13689 5.54942,-4.33167z" fill="#ff763c" stroke-width="0.5"/><path d="M248.2181,166.73348c0.61225,-0.53685 0.93475,-2.30827 0.93475,-2.30827l2.68509,-0.04488c0,0 0.70953,5.44843 -1.40949,7.66354c-0.44386,0.46399 0.96891,0.84938 1.35592,1.36607c0.68367,0.91275 1.02002,2.46262 0.75579,3.56799c-0.67705,2.83234 -4.7069,1.46857 -5.40727,-0.58236c-0.09177,-0.26872 0.07988,-0.82541 -0.19288,-0.83192c-0.11038,-0.00263 -0.51618,0.21115 -1.01848,0.43562c-0.26782,0.26063 -0.6269,0.42007 -1.02159,0.42007c-0.03557,0 -0.07085,-0.0013 -0.10581,-0.00385c-0.93079,0.23919 -1.73497,0.08259 -1.39369,-1.52359c-0.00034,-0.01373 -0.00051,-0.02749 -0.00051,-0.04131c0,-0.2716 0.066,-0.5271 0.18214,-0.74988c0.93254,-3.70857 1.75829,-4.84388 4.63604,-7.36722z" fill="#7b290f" stroke-width="0.5"/><path d="M251.98079,195.61967l-2.68509,-0.04488c0,0 -0.3225,-1.77142 -0.93475,-2.30827c-0.52525,-0.46056 -1.84979,-5.08147 -0.01434,-6.87451c1.64385,-1.60588 6.4443,-0.42608 6.4443,-0.42608l0.10146,5.49543z" data-paper-data="{&quot;index&quot;:null}" fill="#892d10" stroke-width="0.5"/><path d="M225.0487,191.61075l0.10146,-5.49543c0,0 2.14628,-0.79165 3.81777,-2.08811c0.95122,-0.73779 1.4589,-2.69978 2.0551,-2.11735c0.66845,0.65301 4.13643,0.27843 4.25426,2.1252c0.06892,1.08016 -2.78584,1.03729 -3.30069,2.40129c-1.02188,2.70731 -1.03156,4.09557 -1.25363,4.29029c-0.61225,0.53685 -5.67428,0.88412 -5.67428,0.88412z" data-paper-data="{&quot;index&quot;:null}" fill="#ff763c" stroke-width="0.5"/></g></g></svg>