<svg version="1.1" xmlns="http://www.w3.org/2000/svg" xmlns:xlink="http://www.w3.org/1999/xlink" width="653.15315" height="445.94595" viewBox="0,0,653.15315,445.94595"><g transform="translate(93.79035,35.64063)"><g data-paper-data="{&quot;isPaintingLayer&quot;:true}" fill-rule="nonzero" stroke-linejoin="miter" stroke-miterlimit="10" stroke-dasharray="" stroke-dashoffset="0" style="mix-blend-mode: normal"><path d="M-93.79035,410.30532v-445.94595h653.15315v445.94595z" fill="#0a122b" stroke="none" stroke-width="0" stroke-linecap="butt"/><path d="M-15.34724,254.54288c0,0 -5.6856,-15.25656 -5.6856,-20.32896c0,-4.03457 3.18777,-17.01997 3.18777,-17.01997c0,0 37.54593,11.29001 73.22786,11.65089c10.47393,0.10594 49.26844,-8.80128 66.53861,-8.82948c11.95783,-0.01953 52.67241,-3.62534 66.58568,-3.54845c14.9591,0.08267 66.24275,0.07998 82.04945,0.0824c14.45348,0.00221 14.01874,1.1515 38.24195,1.90545c6.46457,0.20123 60.58449,7.17159 64.13096,7.19227c23.64913,0.13806 120.29234,3.71945 120.8767,8.38447c0.47645,3.80351 -5.57604,24.35689 -5.57604,24.35689c0,0 1.58954,39.05446 -49.72104,38.99595c-36.71545,-0.04188 -70.06003,-2.99079 -114.15279,-3.75252c-23.49411,-0.40588 -59.42348,0.54764 -82.66118,0.51042c-19.89472,-0.03186 -89.44716,3.28407 -106.06994,3.22366c-17.65541,-0.06417 -94.89339,3.24886 -106.1017,3.31729c-41.18323,0.25149 -44.8707,-46.14029 -44.8707,-46.14029z" fill="#9a9a9a" stroke="none" stroke-width="0" stroke-linecap="butt"/><path d="M-20.91589,218.61688c0,0 -9.8897,-7.64808 -2.48204,-13.10012c3.50897,-2.58261 2.98204,-15.23321 2.98204,-15.23321c0,0 45.87018,1 94.72067,1c33.92356,0 102.38956,-13.62606 170.4334,-13.88577c6.11024,-0.02332 22.71304,-4.0195 28.78236,-3.98347c43.7358,0.25965 82.63122,9.80214 117.64406,13.4507c56.115,5.84754 108.75543,14.09622 104.24322,19.09591c-1.97903,2.19282 -1.92724,5.6528 -1.53789,7.99146c0.43565,2.61689 -9.15415,20.99784 -9.15415,20.99784c0,0 -38.42174,-5.09697 -122.55248,-5.63735c-21.88106,-0.14054 -73.6265,-11.8449 -96.19315,-12.13677c-23.48536,-0.30375 -48.34098,5.1182 -69.98478,4.97189c-60.23947,-0.40722 -93.80366,7.46864 -123.47984,7.50746c-43.88077,0.0574 -93.42138,-11.03857 -93.42138,-11.03857z" fill="#623e00" stroke="none" stroke-width="0" stroke-linecap="butt"/><path d="M-22.71991,189.13964l21.71166,-27.13766c0,0 84.01198,5.83605 139.68737,3.81414c28.87058,-1.04848 55.94603,-9.93221 108.67438,-13.16218c27.15197,-1.66323 78.72614,11.63074 107.68003,10.48816c84.33835,-3.32822 139.12282,18.65728 139.12282,18.65728l8.56362,25.69089c0,0 -55.71488,-13.95026 -71.9218,-14.51627c-8.50413,-0.29699 -68.9363,-4.25166 -86.76368,-4.52193c-11.91206,-0.18061 -54.45669,-13.77549 -68.53974,-13.87712c-14.24046,-0.10276 -62.06336,14.68073 -77.10431,14.94465c-22.41373,0.39333 -99.26561,6.74221 -119.89055,6.85969c-89.09994,0.50751 -101.21984,-7.23966 -101.21984,-7.23966z" fill="#9c8e8e" stroke="none" stroke-width="0" stroke-linecap="butt"/><path d="M44.25001,157l2.5,13" fill="none" stroke="#7b7070" stroke-width="2" stroke-linecap="round"/><path d="M62.75001,179.5l6,-7" fill="none" stroke="#7b7070" stroke-width="2" stroke-linecap="round"/><path d="M83.75001,184.5l-6,-6.5" fill="none" stroke="#7b7070" stroke-width="2" stroke-linecap="round"/><path d="M38.75001,179l-4,5.5" fill="none" stroke="#7b7070" stroke-width="2" stroke-linecap="round"/><path d="M24.25001,180.5l-3.5,-8.5" fill="none" stroke="#7b7070" stroke-width="2" stroke-linecap="round"/><path d="M98.75001,188.5l4,-7" fill="none" stroke="#7b7070" stroke-width="2" stroke-linecap="round"/><path d="M94.75001,173.5l-4,-6.5" fill="none" stroke="#7b7070" stroke-width="2" stroke-linecap="round"/><path d="M114.75001,179l7.5,-7" fill="none" stroke="#7b7070" stroke-width="2" stroke-linecap="round"/><path d="M127.25001,185l-6,-2" fill="none" stroke="#7b7070" stroke-width="2" stroke-linecap="round"/><path d="M139.25,176l4.5,-6.5" fill="none" stroke="#7b7070" stroke-width="2" stroke-linecap="round"/><path d="M154.75,179l-3.5,-2.5" fill="none" stroke="#7b7070" stroke-width="2" stroke-linecap="round"/><path d="M167.25,168l-1.5,4" fill="none" stroke="#7b7070" stroke-width="2" stroke-linecap="round"/><path d="M181.75001,180.5l2,-6.5" fill="none" stroke="#7b7070" stroke-width="2" stroke-linecap="round"/><path d="M157.25,169l2,-7.5" fill="none" stroke="#7b7070" stroke-width="2" stroke-linecap="round"/><path d="M129.75,169.5l-3.5,-6" fill="none" stroke="#7b7070" stroke-width="2" stroke-linecap="round"/><path d="M185.25001,164l3,-5.5" fill="none" stroke="#7b7070" stroke-width="2" stroke-linecap="round"/><path d="M176.75001,170l-4,-8.5" fill="none" stroke="#7b7070" stroke-width="2" stroke-linecap="round"/><path d="M164.25,185l5,-5.5" fill="none" stroke="#7b7070" stroke-width="2" stroke-linecap="round"/><path d="M201.25001,174.5l-2.5,-4.5" fill="none" stroke="#7b7070" stroke-width="2" stroke-linecap="round"/><path d="M212.25001,166l-5.5,-7" fill="none" stroke="#7b7070" stroke-width="2" stroke-linecap="round"/><path d="M210.25001,177l4.5,-5" fill="none" stroke="#7b7070" stroke-width="2" stroke-linecap="round"/><path d="M231.75001,156l2.5,4" fill="none" stroke="#7b7070" stroke-width="2" stroke-linecap="round"/><path d="M230.75001,172l-6.5,-7.5" fill="none" stroke="#7b7070" stroke-width="2" stroke-linecap="round"/><path d="M238.75001,169l2,-3.5" fill="none" stroke="#7b7070" stroke-width="2" stroke-linecap="round"/><path d="M256.25001,162.5l0.5,-4" fill="none" stroke="#7b7070" stroke-width="2" stroke-linecap="round"/><path d="M268.75001,160l0.5,-3" fill="none" stroke="#7b7070" stroke-width="2" stroke-linecap="round"/><path d="M259.75001,164l-0.5,5" fill="none" stroke="#7b7070" stroke-width="2" stroke-linecap="round"/><path d="M250.25001,168l-0.5,-5.5" fill="none" stroke="#7b7070" stroke-width="2" stroke-linecap="round"/><path d="M245.25001,155.5l0.5,-7" fill="none" stroke="#7b7070" stroke-width="2" stroke-linecap="round"/><path d="M292.25001,166l-4,5.5" fill="none" stroke="#7b7070" stroke-width="2" stroke-linecap="round"/><path d="M278.25001,164.5l5,-8.5" fill="none" stroke="#7b7070" stroke-width="2" stroke-linecap="round"/><path d="M295.75001,161l4,-8.5" fill="none" stroke="#7b7070" stroke-width="2" stroke-linecap="round"/><path d="M310.25001,174l1.5,-6.5" fill="none" stroke="#7b7070" stroke-width="2" stroke-linecap="round"/><path d="M304.25001,159.5l-1.5,5.5" fill="none" stroke="#7b7070" stroke-width="2" stroke-linecap="round"/><path d="M320.25001,167l-1.5,3" fill="none" stroke="#7b7070" stroke-width="2" stroke-linecap="round"/><path d="M301.75001,172l1,-4" fill="none" stroke="#7b7070" stroke-width="2" stroke-linecap="round"/><path d="M325.25001,178.5l4,-6.5" fill="none" stroke="#7b7070" stroke-width="2" stroke-linecap="round"/><path d="M347.75001,165l-2.5,3" fill="none" stroke="#7b7070" stroke-width="2" stroke-linecap="round"/><path d="M336.75001,180.5l1.5,-5" fill="none" stroke="#7b7070" stroke-width="2" stroke-linecap="round"/><path d="M348.75001,177.5l2,-4" fill="none" stroke="#7b7070" stroke-width="2" stroke-linecap="round"/><path d="M359.25001,168l1,-7" fill="none" stroke="#7b7070" stroke-width="2" stroke-linecap="round"/><path d="M359.25001,183l7,-7.5" fill="none" stroke="#7b7070" stroke-width="2" stroke-linecap="round"/><path d="M376.75001,168l2,-7.5" fill="none" stroke="#7b7070" stroke-width="2" stroke-linecap="round"/><path d="M376.25001,181.5l-1,-7" fill="none" stroke="#7b7070" stroke-width="2" stroke-linecap="round"/><path d="M383.75001,173l3,-6" fill="none" stroke="#7b7070" stroke-width="2" stroke-linecap="round"/><path d="M389.75001,177.5l-2,4" fill="none" stroke="#7b7070" stroke-width="2" stroke-linecap="round"/><path d="M393.25001,170.5l1,-5" fill="none" stroke="#7b7070" stroke-width="2" stroke-linecap="round"/><path d="M405.25001,180.5l4.5,-5.5" fill="none" stroke="#7b7070" stroke-width="2" stroke-linecap="round"/><path d="M399.25001,174l-1.5,5.5" fill="none" stroke="#7b7070" stroke-width="2" stroke-linecap="round"/><path d="M427.75001,181l5.5,-9.5" fill="none" stroke="#7b7070" stroke-width="2" stroke-linecap="round"/><path d="M460.25001,177l1.5,-6.5" fill="none" stroke="#7b7070" stroke-width="2" stroke-linecap="round"/><path d="M445.75001,175v-8.5" fill="none" stroke="#7b7070" stroke-width="2" stroke-linecap="round"/><path d="M447.25001,189.5l1.5,-7.5" fill="none" stroke="#7b7070" stroke-width="2" stroke-linecap="round"/><path d="M468.25001,189.5l-3,4.5" fill="none" stroke="#7b7070" stroke-width="2" stroke-linecap="round"/><path d="M479.25001,189v6" fill="none" stroke="#7b7070" stroke-width="2" stroke-linecap="round"/><path d="M473.75001,176l-0.5,6" fill="none" stroke="#7b7070" stroke-width="2" stroke-linecap="round"/><path d="M417.25001,185.5l6,-7.5" fill="none" stroke="#7b7070" stroke-width="2" stroke-linecap="round"/><path d="M420.25001,164.5v6" fill="none" stroke="#7b7070" stroke-width="2" stroke-linecap="round"/><path d="M32.53005,168.25l0.25,-7.75" fill="none" stroke="#7a6f6f" stroke-width="2" stroke-linecap="round"/><path d="M14.78005,166.75l-0.25,-7.75" fill="none" stroke="#7a6f6f" stroke-width="2" stroke-linecap="round"/><path d="M11.28005,172.5l-2,7.5" fill="none" stroke="#7a6f6f" stroke-width="2" stroke-linecap="round"/><path d="M18.53005,191.75l-3.5,-5.75" fill="none" stroke="#7a6f6f" stroke-width="2" stroke-linecap="round"/><path d="M55.03005,188.25l-1.75,2.25" fill="none" stroke="#7a6f6f" stroke-width="2" stroke-linecap="round"/><path d="M185.26615,272.5c-2.19059,-2.05537 -9.94178,-7.28865 -11.27519,-9.62813c-5.96989,-10.47427 -7.06515,-14.57723 1.77519,-22.87187c6.98394,-6.55283 18.98008,-0.11082 32.30249,3.69195c7.30779,2.08594 17.46152,-1.16645 21.69751,2.80805c6.13547,5.75674 32.69415,18.05178 39.00575,25.23849c5.99005,6.82059 -21.44457,2.04361 -27.00575,7.26151c-3.85844,3.62027 -34.7786,6.45154 -38.07887,6.8553c-6.46845,0.79138 -10.47638,-5.90098 -18.42113,-13.3553z" fill="#404040" stroke="none" stroke-width="0" stroke-linecap="butt"/><path d="M187.35895,271.4228c-2.01848,-1.89388 -9.16066,-6.71599 -10.3893,-8.87166c-2.87907,-5.05137 14.58625,0.10893 37.4886,2.83525c20.8556,2.48267 47.07359,2.17858 49.84543,5.33473c5.51941,6.2847 -19.75968,1.88304 -24.88391,6.69097c-3.55528,3.33582 -32.04606,5.94464 -35.08703,6.31669c-5.96023,0.7292 -9.65326,-5.43734 -16.97378,-12.30598z" fill="#616161" stroke="none" stroke-width="0" stroke-linecap="butt"/><path d="M193.26615,252.5c0,0 -0.28291,-5.46054 -0.63405,-7.42109c-0.47055,-2.62723 -1.93737,-6.93606 -1.93737,-6.93606l8.5,2.71429c0,0 -2.03691,1.32223 -2.17494,2.4472c-0.25806,2.10319 -2.39649,6.62423 -2.39649,6.62423z" fill="#616161" stroke="none" stroke-width="0" stroke-linecap="butt"/><path d="M216.69473,258.21429c0,0 -1.52334,-2.19532 -1.88084,-4.90387c-0.1782,-1.35013 -1.20784,-3.86503 -1.32464,-4.51721c-0.47055,-2.62723 -1.65166,-4.50749 -1.65166,-4.50749h10.21429c0,0 -1.46548,4.03652 -1.60351,5.16149c-0.25806,2.10319 -0.82506,4.33851 -0.82506,4.33851z" fill="#616161" stroke="none" stroke-width="0" stroke-linecap="butt"/><path d="M218.09183,272.96303c0,0 0.48422,1.78259 0.67147,2.78081c0.0865,0.46111 1.17059,-0.03176 1.2316,0.4655c0.10328,0.84176 1.19983,3.86209 1.19983,3.86209h-7.64286c0,0 0.88377,-1.40691 1.23586,-3.37274c0.0874,-0.48799 0.85783,-2.36977 0.99117,-3.38001c0.2675,-2.02668 1.12162,-3.52647 1.12162,-3.52647z" data-paper-data="{&quot;index&quot;:null}" fill="#757575" stroke="none" stroke-width="0" stroke-linecap="butt"/><path d="M239.6233,273.64285l-7.64286,0.00001c0,0 0.88377,-1.40691 1.23586,-3.37274c0.0874,-0.488 0.85783,-0.08406 0.99117,-1.0943c0.2675,-2.02668 3.12162,0.18782 3.12162,0.18782z" data-paper-data="{&quot;index&quot;:null}" fill="#757575" stroke="none" stroke-width="0" stroke-linecap="butt"/><path d="M198.44472,273.28572c-3.65396,-1.99037 -10.79638,-4.53066 -7.42857,-6.28571c2.02318,-1.05433 5.76105,0.75145 9.74243,1.14076c1.60128,0.15658 3.67052,0.44464 5.25487,0.26409c1.03374,-0.1178 2.61493,-0.49878 3.57413,0.02371c6.08451,3.31432 2.65004,6.24073 -1,8.14286c-3.65004,1.90213 -6.4889,-1.29535 -10.14286,-3.28572z" fill="#ff4a00" stroke="none" stroke-width="0" stroke-linecap="butt"/><path d="M-9.34724,313.54287c0,0 -5.6856,-15.25656 -5.6856,-20.32896c0,-4.03457 5.18777,-23.01997 5.18777,-23.01997c0,0 35.54593,17.29001 71.22786,17.65089c10.47393,0.10594 49.26844,-8.80128 66.53861,-8.82948c11.95783,-0.01953 26.67241,15.37466 40.58568,15.45155c14.9591,0.08267 65.24275,-1.92002 81.04945,-1.9176c14.45348,0.00221 31.01874,-2.8485 55.24195,-2.09455c6.46457,0.20123 63.58449,2.17159 67.13096,2.19227c13.04201,0.07614 50.33002,5.0756 75.87097,-1.3341c20.77254,-5.21303 38.74363,-30.37378 39.00572,-28.28143c0.47645,3.80351 7.42396,54.35689 7.42396,54.35689c0,0 1.58954,39.05446 -49.72104,38.99595c-36.71545,-0.04188 -70.06003,-2.99079 -114.15279,-3.75252c-23.49411,-0.40588 -59.42348,0.54764 -82.66118,0.51042c-19.89472,-0.03186 -89.44716,3.28407 -106.06994,3.22366c-17.65541,-0.06417 -94.89339,3.24886 -106.1017,3.31729c-41.18323,0.25149 -44.8707,-46.14029 -44.8707,-46.14029z" fill="#787878" stroke="none" stroke-width="0" stroke-linecap="butt"/><path d="M375.86051,349.98351c-3.30027,-0.40376 -34.22043,-3.23503 -38.07887,-6.8553c-5.56118,-5.2179 -32.9958,-0.44092 -27.00575,-7.26151c4.97197,-5.66134 -19.15834,-26.49266 -8.93894,-32.80063c1.52973,-0.94423 9.08932,3.87189 21.65579,6.35206c5.59674,1.10459 3.24055,-5.5437 9.01724,-7.31572c4.59936,-1.41087 23.34845,2.76651 23.60499,2.5258c4.23599,-3.9745 15.05638,-2.05544 22.36417,-4.14138c13.32241,-3.80277 18.31855,-2.91145 25.30249,3.64138c8.84034,8.29464 17.74508,18.06427 11.77519,28.53854c-1.33341,2.33948 -8.0846,10.90609 -10.27519,12.96146c-7.94475,7.45432 -22.95268,5.14668 -29.42113,4.3553z" data-paper-data="{&quot;index&quot;:null}" fill="#404040" stroke="none" stroke-width="0" stroke-linecap="butt"/><path d="M399.51686,344.26157c-2.98379,1.14875 -5.88862,2.99288 -6.57935,2.94204c-2.30352,-0.16956 -7.00998,0.0582 -8.83657,-0.01153c-5.71008,-0.21796 -6.66999,-0.41901 -9.75655,-0.79663c-3.04097,-0.37205 -31.53175,-2.98087 -35.08703,-6.31669c-5.12423,-4.80793 -30.40332,-0.40627 -24.88391,-6.69097c2.77184,-3.15615 28.98983,-2.85206 49.84543,-5.33473c5.09052,-0.60598 10.50528,-1.29927 15.81703,-1.95566c18.58592,-2.2967 35.9107,-4.14153 33.67157,-0.21292c-0.51061,0.89589 -1.18766,3.56624 -2.91863,5.74496c-1.0714,1.34854 -2.03239,4.38535 -3.79188,6.72153c-2.23784,2.97132 -5.68896,5.22102 -7.48011,5.91061z" data-paper-data="{&quot;index&quot;:null}" fill="#616161" stroke="none" stroke-width="0" stroke-linecap="butt"/><path d="M384.58717,308.79524c0,0 -2.13843,-4.52104 -2.39649,-6.62423c-0.13803,-1.12497 -2.17494,-2.4472 -2.17494,-2.4472l8.5,-1.38096c0,0 -1.46682,2.9755 -1.93737,5.60273c-0.35114,1.96055 -0.63405,7.42109 -0.63405,7.42109z" data-paper-data="{&quot;index&quot;:null}" fill="#616161" stroke="none" stroke-width="0" stroke-linecap="butt"/><path d="M354.65382,317.25239c0,0 -0.567,-2.23532 -0.82506,-4.33851c-0.13803,-1.12497 -5.27017,-9.82816 -5.27017,-9.82816c0,0 4.90493,-1.02347 7.30622,-1.36134c2.33495,-0.32853 7.10807,0.16134 7.10807,0.16134c0,0 -1.71445,7.74693 -2.185,10.37416c-0.1168,0.65218 -1.14644,3.16708 -1.32464,4.51721c-0.3575,2.70855 -1.88084,4.90387 -1.88084,4.90387z" data-paper-data="{&quot;index&quot;:null}" fill="#616161" stroke="none" stroke-width="0" stroke-linecap="butt"/><path d="M357.37661,332.45887c0,0 0.85412,1.49979 1.12162,3.52647c0.13334,1.01024 0.90377,2.89202 0.99117,3.38001c0.35209,1.96583 1.23586,3.37274 1.23586,3.37274h-7.64286c0,0 1.09655,-3.02033 1.19983,-3.86209c0.06101,-0.49726 1.1451,-0.00439 1.2316,-0.4655c0.18725,-0.99822 0.67147,-2.78081 0.67147,-2.78081z" data-paper-data="{&quot;index&quot;:null}" fill="#757575" stroke="none" stroke-width="0" stroke-linecap="butt"/><path d="M390.61471,335.36364c0,0 2.85412,-2.2145 3.12162,-0.18782c0.13334,1.01024 0.90377,0.6063 0.99117,1.0943c0.35209,1.96583 1.23586,3.37274 1.23586,3.37274l-7.64286,-0.00001z" data-paper-data="{&quot;index&quot;:null}" fill="#757575" stroke="none" stroke-width="0" stroke-linecap="butt"/><path d="M366.49235,337.95238l2.57143,-3c0,0 1.50038,-2.76578 5.00436,-1.84742c3.15083,0.82581 6.76049,0.59992 6.9359,1.10422c0.39038,1.12235 3.77403,2.60034 3.77403,2.60034c0,0 -2.23348,1.99588 -5.23887,2.75651c-2.15243,0.54476 -7.33442,-0.38645 -8.48423,-0.28379c-1.24294,0.11097 -4.56261,-1.32987 -4.56261,-1.32987z" fill="#757575" stroke="none" stroke-width="0" stroke-linecap="butt"/><path d="M374.03081,336.2381l-0.53846,-9.28571h3.57143l-0.38461,9.28571z" fill="#009fe0" stroke="none" stroke-width="0" stroke-linecap="butt"/><path d="M370.27422,328.36832l1.4,-2.1c0,0 1.44986,-0.4667 2.49307,-0.65027c0.12424,-0.02186 0.23887,-2.75978 0.34939,-4.15444c0.03771,-0.47584 -0.62506,-1.09531 -0.58809,-1.09719c0.10021,-0.00511 -0.33776,-0.85849 -0.09686,-0.85872c0.11202,-0.00011 0.24973,0.5019 0.40422,0.53654c0.53733,0.12047 1.50078,0.26508 2.12475,0.04927c0.35742,-0.12362 0.5039,-0.63923 0.64755,-0.65115c0.01452,-0.00121 0.00457,0.55908 -0.24084,1.05586c-0.21008,0.42527 -0.66195,0.77431 -0.64421,1.0167c0.10294,1.40594 0.2328,3.99403 0.31274,3.98434c0.8628,-0.10451 2.59212,0.66907 2.59212,0.66907l1.25,1.85c0,0 -2.24044,-1.00448 -3.20095,-1.0103c-1.24,-0.00751 -2.84678,-0.01724 -3.70077,-0.02242c-1.10122,-0.00667 -3.10212,1.38272 -3.10212,1.38272z" fill="#a7881f" stroke="none" stroke-width="0" stroke-linecap="butt"/><path d="M374.27614,325.06832l0.2,-3.55h1.65l0.25,3.55z" fill="#7b4b28" stroke="none" stroke-width="0" stroke-linecap="butt"/><path d="M374.47614,320.06832c0,-0.49705 0.40294,-0.9 0.9,-0.9c0.49705,0 0.9,0.40294 0.9,0.9c0,0.49705 -0.40295,0.9 -0.9,0.9c-0.49705,0 -0.9,-0.40295 -0.9,-0.9z" fill="#00ff50" stroke="none" stroke-width="0" stroke-linecap="butt"/><path d="M147.87463,245.68421c0,-1.38071 1.11929,-2.5 2.5,-2.5c1.38071,0 2.5,1.11929 2.5,2.5c0,1.38071 -1.11929,2.5 -2.5,2.5c-1.38071,0 -2.5,-1.11929 -2.5,-2.5z" fill="#9e8d8a" stroke="none" stroke-width="0.5" stroke-linecap="butt"/><path d="M150.62463,249.93421c0,-1.38071 1.11929,-2.5 2.5,-2.5c1.38071,0 2.5,1.11929 2.5,2.5c0,1.38071 -1.11929,2.5 -2.5,2.5c-1.38071,0 -2.5,-1.11929 -2.5,-2.5z" fill="#9e8d8a" stroke="none" stroke-width="0.5" stroke-linecap="butt"/><path d="M146.62463,254.68421c0,-1.38071 1.11929,-2.5 2.5,-2.5c1.38071,0 2.5,1.11929 2.5,2.5c0,1.38071 -1.11929,2.5 -2.5,2.5c-1.38071,0 -2.5,-1.11929 -2.5,-2.5z" fill="#9e8d8a" stroke="none" stroke-width="0.5" stroke-linecap="butt"/><path d="M153.37463,258.68421c0,-1.38071 1.11929,-2.5 2.5,-2.5c1.38071,0 2.5,1.11929 2.5,2.5c0,1.38071 -1.11929,2.5 -2.5,2.5c-1.38071,0 -2.5,-1.11929 -2.5,-2.5z" fill="#9e8d8a" stroke="none" stroke-width="0.5" stroke-linecap="butt"/><path d="M250.37463,230.93421c0,-1.38071 1.11929,-2.5 2.5,-2.5c1.38071,0 2.5,1.11929 2.5,2.5c0,1.38071 -1.11929,2.5 -2.5,2.5c-1.38071,0 -2.5,-1.11929 -2.5,-2.5z" fill="#9e8d8a" stroke="none" stroke-width="0.5" stroke-linecap="butt"/><path d="M251.62463,236.68421c0,-1.38071 1.11929,-2.5 2.5,-2.5c1.38071,0 2.5,1.11929 2.5,2.5c0,1.38071 -1.11929,2.5 -2.5,2.5c-1.38071,0 -2.5,-1.11929 -2.5,-2.5z" fill="#9e8d8a" stroke="none" stroke-width="0.5" stroke-linecap="butt"/><path d="M246.12463,238.93421c0,-1.38071 1.11929,-2.5 2.5,-2.5c1.38071,0 2.5,1.11929 2.5,2.5c0,1.38071 -1.11929,2.5 -2.5,2.5c-1.38071,0 -2.5,-1.11929 -2.5,-2.5z" fill="#9e8d8a" stroke="none" stroke-width="0.5" stroke-linecap="butt"/><path d="M343.87463,267.93421c0,-1.38071 1.11929,-2.5 2.5,-2.5c1.38071,0 2.5,1.11929 2.5,2.5c0,1.38071 -1.11929,2.5 -2.5,2.5c-1.38071,0 -2.5,-1.11929 -2.5,-2.5z" fill="#9e8d8a" stroke="none" stroke-width="0.5" stroke-linecap="butt"/><path d="M339.62463,276.68421c0,-1.38071 1.11929,-2.5 2.5,-2.5c1.38071,0 2.5,1.11929 2.5,2.5c0,1.38071 -1.11929,2.5 -2.5,2.5c-1.38071,0 -2.5,-1.11929 -2.5,-2.5z" fill="#9e8d8a" stroke="none" stroke-width="0.5" stroke-linecap="butt"/><path d="M346.12463,273.68421c0,-1.38071 1.11929,-2.5 2.5,-2.5c1.38071,0 2.5,1.11929 2.5,2.5c0,1.38071 -1.11929,2.5 -2.5,2.5c-1.38071,0 -2.5,-1.11929 -2.5,-2.5z" fill="#9e8d8a" stroke="none" stroke-width="0.5" stroke-linecap="butt"/><path d="M444.87463,285.18421c0,-1.38071 1.11929,-2.5 2.5,-2.5c1.38071,0 2.5,1.11929 2.5,2.5c0,1.38071 -1.11929,2.5 -2.5,2.5c-1.38071,0 -2.5,-1.11929 -2.5,-2.5z" fill="#9e8d8a" stroke="none" stroke-width="0.5" stroke-linecap="butt"/><path d="M450.87463,292.18421c0,-1.38071 1.11929,-2.5 2.5,-2.5c1.38071,0 2.5,1.11929 2.5,2.5c0,1.38071 -1.11929,2.5 -2.5,2.5c-1.38071,0 -2.5,-1.11929 -2.5,-2.5z" fill="#9e8d8a" stroke="none" stroke-width="0.5" stroke-linecap="butt"/><path d="M443.12463,294.68421c0,-1.38071 1.11929,-2.5 2.5,-2.5c1.38071,0 2.5,1.11929 2.5,2.5c0,1.38071 -1.11929,2.5 -2.5,2.5c-1.38071,0 -2.5,-1.11929 -2.5,-2.5z" fill="#9e8d8a" stroke="none" stroke-width="0.5" stroke-linecap="butt"/><path d="M441.62463,289.68421c0,-1.38071 1.11929,-2.5 2.5,-2.5c1.38071,0 2.5,1.11929 2.5,2.5c0,1.38071 -1.11929,2.5 -2.5,2.5c-1.38071,0 -2.5,-1.11929 -2.5,-2.5z" fill="#9e8d8a" stroke="none" stroke-width="0.5" stroke-linecap="butt"/><path d="M445.21997,331.43421c0,-1.38071 1.11929,-2.5 2.5,-2.5c1.38071,0 2.5,1.11929 2.5,2.5c0,1.38071 -1.11929,2.5 -2.5,2.5c-0.27151,0 -0.53292,-0.04329 -0.77769,-0.12333c0.01824,0.12179 0.02769,0.24646 0.02769,0.37333c0,1.38071 -1.11929,2.5 -2.5,2.5c-1.38071,0 -2.5,-1.11929 -2.5,-2.5c0,-1.38071 1.11929,-2.5 2.5,-2.5c0.27151,0 0.53292,0.04328 0.77769,0.12332c-0.01824,-0.12179 -0.02769,-0.24645 -0.02769,-0.37332z" fill="#9e8d8a" stroke="none" stroke-width="0.5" stroke-linecap="butt"/><path d="M448.21997,336.18421c0,-1.38071 1.11929,-2.5 2.5,-2.5c1.38071,0 2.5,1.11929 2.5,2.5c0,1.38071 -1.11929,2.5 -2.5,2.5c-1.38071,0 -2.5,-1.11929 -2.5,-2.5z" fill="#9e8d8a" stroke="none" stroke-width="0.5" stroke-linecap="butt"/><path d="M206.71997,336.93421c0,-1.38071 1.11929,-2.5 2.5,-2.5c1.38071,0 2.5,1.11929 2.5,2.5c0,1.38071 -1.11929,2.5 -2.5,2.5c-1.38071,0 -2.5,-1.11929 -2.5,-2.5z" fill="#9e8d8a" stroke="none" stroke-width="0.5" stroke-linecap="butt"/><path d="M214.46997,331.93421c0,-1.38071 1.11929,-2.5 2.5,-2.5c1.38071,0 2.5,1.11929 2.5,2.5c0,1.38071 -1.11929,2.5 -2.5,2.5c-1.38071,0 -2.5,-1.11929 -2.5,-2.5z" fill="#9e8d8a" stroke="none" stroke-width="0.5" stroke-linecap="butt"/><path d="M213.96997,337.93421c0,-1.38071 1.11929,-2.5 2.5,-2.5c1.38071,0 2.5,1.11929 2.5,2.5c0,1.38071 -1.11929,2.5 -2.5,2.5c-1.38071,0 -2.5,-1.11929 -2.5,-2.5z" fill="#9e8d8a" stroke="none" stroke-width="0.5" stroke-linecap="butt"/><path d="M274.21997,339.18421c0,-1.38071 1.11929,-2.5 2.5,-2.5c1.38071,0 2.5,1.11929 2.5,2.5c0,1.38071 -1.11929,2.5 -2.5,2.5c-1.38071,0 -2.5,-1.11929 -2.5,-2.5z" fill="#9e8d8a" stroke="none" stroke-width="0.5" stroke-linecap="butt"/><path d="M272.46997,333.68421c0,-1.38071 1.11929,-2.5 2.5,-2.5c1.38071,0 2.5,1.11929 2.5,2.5c0,1.38071 -1.11929,2.5 -2.5,2.5c-1.38071,0 -2.5,-1.11929 -2.5,-2.5z" fill="#9e8d8a" stroke="none" stroke-width="0.5" stroke-linecap="butt"/><path d="M53.96997,326.68421c0,-1.38071 1.11929,-2.5 2.5,-2.5c1.38071,0 2.5,1.11929 2.5,2.5c0,1.38071 -1.11929,2.5 -2.5,2.5c-1.38071,0 -2.5,-1.11929 -2.5,-2.5z" fill="#9e8d8a" stroke="none" stroke-width="0.5" stroke-linecap="butt"/><path d="M55.71997,316.68421c0,-1.38071 1.11929,-2.5 2.5,-2.5c1.38071,0 2.5,1.11929 2.5,2.5c0,1.38071 -1.11929,2.5 -2.5,2.5c-1.38071,0 -2.5,-1.11929 -2.5,-2.5z" fill="#9e8d8a" stroke="none" stroke-width="0.5" stroke-linecap="butt"/><path d="M58.96997,326.18421c0,-1.38071 1.11929,-2.5 2.5,-2.5c0.07565,0 0.15051,0.00335 0.22444,0.00993c-0.44783,-0.45178 -0.72444,-1.07355 -0.72444,-1.75993c0,-1.38071 1.11929,-2.5 2.5,-2.5c1.38071,0 2.5,1.11929 2.5,2.5c0,1.38071 -1.11929,2.5 -2.5,2.5c-0.07565,0 -0.15051,-0.00336 -0.22444,-0.00994c0.44783,0.45178 0.72444,1.07356 0.72444,1.75994c0,1.38071 -1.11929,2.5 -2.5,2.5c-1.38071,0 -2.5,-1.11929 -2.5,-2.5z" fill="#9e8d8a" stroke="none" stroke-width="0.5" stroke-linecap="butt"/><path d="M101.21997,311.43421c0,-0.06883 0.00279,-0.13702 0.00824,-0.20444c-0.24517,-0.10607 -0.47,-0.25026 -0.66701,-0.4251c-0.44675,0.68032 -1.21652,1.12954 -2.09123,1.12954c-1.38071,0 -2.5,-1.11929 -2.5,-2.5c0,-1.38071 1.11929,-2.5 2.5,-2.5c0.63649,0 1.21743,0.23785 1.65877,0.62953c0.44675,-0.68032 1.21652,-1.12953 2.09123,-1.12953c1.38071,0 2.5,1.11929 2.5,2.5c0,0.06883 -0.00279,0.13701 -0.00824,0.20444c0.88735,0.38389 1.50824,1.26722 1.50824,2.29556c0,1.38071 -1.11929,2.5 -2.5,2.5c-1.38071,0 -2.5,-1.11929 -2.5,-2.5z" fill="#ffc700" stroke="none" stroke-width="0.5" stroke-linecap="butt"/><path d="M100.46997,303.43421c0,-1.38071 1.11929,-2.5 2.5,-2.5c1.38071,0 2.5,1.11929 2.5,2.5c0,1.38071 -1.11929,2.5 -2.5,2.5c-1.38071,0 -2.5,-1.11929 -2.5,-2.5z" fill="#ffc700" stroke="none" stroke-width="0.5" stroke-linecap="butt"/><path d="M146.71997,341.18421c0,-1.38071 1.11929,-2.5 2.5,-2.5c1.38071,0 2.5,1.11929 2.5,2.5c0,1.38071 -1.11929,2.5 -2.5,2.5c-1.38071,0 -2.5,-1.11929 -2.5,-2.5z" fill="#ffc700" stroke="none" stroke-width="0.5" stroke-linecap="butt"/><path d="M145.96997,346.18421c0,-1.38071 1.11929,-2.5 2.5,-2.5c0.30783,0 0.60267,0.05563 0.875,0.1574c0.27233,-0.10177 0.56717,-0.1574 0.875,-0.1574c1.38071,0 2.5,1.11929 2.5,2.5c0,1.38071 -1.11929,2.5 -2.5,2.5c-0.30783,0 -0.60267,-0.05564 -0.875,-0.15741c-0.27233,0.10177 -0.56717,0.15741 -0.875,0.15741c-0.8264,0 -1.55915,-0.40098 -2.0143,-1.01899c0.00946,0.08837 0.0143,0.17811 0.0143,0.26899c0,1.38071 -1.11929,2.5 -2.5,2.5c-1.38071,0 -2.5,-1.11929 -2.5,-2.5c0,-1.38071 1.11929,-2.5 2.5,-2.5c0.8264,0 1.55915,0.40098 2.0143,1.01898c-0.00946,-0.08837 -0.0143,-0.17811 -0.0143,-0.26898z" fill="#ffc700" stroke="none" stroke-width="0.5" stroke-linecap="butt"/><path d="M431.46996,315.9342c0,-1.38071 1.11929,-2.5 2.5,-2.5c1.38071,0 2.5,1.11929 2.5,2.5c0,1.38071 -1.11929,2.5 -2.5,2.5c-1.38071,0 -2.5,-1.11929 -2.5,-2.5z" fill="#ffc700" stroke="none" stroke-width="0.5" stroke-linecap="butt"/><path d="M434.71996,310.9342c0,-1.38071 1.11929,-2.5 2.5,-2.5c1.38071,0 2.5,1.11929 2.5,2.5c0,1.38071 -1.11929,2.5 -2.5,2.5c-1.38071,0 -2.5,-1.11929 -2.5,-2.5z" fill="#ffc700" stroke="none" stroke-width="0.5" stroke-linecap="butt"/><path d="M436.96996,316.4342c0,-1.38071 1.11929,-2.5 2.5,-2.5c1.38071,0 2.5,1.11929 2.5,2.5c0,1.38071 -1.11929,2.5 -2.5,2.5c-1.38071,0 -2.5,-1.11929 -2.5,-2.5z" fill="#ffc700" stroke="none" stroke-width="0.5" stroke-linecap="butt"/><path d="M369.21996,267.1842c0,-0.82438 0.39901,-1.55556 1.01444,-2.01095c-1.27025,-0.11871 -2.26444,-1.18777 -2.26444,-2.48905c0,-1.38071 1.11929,-2.5 2.5,-2.5c1.38071,0 2.5,1.11929 2.5,2.5c0,0.82438 -0.39901,1.55556 -1.01444,2.01095c1.27025,0.11871 2.26444,1.18777 2.26444,2.48905c0,1.38071 -1.11929,2.5 -2.5,2.5c-1.38071,0 -2.5,-1.11929 -2.5,-2.5z" fill="#ffc700" stroke="none" stroke-width="0.5" stroke-linecap="butt"/><path d="M232.21996,335.4342c0,-1.38071 1.11929,-2.5 2.5,-2.5c1.38071,0 2.5,1.11929 2.5,2.5c0,1.38071 -1.11929,2.5 -2.5,2.5c-1.38071,0 -2.5,-1.11929 -2.5,-2.5z" fill="#00ff23" stroke="none" stroke-width="0.5" stroke-linecap="butt"/><path d="M410.71996,286.4342c0,-1.38071 1.11929,-2.5 2.5,-2.5c1.38071,0 2.5,1.11929 2.5,2.5c0,1.38071 -1.11929,2.5 -2.5,2.5c-1.38071,0 -2.5,-1.11929 -2.5,-2.5z" fill="#00ff23" stroke="none" stroke-width="0.5" stroke-linecap="butt"/><path d="M458.21996,323.1842c0,-1.38071 1.11929,-2.5 2.5,-2.5c1.38071,0 2.5,1.11929 2.5,2.5c0,1.38071 -1.11929,2.5 -2.5,2.5c-1.38071,0 -2.5,-1.11929 -2.5,-2.5z" fill="#00ff23" stroke="none" stroke-width="0.5" stroke-linecap="butt"/><path d="M459.21996,317.4342c0,-1.38071 1.11929,-2.5 2.5,-2.5c1.38071,0 2.5,1.11929 2.5,2.5c0,1.38071 -1.11929,2.5 -2.5,2.5c-1.38071,0 -2.5,-1.11929 -2.5,-2.5z" fill="#00ff23" stroke="none" stroke-width="0.5" stroke-linecap="butt"/><path d="M163.96996,274.4342c1.38071,0 2.5,1.11929 2.5,2.5c0,1.38071 -1.11929,2.5 -2.5,2.5c-1.09894,0 -2.03227,-0.70906 -2.36744,-1.69463c-0.43959,0.71661 -1.23025,1.19463 -2.13256,1.19463c-1.38071,0 -2.5,-1.11929 -2.5,-2.5c0,-1.38071 1.11929,-2.5 2.5,-2.5c0.31384,0 0.61417,0.05783 0.89092,0.16341c-0.54477,-0.4586 -0.89092,-1.14558 -0.89092,-1.91341c0,-1.38071 1.11929,-2.5 2.5,-2.5c1.38071,0 2.5,1.11929 2.5,2.5c0,1.38071 -1.11929,2.5 -2.5,2.5c-0.31384,0 -0.61417,-0.05783 -0.89092,-0.16341c0.34485,0.2903 0.61012,0.67213 0.75837,1.10805c0.43959,-0.71661 1.23025,-1.19463 2.13256,-1.19463z" fill="#e26e00" stroke="none" stroke-width="0.5" stroke-linecap="butt"/><path d="M158.21996,284.6842c0,-1.38071 1.11929,-2.5 2.5,-2.5c1.38071,0 2.5,1.11929 2.5,2.5c0,1.38071 -1.11929,2.5 -2.5,2.5c-1.38071,0 -2.5,-1.11929 -2.5,-2.5z" fill="#e26e00" stroke="none" stroke-width="0.5" stroke-linecap="butt"/><path d="M422.21996,246.9342c0,-1.38071 1.11929,-2.5 2.5,-2.5c1.38071,0 2.5,1.11929 2.5,2.5c0,1.38071 -1.11929,2.5 -2.5,2.5c-1.38071,0 -2.5,-1.11929 -2.5,-2.5z" fill="#e26e00" stroke="none" stroke-width="0.5" stroke-linecap="butt"/><path d="M426.46996,241.4342c0,-1.38071 1.11929,-2.5 2.5,-2.5c1.38071,0 2.5,1.11929 2.5,2.5c0,1.38071 -1.11929,2.5 -2.5,2.5c-1.38071,0 -2.5,-1.11929 -2.5,-2.5z" fill="#e26e00" stroke="none" stroke-width="0.5" stroke-linecap="butt"/><path d="M426.96996,249.6842c0,-1.38071 1.11929,-2.5 2.5,-2.5c0.68871,0 1.31237,0.27849 1.76452,0.72899c0.13509,-1.25324 1.19634,-2.22899 2.48548,-2.22899c1.38071,0 2.5,1.11929 2.5,2.5c0,1.38071 -1.11929,2.5 -2.5,2.5c-0.68871,0 -1.31237,-0.27849 -1.76452,-0.72899c-0.13509,1.25324 -1.19634,2.22899 -2.48548,2.22899c-1.38071,0 -2.5,-1.11929 -2.5,-2.5z" fill="#e26e00" stroke="none" stroke-width="0.5" stroke-linecap="butt"/><path d="M463.21996,233.9342c0,-1.38071 1.11929,-2.5 2.5,-2.5c1.38071,0 2.5,1.11929 2.5,2.5c0,1.38071 -1.11929,2.5 -2.5,2.5c-1.38071,0 -2.5,-1.11929 -2.5,-2.5z" fill="#e26e00" stroke="none" stroke-width="0.5" stroke-linecap="butt"/><path d="M467.98602,241.89931c0.14141,-1.24656 1.19957,-2.2151 2.48394,-2.2151c1.38071,0 2.5,1.11929 2.5,2.5c0,1.38071 -1.11929,2.5 -2.5,2.5c-0.36178,0 -0.70561,-0.07685 -1.01606,-0.2151c-0.14141,1.24656 -1.19957,2.2151 -2.48394,2.2151c-1.12076,0 -2.06927,-0.7375 -2.3867,-1.75367c-1.31714,-0.07098 -2.3633,-1.16148 -2.3633,-2.49633c0,-1.38071 1.11929,-2.5 2.5,-2.5c1.12076,0 2.06927,0.7375 2.3867,1.75367c0.31172,0.0168 0.60826,0.0907 0.87935,0.21143z" fill="#e26e00" stroke="none" stroke-width="0.5" stroke-linecap="butt"/><path d="M296.96996,278.9342c1.38071,0 2.5,1.11929 2.5,2.5c0,1.38071 -1.11929,2.5 -2.5,2.5c-0.81782,0 -1.54392,-0.39269 -2.00003,-0.9998c-0.41783,0.31383 -0.93718,0.4998 -1.49997,0.4998c-1.38071,0 -2.5,-1.11929 -2.5,-2.5c0,-1.38071 1.11929,-2.5 2.5,-2.5c0.81782,0 1.54392,0.39269 2.00003,0.9998c0.41783,-0.31383 0.93718,-0.4998 1.49997,-0.4998z" fill="#e26e00" stroke="none" stroke-width="0.5" stroke-linecap="butt"/><path d="M295.96996,275.1842c0,-0.21881 0.02811,-0.43106 0.08092,-0.63333c-0.38539,0.24284 -0.84175,0.38333 -1.33092,0.38333c-1.38071,0 -2.5,-1.11929 -2.5,-2.5c0,-1.38071 1.11929,-2.5 2.5,-2.5c1.38071,0 2.5,1.11929 2.5,2.5c0,0.21881 -0.02811,0.43106 -0.08092,0.63333c0.38539,-0.24284 0.84175,-0.38333 1.33092,-0.38333c1.38071,0 2.5,1.11929 2.5,2.5c0,1.38071 -1.11929,2.5 -2.5,2.5c-1.38071,0 -2.5,-1.11929 -2.5,-2.5z" fill="#e26e00" stroke="none" stroke-width="0.5" stroke-linecap="butt"/><path d="M266.09496,229.4342c0,-1.38071 1.11929,-2.5 2.5,-2.5c1.38071,0 2.5,1.11929 2.5,2.5c0,1.38071 -1.11929,2.5 -2.5,2.5c-1.38071,0 -2.5,-1.11929 -2.5,-2.5z" fill="#e26e00" stroke="none" stroke-width="0.5" stroke-linecap="butt"/><path d="M269.09496,221.9342c0,-1.38071 1.11929,-2.5 2.5,-2.5c1.38071,0 2.5,1.11929 2.5,2.5c0,1.38071 -1.11929,2.5 -2.5,2.5c-1.38071,0 -2.5,-1.11929 -2.5,-2.5z" fill="#e26e00" stroke="none" stroke-width="0.5" stroke-linecap="butt"/><path d="M272.09496,226.4342c0,-1.38071 1.11929,-2.5 2.5,-2.5c1.38071,0 2.5,1.11929 2.5,2.5c0,1.38071 -1.11929,2.5 -2.5,2.5c-1.38071,0 -2.5,-1.11929 -2.5,-2.5z" fill="#e26e00" stroke="none" stroke-width="0.5" stroke-linecap="butt"/><path d="M265.59496,235.9342c0,-1.38071 1.11929,-2.5 2.5,-2.5c1.38071,0 2.5,1.11929 2.5,2.5c0,1.38071 -1.11929,2.5 -2.5,2.5c-1.38071,0 -2.5,-1.11929 -2.5,-2.5z" fill="#e26e00" stroke="none" stroke-width="0.5" stroke-linecap="butt"/><path d="M28.84949,304.4342c0,-0.08437 0.00418,-0.16777 0.01234,-0.25c-0.00816,-0.08223 -0.01234,-0.16563 -0.01234,-0.25c0,-1.38071 1.11929,-2.5 2.5,-2.5c1.38071,0 2.5,1.11929 2.5,2.5c0,0.08437 -0.00418,0.16777 -0.01234,0.25c0.00816,0.08223 0.01234,0.16563 0.01234,0.25c0,1.38071 -1.11929,2.5 -2.5,2.5c-1.38071,0 -2.5,-1.11929 -2.5,-2.5z" fill="#e26e00" stroke="none" stroke-width="0.5" stroke-linecap="butt"/><path d="M32.84949,291.4342c0,-1.38071 1.11929,-2.5 2.5,-2.5c1.38071,0 2.5,1.11929 2.5,2.5c0,1.38071 -1.11929,2.5 -2.5,2.5c-1.38071,0 -2.5,-1.11929 -2.5,-2.5z" fill="#e26e00" stroke="none" stroke-width="0.5" stroke-linecap="butt"/><path d="M35.84949,296.4342c0,-1.38071 1.11929,-2.5 2.5,-2.5c1.38071,0 2.5,1.11929 2.5,2.5c0,1.38071 -1.11929,2.5 -2.5,2.5c-1.38071,0 -2.5,-1.11929 -2.5,-2.5z" fill="#e26e00" stroke="none" stroke-width="0.5" stroke-linecap="butt"/><path d="M38.84949,307.4342c0,-1.38071 1.11929,-2.5 2.5,-2.5c1.38071,0 2.5,1.11929 2.5,2.5c0,1.38071 -1.11929,2.5 -2.5,2.5c-1.38071,0 -2.5,-1.11929 -2.5,-2.5z" fill="#e26e00" stroke="none" stroke-width="0.5" stroke-linecap="butt"/><path d="M46.34949,239.9342c0,-1.38071 1.11929,-2.5 2.5,-2.5c1.38071,0 2.5,1.11929 2.5,2.5c0,1.38071 -1.11929,2.5 -2.5,2.5c-1.38071,0 -2.5,-1.11929 -2.5,-2.5z" fill="#e26e00" stroke="none" stroke-width="0.5" stroke-linecap="butt"/><path d="M48.34949,230.9342c0,-1.38071 1.11929,-2.5 2.5,-2.5c1.38071,0 2.5,1.11929 2.5,2.5c0,1.38071 -1.11929,2.5 -2.5,2.5c-1.38071,0 -2.5,-1.11929 -2.5,-2.5z" fill="#e26e00" stroke="none" stroke-width="0.5" stroke-linecap="butt"/><path d="M58.84949,235.9342c0,-1.38071 1.11929,-2.5 2.5,-2.5c1.38071,0 2.5,1.11929 2.5,2.5c0,1.38071 -1.11929,2.5 -2.5,2.5c-1.38071,0 -2.5,-1.11929 -2.5,-2.5z" fill="#e26e00" stroke="none" stroke-width="0.5" stroke-linecap="butt"/><path d="M53.34949,238.4342c0,-1.38071 1.11929,-2.5 2.5,-2.5c1.38071,0 2.5,1.11929 2.5,2.5c0,1.38071 -1.11929,2.5 -2.5,2.5c-1.38071,0 -2.5,-1.11929 -2.5,-2.5z" fill="#e26e00" stroke="none" stroke-width="0.5" stroke-linecap="butt"/><path d="M52.34949,244.4342c0,-1.38071 1.11929,-2.5 2.5,-2.5c1.38071,0 2.5,1.11929 2.5,2.5c0,1.38071 -1.11929,2.5 -2.5,2.5c-1.38071,0 -2.5,-1.11929 -2.5,-2.5z" fill="#e26e00" stroke="none" stroke-width="0.5" stroke-linecap="butt"/><path d="M247.40973,87.9421c-6.90787,-5.8564 -8.8564,-23.70897 0,-31c9.3402,-7.68933 22.5,0 22.5,0c0,0 -8.17399,-0.16588 -13.46392,4.10439c-3.08933,2.49385 -4.53608,9.30118 -4.53608,11.14561c0,0.9118 0.03623,8.24177 4.2861,11.7585c4.72492,3.90983 13.7139,0.7415 13.7139,0.7415c0,0 -15.80216,8.92833 -22.5,3.25z" fill="#b5b5b5" stroke="none" stroke-width="0" stroke-linecap="butt"/><path d="M248.65973,63.7921c0,-0.69036 0.55964,-1.25 1.25,-1.25c0.69036,0 1.25,0.55964 1.25,1.25c0,0.69036 -0.55964,1.25 -1.25,1.25c-0.69036,0 -1.25,-0.55964 -1.25,-1.25z" fill="#909090" stroke="none" stroke-width="0.5" stroke-linecap="butt"/><path d="M251.90973,86.5921c0,-0.69036 0.55964,-1.25 1.25,-1.25c0.69036,0 1.25,0.55964 1.25,1.25c0,0.69036 -0.55964,1.25 -1.25,1.25c-0.69036,0 -1.25,-0.55964 -1.25,-1.25z" fill="#909090" stroke="none" stroke-width="0.5" stroke-linecap="butt"/><path d="M243.40973,64.2921c0,-0.69036 0.55964,-1.25 1.25,-1.25c0.69036,0 1.25,0.55964 1.25,1.25c0,0.69036 -0.55964,1.25 -1.25,1.25c-0.69036,0 -1.25,-0.55964 -1.25,-1.25z" fill="#909090" stroke="none" stroke-width="0.5" stroke-linecap="butt"/><path d="M246.40973,78.3421c0,-1.24264 1.00736,-2.25 2.25,-2.25c1.24264,0 2.25,1.00736 2.25,2.25c0,1.24264 -1.00736,2.25 -2.25,2.25c-1.24264,0 -2.25,-1.00736 -2.25,-2.25z" fill="#acacac" stroke="none" stroke-width="0.5" stroke-linecap="butt"/><path d="M256.15973,56.6421c0,-1.24264 1.00736,-2.25 2.25,-2.25c1.24264,0 2.25,1.00736 2.25,2.25c0,1.24264 -1.00736,2.25 -2.25,2.25c-1.24264,0 -2.25,-1.00736 -2.25,-2.25z" fill="#acacac" stroke="none" stroke-width="0.5" stroke-linecap="butt"/><path d="M187.52341,161.30539c0,0 -1.24748,0.88039 -2.58042,0.63371c-0.77108,-0.1427 -0.35781,-1.50509 -1.13618,-1.91553c-0.65985,-0.34795 -2.51994,0.2383 -3.09413,0.2209c-0.85647,-0.02595 -2.49308,0.90603 -3.83869,1.07198c-1.43283,0.17671 -2.55058,-0.41105 -2.55058,-0.41105c0,0 1.22589,-1.09066 2.78991,-2.26507c0.85717,-0.64364 2.23569,-1.03258 2.59187,-1.93276c1.09713,-2.77277 -1.16959,-6.52528 -1.22601,-8.42462c-0.07223,-2.43158 0.46377,-7.56941 0.41066,-11.98436c-0.02192,-1.8225 -1.06854,-6.04797 -1.12849,-7.79449c-0.22503,-6.55542 0.36206,-8.1987 0.36206,-8.1987l3.8,-1.8c0,0 0.26949,2.59845 -0.07374,7.23892c-0.23472,3.17344 1.12461,8.12775 0.97963,11.77324c-0.06647,1.67131 -0.30589,7.37415 -0.30589,8.58783c0,3.14926 1.42495,8.06794 2.75345,11.22349c1.16005,2.75544 2.24655,3.97651 2.24655,3.97651z" fill="#442a21" stroke="none" stroke-width="0" stroke-linecap="butt"/><path d="M330.24563,173.33316c0,0 0.41919,0.54706 -0.91375,0.30038c-0.77108,-0.1427 0.86441,-3.06065 0.08604,-3.47109c-0.65985,-0.34795 -1.18661,2.12719 -1.7608,2.10979c-0.85647,-0.02595 1.06248,3.23936 -0.28313,3.40531c-0.60112,0.07414 -0.88371,-2.50808 -2.04118,-3.07999c-0.85133,-0.42064 -1.72406,0.923 -2.56302,1.12904c-0.73922,0.18154 -1.50194,-0.79344 -1.50194,-0.79344c0,0 1.22589,-1.09066 2.78991,-2.26507c0.85717,-0.64364 2.23569,-1.03258 2.59187,-1.93276c1.09713,-2.77277 -0.05848,-7.7475 -0.1149,-9.64684c-0.04257,-1.43323 -2.14875,-5.15983 -2.33087,-7.42258c-0.12686,-1.57617 -0.79222,-3.41578 -0.81402,-5.22845c-0.02192,-1.8225 1.26479,-6.71464 1.20484,-8.46116c-0.22503,-6.55542 -1.41572,-5.86537 -1.41572,-5.86537c0,0 0.0756,-1.60031 0.5483,-2.1668c0.4603,-0.55163 2.2517,-1.18876 2.2517,-1.18876c0,0 1.60282,1.70956 1.25959,6.35003c-0.23472,3.17344 -0.09761,8.68331 -0.24259,12.3288c-0.06647,1.67131 2.47189,9.48526 2.47189,10.69894c0,1.7028 0.23265,5.68189 1.92098,8.07862c1.0812,1.53487 3.08711,1.69981 4.93601,2.56783c0.23498,0.11032 0.14522,1.27924 -1.13283,1.38922c-0.81058,0.06975 -3.02899,-0.95062 -2.97071,-0.81218c1.16005,2.75544 -1.97567,3.97651 -1.97567,3.97651z" fill="#442a21" stroke="none" stroke-width="0" stroke-linecap="butt"/><path d="M408.24563,176.33317c0,0 0.41919,0.54706 -0.91375,0.30038c-0.77108,-0.1427 0.86441,-3.06065 0.08604,-3.47109c-0.65985,-0.34795 -1.1866,2.12719 -1.76079,2.10979c-0.85647,-0.02595 1.06248,3.23936 -0.28314,3.40531c-0.60113,0.07414 -0.88371,-2.50808 -2.04118,-3.07999c-0.85133,-0.42065 -1.72406,0.92301 -2.56302,1.12905c-0.73922,0.18154 -1.50194,-0.79344 -1.50194,-0.79344c0,0 1.22589,-1.09066 2.78991,-2.26507c0.85717,-0.64364 2.23569,-1.03258 2.59187,-1.93276c1.09713,-2.77277 -0.05848,-7.7475 -0.1149,-9.64684c-0.04257,-1.43323 -2.14875,-5.15983 -2.33087,-7.42258c-0.12686,-1.57617 -0.79222,-3.41577 -0.81403,-5.22844c-0.02192,-1.8225 1.26479,-6.71464 1.20484,-8.46116c-0.22503,-6.55542 -1.41572,-5.86536 -1.41572,-5.86536c0,0 0.0756,-1.60031 0.5483,-2.1668c0.46031,-0.55164 2.25169,-1.18876 2.25169,-1.18876c0,0 1.60283,1.70956 1.2596,6.35003c-0.23472,3.17344 -0.09762,8.68331 -0.24259,12.3288c-0.06647,1.67131 2.47189,9.48526 2.47189,10.69894c0,1.7028 0.23265,5.68189 1.92097,8.07862c1.08121,1.53486 3.08711,1.6998 4.93601,2.56784c0.23498,0.11032 0.14522,1.27924 -1.13283,1.38922c-0.81058,0.06975 -3.02899,-0.95061 -2.97071,-0.81218c1.16005,2.75544 -1.97567,3.97651 -1.97567,3.97651z" fill="#442a21" stroke="none" stroke-width="0" stroke-linecap="butt"/><path d="M46.24563,187.33317c0,0 0.41919,0.54706 -0.91375,0.30038c-0.77108,-0.1427 0.86441,-3.06065 0.08604,-3.47109c-0.65985,-0.34795 -1.1866,2.12719 -1.76079,2.10979c-0.85647,-0.02595 1.06248,3.23936 -0.28314,3.40531c-0.60113,0.07414 -0.88371,-2.50808 -2.04118,-3.07999c-0.85133,-0.42065 -1.72406,0.92301 -2.56302,1.12905c-0.73922,0.18154 -1.50194,-0.79344 -1.50194,-0.79344c0,0 1.22589,-1.09066 2.78991,-2.26507c0.85717,-0.64364 2.23569,-1.03258 2.59187,-1.93276c1.09713,-2.77277 -0.05848,-7.7475 -0.1149,-9.64684c-0.04257,-1.43323 -2.14875,-5.15983 -2.33087,-7.42258c-0.12686,-1.57617 -0.79222,-3.41577 -0.81403,-5.22844c-0.02192,-1.8225 1.26479,-6.71464 1.20484,-8.46116c-0.22503,-6.55542 -1.41572,-5.86536 -1.41572,-5.86536c0,0 0.0756,-1.60031 0.5483,-2.1668c0.46031,-0.55164 2.25169,-1.18876 2.25169,-1.18876c0,0 1.60283,1.70956 1.2596,6.35003c-0.23472,3.17344 -0.09762,8.68331 -0.24259,12.3288c-0.06647,1.67131 2.47189,9.48526 2.47189,10.69894c0,1.7028 0.23265,5.68189 1.92097,8.07862c1.08121,1.53486 3.08711,1.6998 4.93601,2.56784c0.23498,0.11032 0.14522,1.27924 -1.13283,1.38922c-0.81058,0.06975 -3.02899,-0.95061 -2.97071,-0.81218c1.16005,2.75544 -1.97567,3.97651 -1.97567,3.97651z" fill="#442a21" stroke="none" stroke-width="0" stroke-linecap="butt"/><path d="M131.24269,185.36524c1.32849,-3.15555 -0.24656,-8.07423 -0.24656,-11.22349c0,-1.21368 0.30603,-7.6438 0.23956,-9.31511c-0.14498,-3.6455 -1.87656,-7.96343 -2.11128,-11.13688c-0.10796,-1.45957 0.10552,-2.7621 0.4489,-3.86197c0.10209,-0.32701 -9.87524,-1.6361 -9.75521,-1.92609c0.20083,-0.48519 0.45496,-2.41471 1.6255,-2.5378c1.17054,-0.12309 9.5718,1.49131 9.67257,1.34978c0.33232,-0.46677 0.57086,-0.71739 0.57086,-0.71739c0,0 -1.69488,-0.82867 -1.61864,-1.60763c0.03672,-0.37525 2.48895,0.98855 3.00591,0.69405c0.54988,-0.31326 -0.82699,-2.27575 -0.55277,-2.36412c0.78247,-0.25215 1.14131,1.51638 2.16987,1.98348c0.99367,0.45125 2.66696,-0.40308 2.89387,-0.3721c0.46604,0.06364 -2.96759,1.36012 -3.52729,2.01385c-0.30762,0.35931 2.15633,0.27065 2.15633,0.27065c0,0 3.80778,-0.65093 3.27853,0.7239c-0.15038,0.39065 -3.0482,0.98975 -3.90685,1.73166c-1.5218,1.31488 -1.30986,3.07833 -1.37325,4.92495c-0.01968,0.57343 10.43079,-2.66972 10.67768,-1.60297c0.10017,0.43282 1.08196,1.80621 -0.712,2.82703c-1.76401,1.00377 -6.29614,1.65159 -7.14253,2.48739c-2.63282,2.59986 -1.12453,4.24953 -1.13346,4.99214c-0.05311,4.41496 0.30107,10.28006 0.22885,12.71164c-0.05642,1.89934 -0.41404,6.56094 0.68309,9.33371c0.35618,0.90018 1.7347,1.28912 2.59187,1.93276c1.56402,1.17441 0.39942,1.5801 -1.0334,1.4034c-0.48209,-0.05945 -0.81971,2.51004 -1.32724,2.33321c-0.9091,-0.31673 -0.6891,-2.14912 -1.23872,-2.13247c-0.11918,0.00361 -0.8392,-1.56424 -1.04694,-1.59888c-0.79314,-0.13228 -1.5243,1.10225 -2.04719,1.37798c-0.5306,0.27979 -1.32564,0.27467 -1.50139,0.75127c-0.04073,0.11044 -0.21825,1.02041 -0.96634,1.4568c-0.75946,0.44302 -2.09025,0.41186 -2.2139,0.43475c-1.33294,0.24669 0.96503,-1.36098 0.96503,-1.36098c0,0 -2.25598,-0.54093 -1.5086,-1.92122c0.2916,-0.53855 3.42957,-1.28194 3.75516,-2.05529z" data-paper-data="{&quot;index&quot;:null}" fill="#442a21" stroke="none" stroke-width="0" stroke-linecap="butt"/><path d="M275.24269,158.36524c1.32849,-3.15555 -0.24656,-8.07423 -0.24656,-11.22349c0,-1.21368 0.30603,-7.6438 0.23956,-9.31511c-0.14498,-3.6455 -1.87656,-7.96343 -2.11128,-11.13688c-0.10796,-1.45957 0.10552,-2.7621 0.4489,-3.86197c0.10209,-0.32701 -9.87524,-1.6361 -9.75521,-1.92609c0.20083,-0.48519 0.45496,-2.41471 1.6255,-2.5378c1.17054,-0.12309 9.5718,1.49131 9.67257,1.34978c0.33232,-0.46677 0.57086,-0.71739 0.57086,-0.71739c0,0 -1.69488,-0.82867 -1.61864,-1.60763c0.03672,-0.37525 2.48895,0.98855 3.00591,0.69405c0.54988,-0.31326 -0.82699,-2.27575 -0.55277,-2.36412c0.78247,-0.25215 1.14131,1.51638 2.16987,1.98348c0.99367,0.45125 2.66696,-0.40308 2.89387,-0.3721c0.46604,0.06364 -2.96759,1.36012 -3.52729,2.01385c-0.30762,0.35931 2.15633,0.27065 2.15633,0.27065c0,0 3.80778,-0.65093 3.27853,0.7239c-0.15038,0.39065 -3.0482,0.98975 -3.90685,1.73166c-1.5218,1.31488 -1.30986,3.07833 -1.37325,4.92495c-0.01968,0.57343 10.43079,-2.66972 10.67768,-1.60297c0.10017,0.43282 1.08196,1.80621 -0.712,2.82703c-1.76401,1.00377 -6.29614,1.65159 -7.14253,2.48739c-2.63282,2.59986 -1.12453,4.24953 -1.13346,4.99214c-0.05311,4.41496 0.30107,10.28006 0.22885,12.71164c-0.05642,1.89934 -0.41404,6.56094 0.68309,9.33371c0.35618,0.90018 1.7347,1.28912 2.59187,1.93276c1.56402,1.17441 0.39942,1.5801 -1.0334,1.4034c-0.48209,-0.05945 -0.81971,2.51004 -1.32724,2.33321c-0.9091,-0.31673 -0.6891,-2.14912 -1.23872,-2.13247c-0.11918,0.00361 -0.8392,-1.56424 -1.04694,-1.59888c-0.79314,-0.13228 -1.5243,1.10225 -2.04719,1.37798c-0.5306,0.27979 -1.32564,0.27467 -1.50139,0.75127c-0.04073,0.11044 -0.21825,1.02041 -0.96634,1.4568c-0.75946,0.44302 -2.09025,0.41186 -2.2139,0.43475c-1.33294,0.24669 0.96503,-1.36098 0.96503,-1.36098c0,0 -2.25598,-0.54093 -1.5086,-1.92122c0.2916,-0.53855 3.42957,-1.28194 3.75516,-2.05529z" data-paper-data="{&quot;index&quot;:null}" fill="#442a21" stroke="none" stroke-width="0" stroke-linecap="butt"/></g></g></svg>