<svg version="1.1" xmlns="http://www.w3.org/2000/svg" xmlns:xlink="http://www.w3.org/1999/xlink" width="30.08906" height="30.09938" viewBox="0,0,30.08906,30.09938"><g transform="translate(-224.95906,-165.10536)"><g data-paper-data="{&quot;isPaintingLayer&quot;:true}" fill-rule="nonzero" stroke="none" stroke-width="0" stroke-linecap="butt" stroke-linejoin="miter" stroke-miterlimit="10" stroke-dasharray="" stroke-dashoffset="0" style="mix-blend-mode: normal"><path d="M224.99137,195.16058v-30h30.00001v30z" fill="#623e00"/><path d="M225.12433,191.21324c0.45721,-1.13473 5.09322,-2.67807 4.89274,-3.55056c-0.12692,-0.55235 -0.67328,-1.62553 -0.08759,-2.24958c0.14513,-0.15463 0.89303,0.38617 1.53961,0.26345c0.48158,-0.0914 0.87912,-0.80134 1.07834,-1.10147c1.03908,-1.5654 2.90742,-2.67534 3.75137,-1.78698c0.40568,0.42703 -1.64445,4.49047 -1.05846,5.11181c0.69853,0.74065 2.79775,0.68857 2.4815,1.46077c-0.08362,0.20417 4.09546,5.52814 2.77449,5.77861c-0.95294,0.18069 -1.89779,-0.0711 -2.86975,-0.06134c-1.10388,0.01108 -3.53856,-3.71005 -3.89028,-3.3353c-0.75042,0.79956 -5.52986,1.83633 -6.12882,1.54619c-0.28661,-0.13883 -2.53142,0.78339 -2.57145,0.25956c-0.03618,-0.47352 0.13837,-0.96617 0.11084,-1.24848c-0.03719,-0.38142 -0.24906,-0.52451 -0.02254,-1.08669z" fill="#825200"/><path d="M246.10417,186.31628c-0.71965,-0.88481 -2.98999,-0.02889 -3.43044,-1.26733c-0.33968,-0.95511 2.24767,-1.92578 2.67822,-3.39597c0.46776,-1.59728 -2.42441,-3.02732 -1.66445,-3.9617c0.86865,-1.06802 3.77239,-0.52747 4.9851,-0.87447c2.09105,-0.59833 2.52408,-2.61903 3.80657,-1.0422c0.473,0.58156 2.10907,4.31152 2.39284,5.12604c0.15244,0.43757 0.23747,1.16519 0.09704,1.65174c-0.11514,0.39893 0.39822,1.35082 -0.27872,1.39325c-1.07433,0.06734 -3.60635,-0.8904 -3.50963,-0.39013c0.22237,1.15019 0.27245,4.24904 -0.6182,5.3441c-0.69498,0.85448 -0.457,-1.44764 -0.85908,-2.40151c-0.34433,-0.81689 -1.3136,-0.24507 -1.99634,-0.3394c-1.24333,-0.17177 -0.74567,1.21157 -1.60291,0.15758z" fill="#4e3200"/><path d="M224.97059,183.48785c-0.05271,-1.54738 0.0874,-1.44849 0.17647,-2.76471c0.03636,-0.53732 0.23351,0.42931 1.08136,0.5635c0.52551,0.08317 2.58183,-1.37115 2.91864,-1.09291c0.3515,0.29037 1.27933,1.70156 1.50594,2.2556c0.24625,0.60204 -1.12213,0.88088 -1.56225,1.26874c-0.1691,0.14902 -1.15539,0.30678 -1.29663,0.47566c-0.84716,1.01291 -2.78483,0.43002 -2.82353,-0.70588z" fill="#4e3200"/><path d="M253.14706,193.6055c-0.04903,-0.0696 -1.46303,0.10263 -1.8984,-0.33653c-0.69921,-0.70529 -0.54644,-2.15141 -0.72346,-2.4278c-0.63411,-0.9901 0.56782,-0.5992 0.9748,-1.17685c0.33017,-0.46863 1.23174,0.98294 2.04291,1.42979c0.64162,0.35345 1.41113,-0.42543 1.42768,-0.07685c0.02731,0.57532 0.01793,2.23554 0,2.58824c-0.05974,1.17512 -1.41365,0.58177 -1.82353,0z" fill="#825200"/><path d="M239.44413,166.94604c-0.0696,0.04903 0.10263,1.46303 -0.33653,1.8984c-0.70529,0.69921 -2.15141,0.54644 -2.4278,0.72346c-0.9901,0.63411 -0.5992,-0.56782 -1.17685,-0.9748c-0.46863,-0.33017 0.98294,-1.23174 1.42979,-2.04291c0.35345,-0.64162 -0.42543,-1.41113 -0.07685,-1.42768c0.57532,-0.02731 2.23554,-0.01793 2.58824,0c1.17512,0.05974 0.58177,1.41365 0,1.82353z" fill="#825200"/></g></g></svg>