<svg version="1.1" xmlns="http://www.w3.org/2000/svg" xmlns:xlink="http://www.w3.org/1999/xlink" width="30.06146" height="30.61704" viewBox="0,0,30.06146,30.61704"><g transform="translate(-224.96927,-164.69148)"><g data-paper-data="{&quot;isPaintingLayer&quot;:true}" fill-rule="nonzero" stroke="none" stroke-linecap="butt" stroke-linejoin="miter" stroke-miterlimit="10" stroke-dasharray="" stroke-dashoffset="0" style="mix-blend-mode: normal"><path d="M225.03072,195.1875v-30.375h30.00001v30.375z" fill="#757575" stroke-width="0"/><path d="M231.65045,195.16507l-5.22129,-9.27775l2.11019,-0.84725l-3.57008,4.37489l0.14002,-11.65164c0,0 6.28864,2.59325 8.19216,3.3782c0.40655,0.16765 6.33602,-2.86726 6.61838,-2.31856c0.22334,0.43399 1.92305,1.91615 1.92305,1.91615c0,0 -6.93623,3.76513 -7.02668,4.05809c-0.42639,1.38105 -1.49908,4.85538 -1.49908,4.85538l3.44444,0.9l1.66667,4.61249z" fill="#525252" stroke-width="0"/><path d="M248.74705,164.82582l4.77685,10.40275l-2.11019,0.84725l3.57008,3.27511l-0.14002,8.16413l-2.91248,-5.58693c0,0 -3.64722,-1.39713 -5.04967,-1.93436c-0.20807,-0.0797 -6.69742,1.12449 -6.69742,1.12449c0,0 -2.21548,-0.2017 -2.36799,-1.03841c-0.04442,-0.24369 0.96851,-3.20507 0.96851,-3.20507c0,0 6.43078,-0.81084 6.48016,-0.97075c0.41619,-1.34799 1.37105,-4.44071 1.37105,-4.44071l-3.44444,-0.9l-1.66667,-5.73749z" data-paper-data="{&quot;index&quot;:null}" fill="#525252" stroke-width="0"/><path d="M242.20602,195.16507l2.44445,-2.47501l-3.29314,-6.72941l-2.93777,-3.21535c0,0 1.02566,-1.24384 1.09739,-1.22364c0.07235,0.02037 3.2641,2.35555 3.2641,2.35555l2.86886,0.70762l3.18965,-4.53079l3.47673,1.61091l-4.45428,3.12425l-0.62481,8.62936l2.41328,1.7465z" fill="#525252" stroke-width="0"/><path d="M254.90757,178.84713v3.55735l-4.30701,0.64094l-4.10476,2.85611l2.94118,-7.05441z" data-paper-data="{&quot;index&quot;:null}" fill="#f3e0c0" stroke-width="0"/><path d="M236.70923,185.6148l-11.66054,-3.44083l0.03231,-3.2233l3.48312,-0.41713l1.90568,1.50446l2.19413,-1.71807l0.87653,0.20677l3.56213,-7.67574l3.82628,-1.15714l1.57963,2.5609l2.60863,0.00958l-1.08741,5.12846l-4.99308,3.57226l0.52945,3.10477l0.01579,-0.01054l3.06913,0.11341l0.45728,2.39892l8.40509,3.32706l-5.90674,2.38439l-0.10206,0.04184l-6.9832,-4.87044l-0.07389,0.00183l-0.91038,-0.31545l-0.58379,-1.0856l-0.24408,-0.44041z" data-paper-data="{&quot;index&quot;:null}" fill="#c7b492" stroke-width="0.5"/><path d="M245.97472,183.16067l-1.37463,-2.25489l-2.478,-1.22815l6.9803,-2.3948l0.9977,-0.38939l1.5,1.5375l-0.07594,0.48434l-5.54942,4.24539z" data-paper-data="{&quot;index&quot;:null}" fill="#b4a384" stroke-width="0.5"/><path d="M231.7819,193.00225l-0.93475,2.26229l-2.68509,0.04398l1.40949,-7.51088l-1.35592,-1.33885l-0.75579,-3.49691l5.40727,0.57076l0.19288,0.81535l1.01848,-0.42694l1.02159,-0.4117l0.10581,0.00377l1.39369,1.49324l0.00051,0.04049l-0.18214,0.73495l-4.63604,7.22046z" data-paper-data="{&quot;index&quot;:null}" fill="#e0cfb2" stroke-width="0.5"/><path d="M228.01921,164.69148l2.68509,0.04398l0.93475,2.26229l0.01434,6.73757l-6.4443,0.4176l-0.10146,-5.38595z" data-paper-data="{&quot;index&quot;:null}" fill="#f3e0c0" stroke-width="0.5"/><path d="M254.9513,168.62054l-0.10146,5.38595l-3.81777,2.04651l-2.0551,2.07517l-4.25426,-2.08286l3.30069,-2.35345l1.25363,-4.20483l5.67428,-0.8665z" data-paper-data="{&quot;index&quot;:null}" fill="#c7b492" stroke-width="0.5"/></g></g></svg>