<svg version="1.1" xmlns="http://www.w3.org/2000/svg" xmlns:xlink="http://www.w3.org/1999/xlink" width="143.16667" height="124.61179" viewBox="0,0,143.16667,124.61179"><g transform="translate(-168.41666,-117.6941)"><g data-paper-data="{&quot;isPaintingLayer&quot;:true}" fill-rule="nonzero" stroke-linecap="butt" stroke-linejoin="miter" stroke-miterlimit="10" stroke-dasharray="" stroke-dashoffset="0" style="mix-blend-mode: normal"><g><path d="M176.13543,233.8059l0.25,-47.25l126.75,0.5l2.25,45.75z" fill="#484848" stroke="none" stroke-width="0"/><path d="M290.04168,230.27465v-42.5h3.25v42.5z" fill="#8b8b8b" stroke="none" stroke-width="0"/><path d="M291.79168,230.27465c0,0 1.5,-1.66692 1.5,-3.43168c0,-5.95448 0,-39.06832 0,-39.06832h3.25c0,0 0,32.70358 0,38.80435c0,1.88274 3,3.69565 3,3.69565z" fill="#5b5b5b" stroke="none" stroke-width="0"/><path d="M284.04168,230.27465c0,0 2.75,-1.81291 2.75,-3.69565c0,-6.10077 0,-38.80435 0,-38.80435h3.25c0,0 0,32.90732 0,38.93634c0,1.82397 1.75,3.56366 1.75,3.56366z" fill="#5b5b5b" stroke="none" stroke-width="0"/><path d="M257.29168,230.02465v-42.5h3.25v42.5z" fill="#8b8b8b" stroke="none" stroke-width="0"/><path d="M259.04168,230.02465c0,0 1.5,-1.66692 1.5,-3.43168c0,-5.95448 0,-39.06832 0,-39.06832h3.25c0,0 0,32.70357 0,38.80435c0,1.88274 3,3.69565 3,3.69565z" fill="#5b5b5b" stroke="none" stroke-width="0"/><path d="M251.29168,230.02465c0,0 2.75,-1.81291 2.75,-3.69565c0,-6.10078 0,-38.80435 0,-38.80435h3.25c0,0 0,32.90732 0,38.93634c0,1.82397 1.75,3.56366 1.75,3.56366z" fill="#5b5b5b" stroke="none" stroke-width="0"/><path d="M176.00001,192.17876c0,0 -2.45804,-7.64808 -0.6169,-13.10012c0.87214,-2.58261 2.92036,-4.30498 3.13331,-5.73753c0.3547,-2.38619 -2.51641,-6.49568 -2.51641,-6.49568c0,0 11.5251,-2 23.66667,-2c9.18869,0 28.72148,-4.30653 47.02873,-3.86924c28.2922,0.6758 55.97127,6.20257 55.97127,6.20257c0,0 4.33333,0.34249 4.33333,2.66667c0,2.2737 -3.16411,4.67768 -4.2856,9.67737c-0.49188,2.19282 1.13654,5.6528 1.23331,7.99146c0.10828,2.61689 -1.28104,3.99784 -1.28104,3.99784c0,0 -10.41946,-2.59697 -31.32978,-3.13735c-5.43844,-0.14054 -18.42381,2.6551 -24.03265,2.36323c-5.83718,-0.30375 -12.26348,-3.8818 -17.64295,-4.02811c-14.97225,-0.40722 -21.94748,1.96864 -29.32336,2.00746c-10.90637,0.0574 -24.33792,3.46143 -24.33792,3.46143z" fill="#623e00" stroke="none" stroke-width="0"/><path d="M168.41668,166.17876l13,-7.66667c0,0 15.80653,1.86262 30.97641,1.31171c7.86637,-0.28568 15.24362,-2.70623 29.61052,-3.5863c7.3981,-0.45318 21.45052,3.16903 29.33959,2.85771c22.97968,-0.90684 37.90681,5.08355 37.90681,5.08355l2.33333,7c0,0 -15.18064,-3.80103 -19.59654,-3.95525c-2.31712,-0.08092 -18.78308,-1.15845 -23.64051,-1.23209c-3.24568,-0.04921 -14.83782,-3.75341 -18.67503,-3.7811c-3.8801,-0.028 -16.91041,4.00006 -21.00862,4.07197c-6.10707,0.10717 -27.04691,1.83705 -32.66659,1.86906c-24.27707,0.13828 -27.57938,-1.97259 -27.57938,-1.97259z" fill="#7d7272" stroke="none" stroke-width="0"/><path d="M250.1234,161.30538c0,0 -1.24748,0.88039 -2.58042,0.63371c-0.77108,-0.1427 -0.35781,-1.50509 -1.13618,-1.91553c-0.65985,-0.34795 -2.51994,0.2383 -3.09413,0.2209c-0.85647,-0.02595 -2.49308,0.90603 -3.83869,1.07198c-1.43283,0.17671 -2.55058,-0.41105 -2.55058,-0.41105c0,0 1.22589,-1.09066 2.78991,-2.26507c0.85717,-0.64364 2.23569,-1.03258 2.59187,-1.93276c1.09713,-2.77277 -1.16959,-6.52528 -1.22601,-8.42462c-0.07223,-2.43158 0.46377,-7.56941 0.41066,-11.98436c-0.02192,-1.8225 -1.06854,-6.04797 -1.12849,-7.79449c-0.22503,-6.55542 0.36206,-8.1987 0.36206,-8.1987l3.8,-1.8c0,0 0.26949,2.59845 -0.07374,7.23892c-0.23472,3.17344 1.12461,8.12775 0.97963,11.77324c-0.06647,1.67131 -0.30589,7.37415 -0.30589,8.58783c0,3.14926 1.42495,8.06794 2.75345,11.22349c1.16005,2.75544 2.24655,3.97651 2.24655,3.97651z" fill="#442a21" stroke="none" stroke-width="0"/><path d="M211.84268,160.36523c1.32849,-3.15555 -0.24656,-8.07423 -0.24656,-11.22349c0,-1.21368 0.30603,-7.6438 0.23956,-9.31511c-0.14498,-3.6455 -1.87656,-7.96343 -2.11128,-11.13688c-0.10796,-1.45957 0.10552,-2.7621 0.4489,-3.86197c0.10209,-0.32701 -9.87524,-1.6361 -9.75521,-1.92609c0.20083,-0.48519 0.45496,-2.41471 1.6255,-2.5378c1.17054,-0.12309 9.5718,1.49131 9.67257,1.34978c0.33232,-0.46677 0.57086,-0.71739 0.57086,-0.71739c0,0 -1.69488,-0.82867 -1.61864,-1.60763c0.03672,-0.37525 2.48895,0.98855 3.00591,0.69405c0.54988,-0.31326 -0.82699,-2.27575 -0.55277,-2.36412c0.78247,-0.25215 1.14131,1.51638 2.16987,1.98348c0.99367,0.45125 2.66696,-0.40308 2.89387,-0.3721c0.46604,0.06364 -2.96759,1.36012 -3.52729,2.01385c-0.30762,0.35931 2.15633,0.27065 2.15633,0.27065c0,0 3.80778,-0.65093 3.27853,0.7239c-0.15038,0.39065 -3.0482,0.98975 -3.90685,1.73166c-1.5218,1.31488 -1.30986,3.07833 -1.37325,4.92495c-0.01968,0.57343 10.43079,-2.66972 10.67768,-1.60297c0.10017,0.43282 1.08196,1.80621 -0.712,2.82703c-1.76401,1.00377 -6.29614,1.65159 -7.14253,2.48739c-2.63282,2.59986 -1.12453,4.24953 -1.13346,4.99214c-0.05311,4.41496 0.30107,10.28006 0.22885,12.71164c-0.05642,1.89934 -0.41404,6.56094 0.68309,9.33371c0.35618,0.90018 1.7347,1.28912 2.59187,1.93276c1.56402,1.17441 0.39942,1.5801 -1.0334,1.4034c-0.48209,-0.05945 -0.81971,2.51004 -1.32724,2.33321c-0.9091,-0.31673 -0.6891,-2.14912 -1.23872,-2.13247c-0.11918,0.00361 -0.8392,-1.56424 -1.04694,-1.59888c-0.79314,-0.13228 -1.5243,1.10225 -2.04719,1.37798c-0.5306,0.27979 -1.32564,0.27467 -1.50139,0.75127c-0.04073,0.11044 -0.21825,1.02041 -0.96634,1.4568c-0.75946,0.44302 -2.09025,0.41186 -2.2139,0.43475c-1.33294,0.24669 0.96503,-1.36098 0.96503,-1.36098c0,0 -2.25598,-0.54093 -1.5086,-1.92122c0.2916,-0.53855 3.42957,-1.28194 3.75516,-2.05529z" data-paper-data="{&quot;index&quot;:null}" fill="#442a21" stroke="none" stroke-width="0"/><path d="M264.12501,159.96568v-6.25h6.83333v6.25z" fill="#9b9b9b" stroke="#696969" stroke-width="1"/><path d="M271.79168,159.96568v-6.25h6.83333v6.25z" fill="#9b9b9b" stroke="#696969" stroke-width="1"/><path d="M279.54168,159.96568v-6.25h6.83333v6.25z" fill="#9b9b9b" stroke="#696969" stroke-width="1"/><path d="M287.20835,159.96568v-6.25h6.83333v6.25z" fill="#9b9b9b" stroke="#696969" stroke-width="1"/><path d="M302.54168,159.96568v-6.25h6.83333v6.25z" fill="#9b9b9b" stroke="#696969" stroke-width="1"/><path d="M256.37501,159.96568v-6.25h6.83333v6.25z" fill="#9b9b9b" stroke="#696969" stroke-width="1"/><path d="M295.28275,165.4593c0,0 -0.08333,-1.14513 -0.08333,-2.16667c0,-0.76317 0.08333,-3.41667 0.08333,-3.41667h6c0,0 -0.39375,2.42457 -0.3392,3.58361c0.0565,1.2006 0.67254,3.49972 0.67254,3.49972z" fill="#442a21" stroke="none" stroke-width="0"/><path d="M294.87501,159.96568v-6.25h6.83333v6.25z" fill="#9b9b9b" stroke="#696969" stroke-width="1"/><path d="M264.42859,153.3343c0,0 -0.39036,-1.45561 -0.1641,-3.57103c0.21068,-1.96969 1.0391,-4.54468 1.0391,-6.17897c0,-2.91306 -0.875,-9.375 -0.875,-9.375c0,0 1.56116,4.54228 2.64367,5.73303c0.99312,1.09243 3.60633,3.64197 3.60633,3.64197v9.75z" fill="#442a21" stroke="none" stroke-width="0"/><path d="M272.05359,153.33429c0,0 1.375,-2.54834 1.375,-4.5c0,-2.11805 -1.375,-7.75 -1.375,-7.75c0,0 0.76396,-3.75 1.875,-3.75c0.44427,0 2.11723,0.33782 3.10344,1.88871c1.11257,1.7496 1.27156,1.86129 1.27156,1.86129v12.25z" fill="#442a21" stroke="none" stroke-width="0"/><path d="M295.17859,153.45929c0,0 0.28918,-1.41787 1.224,-4.13782c0.62711,-1.82462 2.026,-4.71643 2.026,-6.36218c0,-1.02583 -2.41087,-4.40594 -3.04742,-6.57439c-0.93109,-3.1718 -0.20258,-5.17562 -0.20258,-5.17562l6.125,-0.125l0.125,22.375z" fill="#442a21" stroke="none" stroke-width="0"/><path d="M279.80359,153.45929c0,0 0.28918,-1.41787 1.224,-4.13782c0.6271,-1.82462 0.026,-3.46643 0.026,-5.11218c0,-1.02583 -0.41087,-5.65594 -1.04742,-7.82438c-0.19052,-0.64903 0.81344,-1.24915 0.74144,-1.7932c-0.27989,-2.11475 -0.94402,-3.38241 -0.94402,-3.38241l5.875,0.25c0,0 -1.51907,2.46483 -1.46095,5.87434c0.02986,1.75172 1.40955,5.35139 1.81593,8.62815c0.49056,3.95545 0.02002,7.49752 0.02002,7.49752z" fill="#442a21" stroke="none" stroke-width="0"/><path d="M280.17859,130.9593v-3.625h6.625v3.625z" fill="#971c1c" stroke="#730000" stroke-width="1"/><path d="M287.67859,130.95929v-3.625h6.625v3.625z" fill="#971c1c" stroke="#730000" stroke-width="1"/><path d="M295.17859,130.95929v-3.625h6.625v3.625z" fill="#971c1c" stroke="#730000" stroke-width="1"/><path d="M302.55359,130.95929v-3.625h6.625v3.625z" fill="#971c1c" stroke="#730000" stroke-width="1"/><path d="M265.17859,130.95929v-3.625h6.625v3.625z" fill="#971c1c" stroke="#730000" stroke-width="1"/><path d="M272.67859,130.95929v-3.625h6.625v3.625z" fill="#971c1c" stroke="#730000" stroke-width="1"/><path d="M280.17859,126.33429v-3.625h6.625v3.625z" fill="#971c1c" stroke="#730000" stroke-width="1"/><path d="M287.67859,126.33429v-3.625h6.625v3.625z" fill="#971c1c" stroke="#730000" stroke-width="1"/><path d="M295.17859,126.33429v-3.625h6.625v3.625z" fill="#971c1c" stroke="#730000" stroke-width="1"/><path d="M272.67859,126.33429v-3.625h6.625v3.625z" fill="#971c1c" stroke="#730000" stroke-width="1"/><path d="M280.17859,121.83429v-3.625h6.625v3.625z" fill="#971c1c" stroke="#730000" stroke-width="1"/><path d="M287.67859,121.83429v-3.625h6.625v3.625z" fill="#971c1c" stroke="#730000" stroke-width="1"/><path d="M185.29168,230.02465v-40.25h3.25v40.25z" fill="#8b8b8b" stroke="none" stroke-width="0"/><path d="M187.04168,230.02465c0,0 1.5,-1.57867 1.5,-3.25c0,-5.63924 0,-37 0,-37h3.25c0,0 0,30.9722 0,36.75c0,1.78307 3,3.5 3,3.5z" fill="#5b5b5b" stroke="none" stroke-width="0"/><path d="M179.29168,230.02465c0,0 2.75,-1.71693 2.75,-3.5c0,-5.7778 0,-36.75 0,-36.75h3.25c0,0 0,31.16517 0,36.875c0,1.72741 1.75,3.375 1.75,3.375z" fill="#5b5b5b" stroke="none" stroke-width="0"/><path d="M176.06668,192.84543c0,0 -1.4,-5.80374 -1.4,-7.73333c0,-1.53479 -0.2,-5.33333 -0.2,-5.33333c0,0 10.23011,3.1536 19.01629,3.29088c2.57906,0.0403 12.13167,-3.34809 16.38421,-3.35882c2.94445,-0.00743 12.96985,2.80539 16.3958,2.83464c3.68347,0.03145 18.51136,-1.75408 22.40354,-1.75316c4.50877,0.00107 18.8624,1.02347 23.00791,1.06086c5.82327,0.05252 10.63904,-4.92505 14.99204,-6.72116c2.49025,-1.02752 4.94825,-0.93035 5.87744,0.27476c0.97812,1.26857 0.39188,3.69998 1.69512,4.67497c3.07836,2.30301 8.22766,1.69703 8.22766,1.69703c0,0 1.53666,4.15218 1.68055,5.9268c0.11732,1.44689 -0.88055,3.93986 -0.88055,3.93986c0,0 -8.96557,-2.26174 -21.60009,-2.284c-9.04067,-0.01593 -19.95991,2.28596 -30.81714,1.99619c-5.7851,-0.1544 -9.46125,-2.45454 -15.18321,-2.4687c-4.8988,-0.01212 -17.1004,2.77093 -21.19353,2.74795c-4.3474,-0.02441 -12.03932,-1.42697 -14.79921,-1.40094c-10.1408,0.09567 -23.60683,2.6095 -23.60683,2.6095z" fill="#9a9a9a" stroke="none" stroke-width="0"/><path d="M177.38543,241.5559c0,0 -1.58561,-3.52347 -1.62771,-5.5026c-0.0412,-1.93661 1.37771,-6.2474 1.37771,-6.2474c0,0 9.46796,0.01864 18.00091,0.03543c1.5072,0.00297 12.85963,2.25661 14.99998,2.26083c6.20087,0.01221 22.09144,-2.08377 30.99131,-2.24006c5.22178,-0.0917 17.18942,-0.66115 23.58197,-0.27075c4.84238,0.29573 4.24822,1.56842 7.92603,1.5736c4.75626,0.00671 7.27363,-1.30168 11.01756,-1.39478c1.74282,-0.04334 14.40853,0.18174 15.98317,0.17082c9.35736,-0.06488 4.49906,0.11491 4.49906,0.11491c0,0 2.41267,2.83164 2.51399,4.28391c0.13747,1.97047 -4.01399,7.96609 -4.01399,7.96609z" fill="#403232" stroke="none" stroke-width="0"/><path d="M209.88543,234.3059c-14.82986,-0.68577 -13,-4 -13,-4h43.25l-5.25,3c0,0 -3.85471,3.47182 -11.02018,3.77866c-3.78489,0.16208 -8.85401,-2.54163 -13.97982,-2.77866z" fill="#ff4a00" stroke="none" stroke-width="0"/><path d="M212.36757,221.25233c0,0 -3.61164,-0.97035 -5.03053,-3.35631c-1.11576,-1.87622 -0.11233,-5.00945 -0.11233,-6.64369c0,-0.80381 1.82493,-0.97875 1.97737,-2.21605c0.33747,-2.73918 -1.13162,-3.5215 0.30834,-5.78395c1.43996,-2.26246 2.77924,-1.72735 4.97821,-2.52222c1.45509,-0.52598 1.27232,-1.24213 1.86951,-1.22028c2.20259,0.08058 6.14956,-0.11451 7.64405,1.39768c1.09518,1.10815 0.07966,4.05911 0.07966,4.05911c0,0 2.86763,-0.03259 3.06219,2.52319c0.17133,2.25064 5.40671,5.16456 5.14874,6.55267c-0.32722,1.76075 -3.49665,5.20985 -3.49665,5.20985c0,0 1.9207,4.27153 -0.83864,3.38868c-2.51512,-0.80471 -6.64357,-2.76185 -8.32155,-2.93458c-1.90717,-0.19633 -7.26838,1.5459 -7.26838,1.5459z" fill="#000000" stroke="none" stroke-width="0"/><path d="M211.96955,211.9052c0,0 0.16017,-0.55628 0.04056,-1.2037c-0.1074,-0.5813 -0.49832,-1.23608 -0.4602,-1.62768c0.03591,-0.36891 0.88959,-1.99619 0.88959,-1.99619c0,0 -0.18798,-1.53799 0.42722,-1.53799c0.41013,0 1.02532,-1.9652 1.02532,-1.9652c0,0 1.61756,2.05909 1.49052,2.36545c-0.21222,0.51179 0.87675,1.04523 1.36115,1.38529c0.16787,0.11785 -0.75816,1.32114 -0.77507,1.46917c-0.05153,0.45088 0.2731,2.38457 0.2731,2.38457c0,0 -0.10114,1.49152 -0.65124,1.53526c-0.9405,0.07479 -1.9347,0.03535 -2.50072,-0.03296c-0.48481,-0.05851 -1.12023,-0.77603 -1.12023,-0.77603z" fill="#8f0000" stroke="none" stroke-width="0"/><path d="M212.49194,211.94579c0,0 0.14626,-0.5466 0.04843,-1.06552c-0.10598,-0.5622 -0.45526,-1.1135 -0.4149,-1.48825c0.06522,-0.60561 0.80145,-1.48538 0.80145,-1.48538c0,0 0.19805,-2.22377 0.63976,-1.94799c0.17276,0.10786 0.64135,-0.59114 0.67354,-0.25278c0.03145,0.33049 -0.37308,1.69976 -0.24526,1.69976c0.1922,0 0.54393,0.3903 0.74304,0.24345c0.29879,-0.22037 0.84155,-0.19685 0.84155,-0.19685c0,0 -0.43824,1.16245 -0.41567,1.64095c0.02328,0.49376 0.71211,0.08372 0.63745,0.67182c-0.07924,0.62418 -0.51306,1.13865 -0.51306,1.4351c0,0.43711 0.49713,0.74569 0.49713,0.74569c0,0 -0.22695,0.28154 -0.76434,0.42927c-0.47605,0.13087 -1.24923,0.12999 -1.53487,0.12999c-0.39988,0 -0.99425,-0.55927 -0.99425,-0.55927z" fill="#ce0000" stroke="none" stroke-width="0"/><path d="M212.98185,211.67947c-0.1977,-0.28383 0.41298,-0.31143 0.40577,-0.85147c-0.00701,-0.52553 -0.63869,-1.5627 -0.34363,-1.90936c0.20583,-0.24182 0.36877,-1.35685 0.59113,-1.01591c0.0657,0.10075 -0.10059,0.90076 -0.01769,1.38494c0.06568,0.38359 0.55411,0.30261 0.5952,0.36166c0.22651,0.32552 0.51878,0.05754 0.74885,0.38784c0.31585,0.45345 -0.09693,0.59623 -0.26159,0.98839c-0.08851,0.2108 0.24815,0.62621 0.01302,0.90247c-0.23369,0.27456 -0.40474,-0.16334 -0.62594,-0.14536c-0.41539,0.03377 -0.85059,0.26223 -1.10513,-0.1032z" fill="#ff0000" stroke="none" stroke-width="0"/><path d="M222.28406,212.49374c-0.56602,0.06831 -1.56021,0.10775 -2.50071,0.03296c-0.55009,-0.04375 -0.65124,-1.53526 -0.65124,-1.53526c0,0 0.32463,-1.93369 0.2731,-2.38457c-0.01692,-0.14802 -0.94294,-1.35132 -0.77507,-1.46917c0.4844,-0.34007 1.57337,-0.8735 1.36115,-1.38529c-0.12704,-0.30635 1.49053,-2.36545 1.49053,-2.36545c0,0 0.61519,1.9652 1.02532,1.9652c0.61519,0 0.42722,1.53798 0.42722,1.53798c0,0 0.85368,1.62728 0.88959,1.99618c0.03812,0.3916 -0.3528,1.04638 -0.46021,1.62768c-0.11962,0.64743 0.04055,1.2037 0.04055,1.2037c0,0 -0.63542,0.71752 -1.12023,0.77603z" data-paper-data="{&quot;index&quot;:null}" fill="#8f0000" stroke="none" stroke-width="0"/><path d="M221.88765,212.31756c-0.28564,0 -1.05882,0.00088 -1.53486,-0.12999c-0.5374,-0.14774 -0.76434,-0.42927 -0.76434,-0.42927c0,0 0.49712,-0.30858 0.49712,-0.74569c0,-0.29646 -0.43382,-0.81093 -0.51306,-1.43511c-0.07467,-0.5881 0.61417,-0.17806 0.63745,-0.67182c0.02256,-0.4785 -0.41567,-1.64094 -0.41567,-1.64094c0,0 0.54277,-0.02353 0.84155,0.19684c0.19911,0.14685 0.55084,-0.24345 0.74304,-0.24345c0.12783,0 -0.2767,-1.36927 -0.24525,-1.69976c0.0322,-0.33837 0.50078,0.36064 0.67354,0.25278c0.44171,-0.27578 0.63976,1.94799 0.63976,1.94799c0,0 0.73622,0.87976 0.80145,1.48538c0.04036,0.37475 -0.30892,0.92606 -0.4149,1.48826c-0.09782,0.51892 0.04844,1.06553 0.04844,1.06553c0,0 -0.59438,0.55926 -0.99426,0.55926z" data-paper-data="{&quot;index&quot;:null}" fill="#ce0000" stroke="none" stroke-width="0"/><path d="M221.28686,211.59518c-0.22119,-0.01799 -0.39225,0.41992 -0.62593,0.14536c-0.23513,-0.27625 0.10153,-0.69167 0.01302,-0.90247c-0.16466,-0.39216 -0.57744,-0.53493 -0.26158,-0.98838c0.23007,-0.3303 0.52234,-0.06232 0.74885,-0.38784c0.0411,-0.05906 0.52952,0.02192 0.5952,-0.36166c0.08291,-0.48418 -0.08339,-1.28419 -0.01769,-1.38494c0.22235,-0.34094 0.3853,0.77409 0.59113,1.01591c0.29505,0.34666 -0.33662,1.38382 -0.34363,1.90936c-0.0072,0.54004 0.60347,0.56764 0.40577,0.85147c-0.25455,0.36543 -0.68975,0.13698 -1.10513,0.10321z" data-paper-data="{&quot;index&quot;:null}" fill="#ff0000" stroke="none" stroke-width="0"/><path d="M186.91668,184.19131c0,-2.2865 0,-11.41304 0,-16.16666c0,-1.80233 1.43765,-2.83334 2.78632,-2.83334c8.22969,0 87.23447,0 102.78442,0c1.69591,0 3.09592,1.88071 3.09592,3.5c0,2.45127 0,9.65044 0,14.16666c0,2.24947 -1.22235,3.83334 -3.40551,3.83334c-17.20604,0 -94.09226,0 -102.62963,0c-1.51559,0 -2.63153,-1.49009 -2.63153,-2.5z" fill="#636363" stroke="none" stroke-width="0"/><text transform="translate(190.16667,182.20028) scale(0.45692,0.45692)" font-size="40" xml:space="preserve" fill="#000000" fill-rule="nonzero" stroke="none" stroke-width="1" stroke-linecap="butt" stroke-linejoin="miter" stroke-miterlimit="10" stroke-dasharray="" stroke-dashoffset="0" font-family="Sans Serif" font-weight="normal" text-anchor="start" style="mix-blend-mode: normal"><tspan x="0" dy="0">Small world</tspan></text></g></g></g></svg>