<svg version="1.1" xmlns="http://www.w3.org/2000/svg" xmlns:xlink="http://www.w3.org/1999/xlink" width="30.06145" height="30.375" viewBox="0,0,30.06145,30.375"><g transform="translate(-224.92994,-165.16059)"><g data-paper-data="{&quot;isPaintingLayer&quot;:true}" fill-rule="nonzero" stroke="none" stroke-width="0" stroke-linecap="butt" stroke-linejoin="miter" stroke-miterlimit="10" stroke-dasharray="" stroke-dashoffset="0" style="mix-blend-mode: normal"><path d="M224.99138,195.53559v-30.375h30.00001v30.375z" fill="#757575"/><path d="M231.61112,195.51316l-5.22129,-9.27775l2.11019,-0.84725l-3.57008,4.37489l0.14002,-11.65164c0,0 6.28864,2.59325 8.19216,3.3782c0.40655,0.16765 6.33602,-2.86726 6.61838,-2.31856c0.22334,0.43399 1.92305,1.91615 1.92305,1.91615c0,0 -6.93623,3.76513 -7.02668,4.05809c-0.42639,1.38105 -1.49908,4.85538 -1.49908,4.85538l3.44444,0.9l1.66667,4.61249z" fill="#525252"/><path d="M248.70771,165.17391l4.77685,10.40275l-2.11019,0.84725l3.57008,3.27511l-0.14002,8.16413l-2.91248,-5.58693c0,0 -3.64722,-1.39713 -5.04967,-1.93436c-0.20807,-0.0797 -6.69742,1.12449 -6.69742,1.12449c0,0 -2.21548,-0.2017 -2.36799,-1.03841c-0.04442,-0.24369 0.96851,-3.20507 0.96851,-3.20507c0,0 6.43078,-0.81084 6.48016,-0.97075c0.41619,-1.34799 1.37105,-4.44071 1.37105,-4.44071l-3.44444,-0.9l-1.66667,-5.73749z" data-paper-data="{&quot;index&quot;:null}" fill="#525252"/><path d="M242.16668,195.51316l2.44445,-2.47501l-3.29314,-6.72941l-2.93777,-3.21535c0,0 1.02566,-1.24384 1.09739,-1.22364c0.07235,0.02037 3.2641,2.35555 3.2641,2.35555l2.86886,0.70762l3.18965,-4.53079l3.47673,1.61091l-4.45428,3.12425l-0.62481,8.62936l2.41328,1.7465z" fill="#525252"/></g></g></svg>