<svg version="1.1" xmlns="http://www.w3.org/2000/svg" xmlns:xlink="http://www.w3.org/1999/xlink" width="40.98787" height="52.33719" viewBox="0,0,40.98787,52.33719"><g transform="translate(-219.50607,-153.83141)"><g data-paper-data="{&quot;isPaintingLayer&quot;:true}" fill-rule="nonzero" stroke="none" stroke-linecap="butt" stroke-linejoin="miter" stroke-miterlimit="10" stroke-dasharray="" stroke-dashoffset="0" style="mix-blend-mode: normal"><path d="M228.05999,203.44449c-9.95775,-8.44205 -12.76657,-34.17668 0,-44.68676c13.46398,-11.08423 32.43394,0 32.43394,0c0,0 -11.78288,-0.23912 -19.40835,5.91651c-4.45329,3.5949 -6.5388,13.40773 -6.5388,16.06649c0,1.31437 0.05223,11.88058 6.17845,16.94998c6.81101,5.63605 19.7687,1.06888 19.7687,1.06888c0,0 -22.77895,12.87026 -32.43394,4.6849z" fill="#b5b5b5" stroke-width="0"/><path d="M229.86187,168.63207c0,-0.99516 0.80673,-1.80188 1.80188,-1.80188c0.99516,0 1.80188,0.80673 1.80188,1.80188c0,0.99516 -0.80673,1.80188 -1.80188,1.80188c-0.99516,0 -1.80188,-0.80673 -1.80188,-1.80188z" fill="#909090" stroke-width="0.5"/><path d="M234.54678,201.49846c0,-0.99516 0.80673,-1.80188 1.80188,-1.80188c0.99516,0 1.80188,0.80673 1.80188,1.80188c0,0.99516 -0.80673,1.80188 -1.80188,1.80188c-0.99516,0 -1.80188,-0.80673 -1.80188,-1.80188z" fill="#909090" stroke-width="0.5"/><path d="M222.29395,169.35282c0,-0.99516 0.80673,-1.80188 1.80188,-1.80188c0.99516,0 1.80188,0.80673 1.80188,1.80188c0,0.99516 -0.80673,1.80188 -1.80188,1.80188c-0.99516,0 -1.80188,-0.80673 -1.80188,-1.80188z" fill="#909090" stroke-width="0.5"/><path d="M226.61848,189.60601c0,-1.79128 1.45212,-3.2434 3.2434,-3.2434c1.79128,0 3.2434,1.45212 3.2434,3.2434c0,1.79128 -1.45212,3.2434 -3.2434,3.2434c-1.79128,0 -3.2434,-1.45212 -3.2434,-3.2434z" fill="#acacac" stroke-width="0.5"/><path d="M240.67319,158.32528c0,-1.79128 1.45212,-3.2434 3.2434,-3.2434c1.79128,0 3.2434,1.45212 3.2434,3.2434c0,1.79128 -1.45212,3.2434 -3.2434,3.2434c-1.79128,0 -3.2434,-1.45212 -3.2434,-3.2434z" fill="#acacac" stroke-width="0.5"/></g></g></svg>