<svg version="1.1" xmlns="http://www.w3.org/2000/svg" xmlns:xlink="http://www.w3.org/1999/xlink" width="549" height="222.23228" viewBox="0,0,549,222.23228"><g transform="translate(34.5,-37.76772)"><g data-paper-data="{&quot;isPaintingLayer&quot;:true}" fill-rule="nonzero" stroke="none" stroke-linecap="butt" stroke-linejoin="miter" stroke-miterlimit="10" stroke-dasharray="" stroke-dashoffset="0" style="mix-blend-mode: normal"><path d="M-34.5,260v-160h549v160z" fill-opacity="0.70588" fill="#000000" stroke-width="0"/><text transform="translate(16.87022,128.08125) scale(0.5,0.5)" font-size="40" xml:space="preserve" fill="#ff0000" fill-rule="nonzero" stroke="none" stroke-width="1" stroke-linecap="butt" stroke-linejoin="miter" stroke-miterlimit="10" stroke-dasharray="" stroke-dashoffset="0" font-family="Sans Serif" font-weight="normal" text-anchor="start" style="mix-blend-mode: normal"><tspan x="0" dy="0">    Right click anywhere on this list, then click</tspan><tspan x="0" dy="46.15px">         export. This is your save file, it can be </tspan><tspan x="0" dy="46.15px"> "uploaded" to this game whenever you want,</tspan><tspan x="0" dy="46.15px"> and you can close this tab if you want, as long</tspan><tspan x="0" dy="46.15px">as you have the file, you can get back to where</tspan><tspan x="0" dy="46.15px">              you were when you exported it!</tspan></text><path d="M320.29796,82.64821c-2.23607,4.47213 -6.7082,2.23606 -6.7082,2.23606l-5.02019,-3.34498c-0.20542,-1.50231 -0.68184,-6.66176 -2.28528,-8.10213c-0.83256,-0.74789 -2.27979,-0.64741 -3.003,-1.5015c-1.79701,-2.12223 -2.48266,-3.43883 -2.75122,-4.8619c-0.03096,-0.01282 -0.06204,-0.02596 -0.09324,-0.03943c-0.86859,-0.30928 -1.84463,-0.88442 -2.47108,-1.95395c-0.67639,-1.03857 -0.75432,-2.16871 -0.64252,-3.08387c0.07083,-1.2645 0.47935,-2.18157 1.03465,-2.84669c0.55462,-1.16099 1.04988,-2.36566 1.92039,-3.29423c0.76542,-0.81647 2.21165,-0.71014 3.00301,-1.5015c0.79136,-0.79136 0.68503,-2.23758 1.5015,-3.00301c1.20259,-1.12741 2.82808,-1.7009 4.30247,-2.4381c0.5351,-0.26754 1.30134,-0.12202 1.70353,-0.5649c0.57914,-0.63773 0.46395,-1.70186 0.98082,-2.39102c1.00964,-1.34619 2.34912,-2.40999 3.52368,-3.61498l3.003,-3.00301c0,0 3.53553,-3.53554 7.07107,0c3.53553,3.53554 0,7.07107 0,7.07107l-3.003,3.003c-0.82744,0.797 -1.79302,1.47193 -2.48233,2.39102c-0.82843,1.10457 -1.02468,2.66032 -2.02217,3.61498c-0.93226,0.89223 -2.13802,1.42988 -3.32507,1.97498c1.50075,0 2.95141,0 4.29404,0c0,0 0.66057,-0.00001 1.5015,0.24009c0.84094,-0.2401 1.5015,-0.24009 1.5015,-0.24009h1.5015c4.49636,0.14485 7.31087,1.40927 11.24508,3.53086c1.4509,0.78242 3.13686,1.27249 4.30247,2.43811c1.16561,1.16561 1.65569,2.85157 2.43811,4.30247c2.1216,3.93421 3.38601,6.74872 3.53087,11.24508c0,1.04895 0.03223,6.62079 -0.13376,7.15477c-0.60244,1.93806 -1.52071,3.84091 -2.83222,5.38978c-0.72321,0.8541 -2.21164,0.71014 -3.003,1.5015c-0.79136,0.79136 -0.71014,2.21164 -1.5015,3.003c-0.79136,0.79136 -2.20253,0.71937 -3.00301,1.5015c-0.61617,0.60204 -0.44934,1.71305 -0.98082,2.39102c-1.20279,1.53431 -2.59353,2.94291 -4.13566,4.13566c-2.33731,1.80778 -7.96794,4.56203 -10.7838,5.31454c-0.96706,0.25844 -2.0295,-0.23303 -3.003,0c-2.73433,0.65453 -5.10455,2.4908 -7.85536,3.0722c-0.86622,0.18308 -1.79687,-0.28646 -2.65515,-0.06919c-1.08493,0.27464 -1.91199,1.25214 -3.00301,1.5015c-0.72625,0.16599 -5.96682,0.13375 -7.15477,0.13375c0,0 -5,0 -5,-5c0,-5 5,-5 5,-5c1.61969,0 3.29818,0.57277 4.85724,0.13376c1.07726,-0.30334 1.91656,-1.23293 3.00301,-1.5015c1.08454,-0.26811 2.25251,0.13518 3.35085,-0.06919c2.53562,-0.47181 4.66243,-2.28897 7.15966,-2.93381c0.96921,-0.25028 2.02645,0.21986 3.003,0c2.00685,-0.45182 5.53206,-2.49245 7.23422,-3.69447c1.83143,-1.2933 2.32149,-3.88576 3.89252,-5.48533c0.7842,-0.79846 2.21165,-0.71014 3.00301,-1.5015c0.79136,-0.79136 0.71014,-2.21165 1.5015,-3.00301c0.79136,-0.79136 2.07206,-0.88032 3.003,-1.5015c0.68507,-0.45712 0.05971,-1.6472 0.03704,-2.47047c-0.02756,-1.00062 0,-2.002 0,-3.00301c0.42471,-5.88771 -5.6288,-11.94123 -11.51652,-11.51651h-1.5015c0,0 -0.66057,0 -1.5015,-0.2401c-0.84094,0.2401 -1.5015,0.2401 -1.5015,0.2401c-1.54183,0 -3.08366,0 -4.62549,0c1.78597,2.4039 3.80882,6.56194 2.87273,8.88786l0.98582,-0.34198c0,0 4.47213,2.23607 2.23606,6.70821z" fill="#ff0000" stroke-width="0.5"/></g></g></svg>