<svg version="1.1" xmlns="http://www.w3.org/2000/svg" xmlns:xlink="http://www.w3.org/1999/xlink" width="59.37432" height="62.33839" viewBox="0,0,59.37432,62.33839"><defs><radialGradient cx="240.65273" cy="179.04757" r="26.76067" gradientUnits="userSpaceOnUse" id="color-1"><stop offset="0" stop-color="#afaf00"/><stop offset="1" stop-color="#000000"/></radialGradient><radialGradient cx="240.99347" cy="179.46991" r="26.76067" gradientUnits="userSpaceOnUse" id="color-2"><stop offset="0" stop-color="#afaf00"/><stop offset="1" stop-color="#000000"/></radialGradient><radialGradient cx="240.83433" cy="179.90535" r="26.76067" gradientUnits="userSpaceOnUse" id="color-3"><stop offset="0" stop-color="#afaf00"/><stop offset="1" stop-color="#000000"/></radialGradient><radialGradient cx="240.32313" cy="180.08735" r="26.76067" gradientUnits="userSpaceOnUse" id="color-4"><stop offset="0" stop-color="#afaf00"/><stop offset="1" stop-color="#000000"/></radialGradient><radialGradient cx="239.94365" cy="180.02981" r="26.76067" gradientUnits="userSpaceOnUse" id="color-5"><stop offset="0" stop-color="#afaf00"/><stop offset="1" stop-color="#000000"/></radialGradient><radialGradient cx="239.99426" cy="179.56896" r="26.76067" gradientUnits="userSpaceOnUse" id="color-6"><stop offset="0" stop-color="#afaf00"/><stop offset="1" stop-color="#000000"/></radialGradient><radialGradient cx="240.44726" cy="179.27022" r="26.76067" gradientUnits="userSpaceOnUse" id="color-7"><stop offset="0" stop-color="#afaf00"/><stop offset="1" stop-color="#000000"/></radialGradient><radialGradient cx="240.00001" cy="180.00001" r="14.73701" gradientUnits="userSpaceOnUse" id="color-8"><stop offset="0" stop-color="#000000"/><stop offset="1" stop-color="#000000" stop-opacity="0"/></radialGradient></defs><g transform="translate(-211.31284,-148.83081)"><g data-paper-data="{&quot;isPaintingLayer&quot;:true}" fill-rule="nonzero" stroke="none" stroke-width="0" stroke-linecap="butt" stroke-linejoin="miter" stroke-miterlimit="10" stroke-dasharray="" stroke-dashoffset="0" style="mix-blend-mode: normal"><path d="M237.65651,161.29229c0,0 -0.18067,-8.83288 0.6842,-8.9069c0.76201,-0.0652 1.53313,9.00015 2.31203,9.00015c0.69392,0 2.18447,-7.46657 2.86509,-7.4147c0.78939,0.06016 0.23116,7.64756 0.99992,7.77472c0.72923,0.12064 4.65977,-12.57437 5.36783,-12.39602c0.90803,0.2287 -2.21649,13.34892 -1.34803,13.66776c1.01937,0.37425 4.6857,-9.62791 5.64257,-9.13748c1.23465,0.63282 -3.47364,9.38697 -2.3595,10.1968c0.69965,0.50853 6.56917,-5.06765 6.56917,-5.06765l-6.49757,9.86957l-11.3885,11.00201z" fill="url(#color-1)"/><path d="M256.67904,163.4585c0,0 4.39433,-1.7036 4.94642,-1.03376c0.48644,0.59016 -6.53711,6.37332 -6.09475,7.01442c0.3941,0.57114 7.38621,-2.44247 7.73006,-1.85282c0.3988,0.68388 -6.16326,4.53352 -5.83134,5.23849c0.31485,0.66872 12.9961,-3.30596 13.25144,-2.62191c0.32746,0.87725 -12.24603,5.75688 -12.01523,6.65277c0.2709,1.05156 10.58568,-1.61126 10.72543,-0.54515c0.18034,1.37562 -9.69899,2.47203 -9.73278,3.84899c-0.02121,0.86466 7.9019,2.52889 7.9019,2.52889l-11.81359,0.2572l-15.52336,-3.12527z" fill="url(#color-2)"/><path d="M258.58202,182.94626c0,0 8.39615,2.74904 8.18014,3.58977c-0.19034,0.74074 -9.00104,-1.52789 -9.25849,-0.79277c-0.22935,0.6549 6.32487,4.52964 6.05095,5.15487c-0.3177,0.72513 -7.29413,-2.30961 -7.66825,-1.6261c-0.35489,0.64836 10.3274,8.55412 9.92505,9.16343c-0.51597,0.7814 -11.86601,-6.50418 -12.45399,-5.78991c-0.69015,0.83837 7.538,7.60469 6.75885,8.34566c-1.00535,0.95609 -7.71122,-6.38112 -8.84378,-5.59727c-0.7112,0.49224 2.61149,7.87496 2.61149,7.87496l-7.16718,-9.3946l-6.61934,-14.38493z" fill="url(#color-3)"/><path d="M248.64434,195.36668c0,0 1.76101,9.52736 0.94635,9.82702c-0.71778,0.26404 -3.85436,-8.27629 -4.60564,-8.0707c-0.6693,0.18316 -0.1362,7.77838 -0.80635,7.90801c-0.77727,0.15034 -2.24155,-7.31532 -3.01661,-7.23507c-0.7352,0.07612 -1.1755,13.35838 -1.90552,13.37325c-0.93618,0.01908 -1.38559,-13.46058 -2.30741,-13.53887c-1.082,-0.09189 -1.97821,10.52327 -3.03061,10.3028c-1.3579,-0.28448 0.87275,-9.97095 -0.41563,-10.45796c-0.80907,-0.30583 -4.99858,6.62187 -4.99858,6.62187l3.66205,-11.2346l8.08062,-13.61784z" fill="url(#color-4)"/><path d="M229.33555,195.57562c0,0 -4.66357,6.44963 -5.35958,5.93093c-0.61323,-0.45701 4.8271,-7.74933 4.24453,-8.26632c-0.51901,-0.4606 -6.58982,4.13472 -7.06447,3.64417c-0.55049,-0.56895 4.90316,-5.87347 4.41256,-6.47885c-0.46535,-0.57426 -11.83152,6.31214 -12.24274,5.7088c-0.52736,-0.77374 10.51817,-8.51321 10.08022,-9.32814c-0.51404,-0.95652 -9.89521,4.09114 -10.28538,3.08919c-0.50344,-1.29283 8.82871,-4.71542 8.53291,-6.06064c-0.18576,-0.84474 -8.2771,-0.5699 -8.2771,-0.5699l11.41081,-3.06926l15.82066,-0.66993c0,0 -6.34929,13.08423 -8.29142,15.66849c-0.87736,1.16745 -2.98101,0.40142 -2.98101,0.40142z" fill="url(#color-5)"/><path d="M222.03368,180.85169c0,0 -8.80961,-0.66573 -8.80049,-1.53372c0.00804,-0.76475 9.10559,-0.66451 9.18014,-1.43982c0.06644,-0.69072 -7.22316,-2.88923 -7.10637,-3.56175c0.13545,-0.78001 7.63457,0.502 7.83475,-0.25104c0.18989,-0.71432 -12.07054,-5.84213 -11.82524,-6.52985c0.31457,-0.88196 13.07542,3.48422 13.47594,2.65027c0.4701,-0.97885 -9.13513,-5.58586 -8.55535,-6.49139c0.74811,-1.1684 9.01132,4.35632 9.92408,3.32481c0.57317,-0.64775 -4.4155,-7.02413 -4.4155,-7.02413l9.20222,7.41254l9.86123,12.38943z" fill="url(#color-6)"/><path d="M228.15184,163.19433c0,0 -3.41595,-5.60766 -2.69635,-6.0931c0.63401,-0.42772 5.71825,7.11722 6.39874,6.73825c0.60625,-0.33759 -1.72418,-7.58611 -1.10431,-7.87192c0.71893,-0.3315 3.9227,6.56895 4.65619,6.30603c0.69579,-0.24938 -2.04664,-13.2529 -1.34129,-13.44158c0.46431,-0.1242 2.61433,9.46925 5.37869,13.62725c2.62121,3.94268 5.87579,2.4583 5.87579,2.4583l-4.59701,15.15288c0,0 -10.89483,-10.95693 -12.73876,-13.43245c-0.59065,-0.79295 0.16828,-3.44367 0.16828,-3.44367z" fill="url(#color-7)"/><path d="M225.26299,180.00001c0,-8.13901 6.59798,-14.73701 14.73701,-14.73701c8.13901,0 14.73701,6.59798 14.73701,14.73701c0,8.13901 -6.59798,14.73701 -14.73701,14.73701c-8.13901,0 -14.73701,-6.59798 -14.73701,-14.73701z" fill="url(#color-8)"/></g></g></svg>