<svg version="1.1" xmlns="http://www.w3.org/2000/svg" xmlns:xlink="http://www.w3.org/1999/xlink" width="46.33333" height="46.33333" viewBox="0,0,46.33333,46.33333"><g transform="translate(-216.83333,-156.83334)"><g data-paper-data="{&quot;isPaintingLayer&quot;:true}" fill="#8a8a8a" fill-rule="nonzero" stroke="#000000" stroke-width="1" stroke-linecap="butt" stroke-linejoin="miter" stroke-miterlimit="10" stroke-dasharray="" stroke-dashoffset="0" style="mix-blend-mode: normal"><path d="M234.33334,168.66668v-11.33333h11.33333v11.33333z"/><path d="M234.66668,202.66668v-11.33334h11.33333v11.33334z"/><path d="M251.33334,186.00001v-11.33334h11.33333v11.33334z"/><path d="M217.33334,186.00001v-11.33334h11.33333v11.33334z"/><path d="M244.31947,167.33334l8.01388,-8.01388l8.01387,8.01387l-8.01388,8.01388z"/><path d="M219.31947,167.33334l8.01388,-8.01388l8.01388,8.01388l-8.01388,8.01388z"/><path d="M244.81947,193.16668l8.01387,-8.01387l8.01388,8.01387l-8.01388,8.01388z"/><path d="M218.98613,193.00001l8.01388,-8.01388l8.01387,8.01388l-8.01387,8.01388z"/><path d="M222.50001,180.33334c0,-9.66498 7.83502,-17.5 17.5,-17.5c9.66498,0 17.5,7.83502 17.5,17.5c0,9.66498 -7.83502,17.5 -17.5,17.5c-9.66498,0 -17.5,-7.83502 -17.5,-17.5zM240.16668,190.33334c5.52285,0 10,-4.47715 10,-10c0,-5.52285 -4.47715,-10 -10,-10c-5.52285,0 -10,4.47715 -10,10c0,5.52285 4.47715,10 10,10z"/></g></g></svg>