<svg version="1.1" xmlns="http://www.w3.org/2000/svg" xmlns:xlink="http://www.w3.org/1999/xlink" width="191.57577" height="47.33334" viewBox="0,0,191.57577,47.33334"><defs><linearGradient x1="147.99998" y1="180" x2="332" y2="180" gradientUnits="userSpaceOnUse" id="color-1"><stop offset="0" stop-color="#000000" stop-opacity="0.8"/><stop offset="1" stop-color="#ff0000" stop-opacity="0.8"/></linearGradient><linearGradient x1="147.99998" y1="180" x2="332" y2="180" gradientUnits="userSpaceOnUse" id="color-2"><stop offset="0" stop-color="#000000" stop-opacity="0.6"/><stop offset="1" stop-color="#ff0000" stop-opacity="0.6"/></linearGradient><linearGradient x1="145.21211" y1="180" x2="334.78787" y2="180" gradientUnits="userSpaceOnUse" id="color-3"><stop offset="0" stop-color="#1b1b1b"/><stop offset="1" stop-color="#e6e6e6"/></linearGradient><linearGradient x1="145.21211" y1="180" x2="334.78787" y2="180" gradientUnits="userSpaceOnUse" id="color-4"><stop offset="0" stop-color="#1b1b1b"/><stop offset="1" stop-color="#ffffff"/></linearGradient></defs><g transform="translate(-144.21211,-156.33333)"><g data-paper-data="{&quot;isPaintingLayer&quot;:true}" fill-rule="nonzero" stroke-width="2" stroke-linejoin="miter" stroke-miterlimit="10" stroke-dasharray="" stroke-dashoffset="0" style="mix-blend-mode: normal"><path d="M147.99998,196.16406c0,-5.18159 0,-23.4119 0,-32.5c0,-2.99375 2.3788,-5.66406 5.32686,-5.66406c26.42814,0 158.12693,0 173.59674,0c2.89639,0 5.07639,2.133 5.07639,5.41406c0,9.36416 0,28.07969 0,33.25c0,2.59374 -2.65732,5.33594 -6.07639,5.33594c-16.3815,0 -143.24136,0 -172.09674,0c-3.73399,0 -5.82686,-3.34561 -5.82686,-5.83594z" fill="url(#color-1)" stroke="url(#color-2)" stroke-linecap="butt"/><path d="M148.16668,180h183.66667" fill="none" stroke="#777777" stroke-linecap="round"/><path d="M148.23146,198.21874h183.66667" fill="none" stroke="#777777" stroke-linecap="round"/><path d="M148.23146,192.21874h183.66666" fill="none" stroke="#777777" stroke-linecap="round"/><path d="M148.23146,161.33333h183.66666" data-paper-data="{&quot;index&quot;:null}" fill="none" stroke="#777777" stroke-linecap="round"/><path d="M148.16668,173.55208h183.66667" data-paper-data="{&quot;index&quot;:null}" fill="none" stroke="#777777" stroke-linecap="round"/><path d="M148.23146,186.21875h183.66666" fill="none" stroke="#777777" stroke-linecap="round"/><path d="M331.89814,167.33333h-183.66666" data-paper-data="{&quot;index&quot;:null}" fill="none" stroke="#777777" stroke-linecap="round"/><path d="M145.21211,196.65388c0,-5.33861 0,-24.12136 0,-33.48485c0,-3.08447 2.45088,-5.8357 5.48829,-5.8357c27.22899,0 162.91866,0 178.85725,0c2.98416,0 5.23023,2.19764 5.23023,5.57812c0,9.64792 0,28.93059 0,34.25758c0,2.67233 -2.73784,5.49764 -6.26053,5.49764c-16.8779,0 -147.58201,0 -177.31179,0c-3.84714,0 -6.00344,-3.447 -6.00344,-6.01279z" fill="url(#color-3)" stroke="url(#color-4)" stroke-linecap="butt"/><text transform="translate(155.51008,186) scale(0.5,0.5)" font-size="40" xml:space="preserve" fill-opacity="0.90196" fill="#000000" fill-rule="nonzero" stroke="#ffffff" stroke-width="2" stroke-linecap="butt" stroke-linejoin="miter" stroke-miterlimit="10" stroke-dasharray="" stroke-dashoffset="0" font-family="Marker" font-weight="normal" text-anchor="start" style="mix-blend-mode: normal"><tspan x="0" dy="0">health potion key</tspan></text></g></g></svg>