<svg version="1.1" xmlns="http://www.w3.org/2000/svg" xmlns:xlink="http://www.w3.org/1999/xlink" width="30.01455" height="31.375" viewBox="0,0,30.01455,31.375"><g transform="translate(-224.99139,-165.16059)"><g data-paper-data="{&quot;isPaintingLayer&quot;:true}" fill-rule="nonzero" stroke="none" stroke-linecap="butt" stroke-linejoin="miter" stroke-miterlimit="10" stroke-dasharray="" stroke-dashoffset="0" style="mix-blend-mode: normal"><path d="M224.9914,196.53559v-31.375h30.00001v31.375z" fill="#c1f6ff" stroke-width="0"/><path d="M225.14707,182.0239v-3.62966c0,0 2.02979,0.48673 4.30701,-0.65397c1.79178,-0.89754 3.91598,-3.59935 4.10476,-2.91416c0.42869,1.556 -1.55589,5.48155 -2.94118,7.19779c-1.38529,1.71625 -5.47059,0 -5.47059,0z" fill="#cef8ff" stroke-width="0"/><path d="M243.34541,175.11868c1.89123,-0.53718 11.66054,3.51077 11.66054,3.51077l-0.03231,3.28881c0,0 -2.18328,0.72522 -3.48312,0.42561c-1.32409,-0.30521 -1.76645,-1.63447 -1.90568,-1.53504c-0.86056,0.61449 -0.9627,1.48385 -2.19413,1.75299c-0.25682,0.05613 -0.57593,-0.08467 -0.87653,-0.21098c0.35641,2.1965 -2.38357,6.84373 -3.56213,7.83175c-0.64383,0.53973 -2.93247,2.162 -3.82628,1.18066c-0.25072,-0.27527 -1.24555,-2.76663 -1.57963,-2.61295c-0.79595,0.36616 -1.99377,0.63326 -2.60863,-0.00978c-1.03554,-1.083 0.46904,-4.36792 1.08741,-5.2327c1.79028,-2.50366 2.98263,-4.56488 4.99308,-3.64487c-0.20787,-1.13832 -0.37417,-2.27459 -0.52945,-3.16787c-0.00525,0.00359 -0.01051,0.00717 -0.01579,0.01075c-1.01405,0.6864 -2.13386,0.63103 -3.06913,-0.11571c-0.74153,-0.59207 -0.23357,-2.24581 -0.45728,-2.44768c-2.77392,-2.50315 -6.52893,0.68539 -8.40509,-3.39468c-1.55784,-3.38783 4.2286,-4.1879 5.90674,-2.43285l0.10206,-0.04269c2.66314,-0.3798 6.11799,2.34266 6.9832,4.96943c0.02448,-0.00124 0.04911,-0.00187 0.07389,-0.00187c0.34236,0 0.65793,0.11996 0.91038,0.32187c0.32534,0.26021 0.54586,0.65653 0.58379,1.10766c0.10929,0.27117 0.18615,0.46582 0.24408,0.44936z" fill="#cef8ff" stroke-width="0.5"/><path d="M234.07992,177.62269c0.91699,0.60377 1.28787,1.2248 1.37463,2.30072c0.0771,0.95615 2.25548,0.32222 2.478,1.25312c1.15291,4.82301 -4.52642,4.07661 -6.9803,2.44347c-0.2651,0.24713 -0.61463,0.3973 -0.9977,0.3973c-0.82843,0 -1.5,-0.70235 -1.5,-1.56875c0,-0.17267 0.02667,-0.33882 0.07594,-0.49419c-0.39941,-2.70307 2.80772,-6.13689 5.54942,-4.33167z" fill="#a3f1ff" stroke-width="0.5"/><path d="M248.27274,167.58108c0.61225,-0.53685 0.93475,-2.30827 0.93475,-2.30827l2.68509,-0.04488c0,0 0.70953,5.44843 -1.40949,7.66354c-0.44386,0.46399 0.96891,0.84938 1.35592,1.36607c0.68367,0.91275 1.02002,2.46262 0.75579,3.56799c-0.67705,2.83234 -4.7069,1.46857 -5.40727,-0.58236c-0.09177,-0.26872 0.07988,-0.82541 -0.19288,-0.83192c-0.11038,-0.00263 -0.51618,0.21115 -1.01848,0.43562c-0.26782,0.26063 -0.6269,0.42007 -1.02159,0.42007c-0.03557,0 -0.07085,-0.0013 -0.10581,-0.00385c-0.93079,0.23919 -1.73497,0.08259 -1.39369,-1.52359c-0.00034,-0.01373 -0.00051,-0.02749 -0.00051,-0.04131c0,-0.2716 0.066,-0.5271 0.18214,-0.74988c0.93254,-3.70857 1.75829,-4.84388 4.63604,-7.36722z" fill="#a3f1ff" stroke-width="0.5"/><path d="M252.03543,196.46727l-2.68509,-0.04488c0,0 -0.3225,-1.77142 -0.93475,-2.30827c-0.52525,-0.46056 -1.84979,-5.08147 -0.01434,-6.87451c1.64385,-1.60588 6.4443,-0.42608 6.4443,-0.42608l0.10146,5.49543z" data-paper-data="{&quot;index&quot;:null}" fill="#a3f1ff" stroke-width="0.5"/><path d="M225.10334,192.45835l0.10146,-5.49543c0,0 2.14628,-0.79165 3.81777,-2.08811c0.95122,-0.73779 1.4589,-2.69978 2.0551,-2.11735c0.66845,0.65301 4.13643,0.27843 4.25426,2.1252c0.06892,1.08016 -2.78584,1.03729 -3.30069,2.40129c-1.02188,2.70731 -1.03156,4.09557 -1.25363,4.29029c-0.61225,0.53685 -5.67428,0.88412 -5.67428,0.88412z" data-paper-data="{&quot;index&quot;:null}" fill="#a3f1ff" stroke-width="0.5"/></g></g></svg>