<svg version="1.1" xmlns="http://www.w3.org/2000/svg" xmlns:xlink="http://www.w3.org/1999/xlink" width="30.01455" height="30.75" viewBox="0,0,30.01455,30.75"><g transform="translate(-224.9914,-165.16059)"><g data-paper-data="{&quot;isPaintingLayer&quot;:true}" fill-rule="nonzero" stroke="none" stroke-linecap="butt" stroke-linejoin="miter" stroke-miterlimit="10" stroke-dasharray="" stroke-dashoffset="0" style="mix-blend-mode: normal"><path d="M255.00596,165.16059v30.75h-30.00001v-30.75z" data-paper-data="{&quot;index&quot;:null}" fill="#80ecff" stroke-width="0"/><path d="M254.85029,179.3832v3.55735l-4.30701,0.64094l-4.10476,2.85611l2.94118,-7.05441z" data-paper-data="{&quot;index&quot;:null}" fill="#99f0ff" stroke-width="0"/><path d="M236.65195,186.15087l-11.66054,-3.44083l0.03231,-3.2233l3.48312,-0.41713l1.90568,1.50446l2.19413,-1.71807l0.87653,0.20677l3.56213,-7.67574l3.82628,-1.15714l1.57963,2.5609l2.60863,0.00958l-1.08741,5.12846l-4.99308,3.57226l0.52945,3.10477l0.01579,-0.01054l3.06913,0.11341l0.45728,2.39892l8.40509,3.32706l-5.90674,2.38439l-0.10206,0.04184l-6.9832,-4.87044l-0.07389,0.00183l-0.91038,-0.31545l-0.58379,-1.0856l-0.24408,-0.44041z" data-paper-data="{&quot;index&quot;:null}" fill="#99f0ff" stroke-width="0.5"/><path d="M245.91744,183.69674l-1.37463,-2.25489l-2.478,-1.22815l6.9803,-2.3948l0.9977,-0.38939l1.5,1.5375l-0.07594,0.48434l-5.54942,4.24539z" data-paper-data="{&quot;index&quot;:null}" fill="#6ee9ff" stroke-width="0.5"/><path d="M231.72462,193.53832l-0.93475,2.26229l-2.68509,0.04398l1.40949,-7.51088l-1.35592,-1.33885l-0.75579,-3.49691l5.40727,0.57076l0.19288,0.81535l1.01848,-0.42694l1.02159,-0.4117l0.10581,0.00377l1.39369,1.49324l0.00051,0.04049l-0.18214,0.73495l-4.63604,7.22046z" data-paper-data="{&quot;index&quot;:null}" fill="#6ee9ff" stroke-width="0.5"/><path d="M227.96193,165.22755l2.68509,0.04398l0.93475,2.26229l0.01434,6.73757l-6.4443,0.4176l-0.10146,-5.38595z" data-paper-data="{&quot;index&quot;:null}" fill="#6ee9ff" stroke-width="0.5"/><path d="M254.89402,169.15661l-0.10146,5.38595l-3.81777,2.04651l-2.0551,2.07517l-4.25426,-2.08286l3.30069,-2.35345l1.25363,-4.20483l5.67428,-0.8665z" data-paper-data="{&quot;index&quot;:null}" fill="#6ee9ff" stroke-width="0.5"/></g></g></svg>