<svg version="1.1" xmlns="http://www.w3.org/2000/svg" xmlns:xlink="http://www.w3.org/1999/xlink" width="549" height="313.06895" viewBox="0,0,549,313.06895"><g transform="translate(34.5,-45.46555)"><g data-paper-data="{&quot;isPaintingLayer&quot;:true}" fill-rule="nonzero" stroke="none" stroke-linecap="butt" stroke-linejoin="miter" stroke-miterlimit="10" stroke-dasharray="" stroke-dashoffset="0" style="mix-blend-mode: normal"><path d="M-34.5,358.53451v-313.06895h549v313.06895z" fill="#000000" stroke-width="0"/><text transform="translate(13.9502,128.08126) scale(0.5,0.5)" font-size="40" xml:space="preserve" fill="#ff0000" fill-rule="nonzero" stroke="none" stroke-width="1" stroke-linecap="butt" stroke-linejoin="miter" stroke-miterlimit="10" stroke-dasharray="" stroke-dashoffset="0" font-family="Sans Serif" font-weight="normal" text-anchor="start" style="mix-blend-mode: normal"><tspan x="0" dy="0">  To upload your save, right click anywhere on</tspan><tspan x="0" dy="46.150000000000006px">this list, and click import. Choose your save file,</tspan><tspan x="0" dy="46.150000000000006px">                                and thats it!</tspan></text><path d="M102.64498,288.35391c-2.23607,-4.47214 2.23607,-6.7082 2.23607,-6.7082l1.70354,-0.5649c0.5005,-1.001 0.71014,-2.21164 1.5015,-3.003c0.79136,-0.79136 2.21164,-0.71014 3.003,-1.5015c0.79136,-0.79136 0.64741,-2.2798 1.5015,-3.003c1.54886,-1.3115 3.45737,-2.21186 5.38977,-2.83221c0.52109,-0.16728 1.0936,0.95216 1.52311,0.61299c0.61774,-0.48781 -0.0036,-1.77372 0.59462,-2.28528c1.29399,-1.10654 2.85672,-1.89304 4.46196,-2.50085c-1.06157,-0.40213 -2.11941,-0.81831 -3.22884,-1.04019c-0.98156,-0.19631 -2.02144,0.19631 -3.003,0c-1.55199,-0.3104 -2.95252,-1.19111 -4.5045,-1.50151c-0.98156,-0.19631 -2.02144,0.19631 -3.00301,0c-1.55199,-0.3104 -2.95584,-1.17496 -4.50451,-1.5015c-1.34628,-0.28386 -2.86852,0.26538 -4.11551,-0.31604c-1.28302,-0.59821 -1.73682,-2.36991 -3.003,-3.003c-0.89532,-0.44766 -2.10768,0.44766 -3.00301,0c-1.26618,-0.63309 -1.75004,-2.34414 -3.003,-3.00301c-0.66438,-0.34937 -1.51825,0.45876 -2.23835,0.24685c-3.0131,-0.88668 -5.29068,-3.40028 -7.78079,-5.31454c-3.2705,-2.51417 -7.40779,-3.45564 -10.75691,-6.1955c-2.26909,-1.8563 -3.63178,-4.60385 -5.39077,-6.94917c-0.84938,-1.13251 -2.16454,-1.8624 -3.00301,-3.00301c-2.01997,-2.74786 -3.38938,-6.6344 -4.92043,-9.69649c-2.40881,-4.81761 -5.34282,-9.61876 -6.46931,-14.94867c-0.18308,-0.86622 0.28646,-1.79687 0.0692,-2.65515c-0.27464,-1.08493 -1.25214,-1.91198 -1.5015,-3.003c-0.68496,-2.99694 -0.13376,-7.05736 -0.13376,-10.15777c0,-1.18795 -0.03223,-6.42853 0.13376,-7.15477c0.24936,-1.09102 1.19816,-1.92575 1.5015,-3.00301c0.70438,-2.50145 -0.56108,-6.05153 -0.0692,-8.66115c0.29317,-1.55534 1.19118,-2.95251 1.5015,-4.50451c0.21905,-1.09551 -0.21602,-2.27068 0.0692,-3.35085c0.38364,-1.45294 1.26374,-2.72687 1.89561,-4.09031c0,0 2.23607,-4.47214 6.70821,-2.23607c4.47213,2.23607 2.23606,6.7082 2.23606,6.7082c-0.78194,1.35268 -0.73171,3.03879 -1.0382,4.57085c-0.31047,1.55197 -1.16991,2.95691 -1.5015,4.5045c-0.63419,2.95997 0.61892,6.34615 -0.06919,9.35686c-0.24936,1.09102 -1.19816,1.92574 -1.50151,3.003c-0.43901,1.55906 0.13376,3.23755 0.13376,4.85724c0,2.16625 -0.71425,5.79875 -0.13376,7.86024c0.30335,1.07726 1.23293,1.91655 1.50151,3.00301c0.2681,1.08454 -0.13518,2.25251 0.06919,3.35085c0.77385,4.15886 3.67444,8.34184 5.5427,12.07836c2.59976,5.1995 5.2742,9.68355 8.59309,14.32753c3.02263,4.22943 8.45552,4.99081 12.38085,7.87635c1.50862,1.109 2.39101,3.34885 4.23122,3.69447c1.23695,0.23232 2.63301,-0.29777 3.76765,0.24685c1.27622,0.61257 1.73683,2.36991 3.00301,3.00301c0.89532,0.44766 2.10768,-0.44766 3.00301,0c1.26618,0.63309 1.76212,2.32165 3.003,3.003c0.56004,0.30751 1.26229,-0.43249 1.8905,-0.31604c1.55621,0.28848 2.95252,1.19111 4.5045,1.50151c0.98156,0.19631 2.02144,-0.19631 3.003,0c1.55199,0.31039 2.95252,1.1911 4.50451,1.5015c0.98156,0.19631 2.02145,-0.19631 3.00301,0c1.55199,0.31039 3.003,1.001 4.5045,1.5015c2.02512,-0.05938 4.04872,-0.06623 6.07349,-0.06578c-0.28239,-0.59071 -0.54659,-1.19286 -0.83603,-1.77173c-0.26755,-0.53509 -0.11985,-1.30375 -0.5649,-1.70354c-0.83256,-0.74789 -2.21164,-0.71014 -3.003,-1.5015c-0.79136,-0.79136 -0.71937,-2.20252 -1.5015,-3.003c-0.60204,-0.61616 -1.70185,-0.46395 -2.39102,-0.98082c-4.12002,-3.09002 -6.61075,-7.88464 -11.32453,-10.09459c0,0 -4.47214,-2.23607 -2.23607,-6.7082c2.23607,-4.47214 6.7082,-2.23607 6.7082,-2.23607c5.34059,2.77475 8.04288,7.43397 12.6995,10.92644c1.10457,0.82843 2.62992,1.0547 3.61499,2.02218c0.79845,0.7842 0.71014,2.21164 1.5015,3.003c0.79136,0.79136 2.23758,0.68503 3.003,1.5015c1.12741,1.2026 1.70091,2.82808 2.4381,4.30247c0.26755,0.53509 0.11985,1.30375 0.5649,1.70354c0.83256,0.74789 2.23758,0.68503 3.003,1.5015c1.12741,1.2026 1.6254,2.86831 2.4381,4.30247l0.5649,0.20204c0,0 1.88903,1.88903 1.52469,4.28628c0.36434,2.39726 -1.52469,4.28628 -1.52469,4.28628c-1.54171,1.36229 -2.79709,3.14294 -4.62512,4.08687c-1.11829,0.57744 -2.54335,-0.04488 -3.76766,0.24685c-3.07811,0.73346 -5.87516,3.66702 -9.00901,4.5045c-1.16681,0.31182 -2.87807,-0.78281 -3.61924,0.17079c-0.90663,1.16649 -1.15774,2.93423 -2.40838,3.72072c-1.45574,0.91547 -4.14464,-0.64668 -5.09913,0.78378c-0.62117,0.93094 -0.71014,2.21164 -1.5015,3.003c-0.79136,0.79136 -2.21164,0.71014 -3.003,1.5015c-0.79136,0.79136 -1.001,2.002 -1.5015,3.003l-4.30247,2.4381c0,0 -4.47214,2.23607 -6.7082,-2.23607z" fill="#ff0000" stroke-width="0.5"/><text transform="translate(10.9502,195.69375) scale(0.5,0.5)" font-size="40" xml:space="preserve" fill="#00b5ff" fill-rule="nonzero" stroke="none" stroke-width="1" stroke-linecap="butt" stroke-linejoin="miter" stroke-miterlimit="10" stroke-dasharray="" stroke-dashoffset="0" font-family="Sans Serif" font-weight="normal" text-anchor="start" style="mix-blend-mode: normal"><tspan x="0" dy="0">    Like with making a new world, the game will </tspan><tspan x="0" dy="46.150000000000006px">   apear frozen, but it is not crashed. Uploading </tspan><tspan x="0" dy="46.150000000000006px">                    also takes much less time!</tspan></text></g></g></svg>