<svg version="1.1" xmlns="http://www.w3.org/2000/svg" xmlns:xlink="http://www.w3.org/1999/xlink" width="29.60049" height="29.92963" viewBox="0,0,29.60049,29.92963"><defs><linearGradient x1="236.72803" y1="174.98857" x2="236.72803" y2="183.68859" gradientUnits="userSpaceOnUse" id="color-1"><stop offset="0" stop-color="#42e3ff"/><stop offset="1" stop-color="#b4f4ff"/></linearGradient><linearGradient x1="247.9724" y1="184.6735" x2="247.9724" y2="193.37352" gradientUnits="userSpaceOnUse" id="color-2"><stop offset="0" stop-color="#42e3ff"/><stop offset="1" stop-color="#b4f4ff"/></linearGradient><linearGradient x1="244.36107" y1="165.0574" x2="244.36107" y2="173.75742" gradientUnits="userSpaceOnUse" id="color-3"><stop offset="0" stop-color="#42e3ff"/><stop offset="1" stop-color="#b4f4ff"/></linearGradient><linearGradient x1="229.99783" y1="191.28247" x2="229.99783" y2="199.9825" gradientUnits="userSpaceOnUse" id="color-4"><stop offset="0" stop-color="#42e3ff"/><stop offset="1" stop-color="#b4f4ff"/></linearGradient><linearGradient x1="229.99783" y1="161.37769" x2="229.99783" y2="170.07773" gradientUnits="userSpaceOnUse" id="color-5"><stop offset="0" stop-color="#42e3ff"/><stop offset="1" stop-color="#b4f4ff"/></linearGradient></defs><g transform="translate(-225.19977,-165.04059)"><g data-paper-data="{&quot;isPaintingLayer&quot;:true}" fill-rule="nonzero" stroke="none" stroke-linecap="butt" stroke-linejoin="miter" stroke-miterlimit="10" stroke-dasharray="" stroke-dashoffset="0" style="mix-blend-mode: normal"><path d="M225.19978,194.95718v-29.91658h29.54725v29.91658z" fill="#566f75" stroke-width="0"/><path d="M226.14841,175.00014v-8.6851h16.02714v8.6851z" fill="#525252" stroke-width="0"/><path d="M243.16046,175.08968v-10.02815h10.56537v10.02816z" fill="#525252" stroke-width="0"/><path d="M243.07092,194.87737v-5.10361h10.56537v5.10362z" fill="#525252" stroke-width="0"/><path d="M241.01156,184.71492v-8.6851h13.78871v8.6851z" fill="#525252" stroke-width="0"/><path d="M225.2978,184.62538v-8.6851h4.38731v8.6851z" fill="#525252" stroke-width="0"/><path d="M230.53573,184.67014v-8.77463h9.66999v8.77463z" fill="#525252" stroke-width="0"/><path d="M226.14841,194.25061v-8.77463h16.02713v8.77463z" fill="#525252" stroke-width="0"/><path d="M253.68106,188.83361h-10.65491v-3.4024h10.65491z" fill="#525252" stroke-width="0"/><path d="M227.40193,189.05746v-2.23843h2.23843v2.23843z" fill="#8d8d8d" stroke-width="0"/><path d="M239.04175,193.44478v-2.23843h2.23843v2.23843z" fill="#8d8d8d" stroke-width="0"/><path d="M231.52063,179.20839v-2.23843h2.23843v2.23843z" fill="#8d8d8d" stroke-width="0"/><path d="M241.8174,183.86431v-2.50703h2.50704v2.50703z" fill="#8d8d8d" stroke-width="0"/><path d="M250.14434,166.31501v-1.25352h2.50703v1.25352z" fill="#8d8d8d" stroke-width="0"/><path d="M250.14434,194.95945v-1.25352h2.50703v1.25352z" fill="#8d8d8d" stroke-width="0"/><path d="M227.08854,169.44138v-2.23843h2.23843v2.23843z" fill="#8d8d8d" stroke-width="0"/><path d="M239.31782,174.36592v-2.23843h2.23843v2.23843z" fill="#2f2f2f" stroke-width="0"/><path d="M253.76313,179.04422v-2.23843h0.92522v2.23843z" fill="#2f2f2f" stroke-width="0"/><path d="M225.28287,179.1263v-2.23843h0.92522v2.23843z" fill="#2f2f2f" stroke-width="0"/><path d="M251.05463,187.90839v-1.91013h1.91013v1.91013z" fill="#2f2f2f" stroke-width="0"/><path d="M233.97849,174.98857h4.02171c0,0 -0.91671,2.6162 -1.11562,4.15067c-0.18273,1.40964 -0.03344,4.7135 -0.03344,4.7135c0,0 -0.93445,-1.78926 -1.03437,-2.42408c-0.07598,-0.48267 -0.32185,-1.43779 -0.39767,-2.50947c-0.07477,-1.05685 -0.65468,-0.99568 -0.55264,-2.1113c0.11457,-1.25257 -0.88796,-1.81932 -0.88796,-1.81932z" fill="url(#color-1)" stroke-width="0"/><path d="M240.79077,184.6735h8.45379c0,0 -0.6756,1.78698 -1.16816,2.44803c-0.6091,0.81743 -0.57616,2.08538 -0.68614,2.93378c-0.0201,0.15504 -1.01835,2.57953 -1.01835,2.57953c0,0 -1.01652,-1.29681 -1.11645,-1.93163c-0.07598,-0.48267 -0.23978,-1.19156 -0.3156,-2.26324c-0.07477,-1.05685 -1.31129,-1.07776 -1.20925,-2.19338c-1.44487,-1.33464 -2.93986,-1.57309 -2.93986,-1.57309z" fill="url(#color-2)" stroke-width="0"/><path d="M242.51436,165.0574h3.11888c0,0 -0.09537,1.68179 -0.3464,2.71541c-0.20445,0.84183 -1.04889,3.02988 -1.04889,3.02988c0,0 -0.37126,-2.3866 -0.66651,-3.37075c-0.27828,-0.9276 -1.05708,-2.37454 -1.05708,-2.37454z" fill="url(#color-3)" stroke-width="0"/><path d="M226.75584,191.28247h7.63304c0,0 -1.65481,1.10726 -1.90583,2.14088c-0.05124,0.21097 -0.51814,1.54574 -0.51814,1.54574l-2.34632,0.00114c0,0 -0.11203,-1.80188 -0.84405,-1.9679c-0.98432,-0.22324 -2.01869,-1.71985 -2.01869,-1.71985z" fill="url(#color-4)" stroke-width="0"/><path d="M231.99763,165.06416c0,0 -0.37828,1.07477 -0.46081,1.51783c-0.29588,1.58857 -0.75927,3.16744 -0.75927,3.16744l-1.15897,-4.68396z" fill="url(#color-5)" stroke-width="0"/><path d="M225.30669,194.87864v-29.75725h29.38664v29.75725z" fill-opacity="0.57647" fill="#000000" stroke-width="3"/></g></g></svg>