<svg version="1.1" xmlns="http://www.w3.org/2000/svg" xmlns:xlink="http://www.w3.org/1999/xlink" width="30.01454" height="30.75" viewBox="0,0,30.01454,30.75"><defs><linearGradient x1="233.43071" y1="176.81269" x2="233.43071" y2="193.31309" gradientUnits="userSpaceOnUse" id="color-1"><stop offset="0" stop-color="#fff500"/><stop offset="1" stop-color="#e2db00"/></linearGradient><linearGradient x1="233.43071" y1="176.81269" x2="233.43071" y2="193.31309" gradientUnits="userSpaceOnUse" id="color-2"><stop offset="0" stop-color="#e6fffb"/><stop offset="1" stop-color="#e2db00"/></linearGradient><linearGradient x1="231.03876" y1="176.43145" x2="245.38591" y2="176.43145" gradientUnits="userSpaceOnUse" id="color-3"><stop offset="0" stop-color="#d5c000"/><stop offset="1" stop-color="#fff500"/></linearGradient></defs><g transform="translate(-224.99143,-165.16059)"><g data-paper-data="{&quot;isPaintingLayer&quot;:true}" fill-rule="nonzero" stroke="none" stroke-linecap="butt" stroke-linejoin="miter" stroke-miterlimit="10" stroke-dasharray="" stroke-dashoffset="0" style="mix-blend-mode: normal"><path d="M255.00598,165.16059v30.75h-30.00001v-30.75z" data-paper-data="{&quot;index&quot;:null}" fill="#80ecff" stroke-width="0"/><path d="M254.85032,179.3832v3.55735l-4.30701,0.64094l-4.10476,2.85611l2.94118,-7.05441z" data-paper-data="{&quot;index&quot;:null}" fill="#99f0ff" stroke-width="0"/><path d="M236.65198,186.15087l-11.66054,-3.44083l0.03231,-3.2233l3.48312,-0.41713l1.90568,1.50446l2.19413,-1.71807l0.87653,0.20677l3.56213,-7.67574l3.82628,-1.15714l1.57963,2.5609l2.60863,0.00958l-1.08741,5.12846l-4.99308,3.57226l0.52945,3.10477l0.01579,-0.01054l3.06913,0.11341l0.45728,2.39892l8.40509,3.32706l-5.90674,2.38439l-0.10206,0.04184l-6.9832,-4.87044l-0.07389,0.00183l-0.91038,-0.31545l-0.58379,-1.0856l-0.24408,-0.44041z" data-paper-data="{&quot;index&quot;:null}" fill="#99f0ff" stroke-width="0.5"/><path d="M245.91747,183.69674l-1.37463,-2.25489l-2.478,-1.22815l6.9803,-2.3948l0.9977,-0.38939l1.5,1.5375l-0.07594,0.48434l-5.54942,4.24539z" data-paper-data="{&quot;index&quot;:null}" fill="#6ee9ff" stroke-width="0.5"/><path d="M231.72464,193.53832l-0.93475,2.26229l-2.68509,0.04398l1.40949,-7.51088l-1.35592,-1.33885l-0.75579,-3.49691l5.40727,0.57076l0.19288,0.81535l1.01848,-0.42694l1.02159,-0.4117l0.10581,0.00377l1.39369,1.49324l0.00051,0.04049l-0.18214,0.73495l-4.63604,7.22046z" data-paper-data="{&quot;index&quot;:null}" fill="#6ee9ff" stroke-width="0.5"/><path d="M227.96196,165.22755l2.68509,0.04398l0.93475,2.26229l0.01434,6.73757l-6.4443,0.4176l-0.10146,-5.38595z" data-paper-data="{&quot;index&quot;:null}" fill="#6ee9ff" stroke-width="0.5"/><path d="M254.89404,169.15661l-0.10146,5.38595l-3.81777,2.04651l-2.0551,2.07517l-4.25426,-2.08286l3.30069,-2.35345l1.25363,-4.20483l5.67428,-0.8665z" data-paper-data="{&quot;index&quot;:null}" fill="#6ee9ff" stroke-width="0.5"/><path d="M239.45744,184.14494c2.49583,1.88935 0.32655,8.83009 0.32655,8.83009c0,0 -1.93903,-3.58032 -3.72977,-2.36235c-0.76047,0.51723 -7.07143,4.1265 -8.36268,2.07527c-1.35088,-1.75522 -1.86311,-9.68645 -1.19905,-10.8617c0.41492,-0.73433 1.14277,-5.00707 1.75593,-5.01355c0.61316,-0.00648 10.56818,6.84712 11.20902,7.33224z" data-paper-data="{&quot;index&quot;:null}" fill="url(#color-1)" stroke-width="0"/><path d="M239.45744,184.14494c2.49583,1.88935 0.32655,8.83009 0.32655,8.83009c0,0 -1.93903,-3.58032 -3.72977,-2.36235c-0.76047,0.51723 -7.07143,4.1265 -8.36268,2.07527c-1.35088,-1.75522 -1.86311,-9.68645 -1.19905,-10.8617c0.41492,-0.73433 1.14277,-5.00707 1.75593,-5.01355c0.61316,-0.00648 10.56818,6.84712 11.20902,7.33224z" data-paper-data="{&quot;index&quot;:null}" fill="url(#color-2)" stroke-width="0"/><path d="M239.45744,184.14494c2.49583,1.88935 0.32655,8.83009 0.32655,8.83009c0,0 -1.93903,-3.58032 -3.72977,-2.36235c-0.76047,0.51723 -7.07143,4.1265 -8.36268,2.07527c-1.35088,-1.75522 -1.86311,-9.68645 -1.19905,-10.8617c0.41492,-0.73433 1.14277,-5.00707 1.75593,-5.01355c0.61316,-0.00648 10.56818,6.84712 11.20902,7.33224z" data-paper-data="{&quot;index&quot;:null}" fill="#e6fffb" stroke-width="0"/><path d="M239.45744,184.14494c2.49583,1.88935 0.32655,8.83009 0.32655,8.83009c0,0 -1.93903,-3.58032 -3.72977,-2.36235c-0.76047,0.51723 -7.07143,4.1265 -8.36268,2.07527c-1.35088,-1.75522 -1.86311,-9.68645 -1.19905,-10.8617c0.41492,-0.73433 1.14277,-5.00707 1.75593,-5.01355c0.61316,-0.00648 10.56818,6.84712 11.20902,7.33224z" data-paper-data="{&quot;index&quot;:null}" fill="#e6fffb" stroke-width="0"/><path d="M239.45744,184.14494c2.49583,1.88935 0.32655,8.83009 0.32655,8.83009c0,0 -1.93903,-3.58032 -3.72977,-2.36235c-0.76047,0.51723 -7.07143,4.1265 -8.36268,2.07527c-1.35088,-1.75522 -1.86311,-9.68645 -1.19905,-10.8617c0.41492,-0.73433 1.14277,-5.00707 1.75593,-5.01355c0.61316,-0.00648 10.56818,6.84712 11.20902,7.33224z" data-paper-data="{&quot;index&quot;:null}" fill="#e6fffb" stroke-width="0"/><path d="M239.45744,184.14494c2.49583,1.88935 0.32655,8.83009 0.32655,8.83009c0,0 -1.93903,-3.58032 -3.72977,-2.36235c-0.76047,0.51723 -7.07143,4.1265 -8.36268,2.07527c-1.35088,-1.75522 -1.86311,-9.68645 -1.19905,-10.8617c0.41492,-0.73433 1.14277,-5.00707 1.75593,-5.01355c0.61316,-0.00648 10.56818,6.84712 11.20902,7.33224z" data-paper-data="{&quot;index&quot;:null}" fill="#e6fffb" stroke-width="0"/><path d="M239.45744,184.14494c2.49583,1.88935 0.32655,8.83009 0.32655,8.83009c0,0 -1.93903,-3.58032 -3.72977,-2.36235c-0.76047,0.51723 -7.07143,4.1265 -8.36268,2.07527c-1.35088,-1.75522 -1.86311,-9.68645 -1.19905,-10.8617c0.41492,-0.73433 1.14277,-5.00707 1.75593,-5.01355c0.61316,-0.00648 10.56818,6.84712 11.20902,7.33224z" data-paper-data="{&quot;index&quot;:null}" fill="#e6fffb" stroke-width="0"/><path d="M247.59512,179.28494c2.49583,1.88935 3.92566,4.68465 2.13492,5.90262c-0.76047,0.51723 -4.24585,1.30092 -5.5371,-0.75031c-1.35088,-1.75522 -4.68869,-6.86087 -4.02463,-8.03612c0.41492,-0.73433 3.17719,0.192 3.79035,0.18552c0.61316,-0.00648 2.99562,2.21317 3.63646,2.69829z" data-paper-data="{&quot;index&quot;:null}" fill="#aed4cd" stroke-width="0"/><path d="M250.19465,177.58959c2.49583,1.88935 1.32612,6.38 -0.46462,7.59797c-0.76047,0.51723 -4.24585,1.30092 -5.5371,-0.75031c-1.35088,-1.75522 -4.68869,-6.86087 -4.02463,-8.03612c0.41492,-0.73433 3.17719,0.192 3.79035,0.18552c0.61316,-0.00648 5.59516,0.51782 6.236,1.00294z" data-paper-data="{&quot;index&quot;:null}" fill="#aed4cd" stroke-width="0"/><path d="M231.5194,178.45306c0,0 -1.33864,-3.08806 0.45209,-4.30602c0.76047,-0.51723 -1.37356,-5.65426 0.72015,-6.63753c2.83651,-1.33211 9.58143,0.50607 10.47635,3.02078c0.53588,1.50583 2.88552,5.09367 2.03381,6.73201c-0.71805,1.38122 -4.23748,0.10475 -5.99786,0.91273c-1.36168,0.62498 2.42822,4.26134 1.76417,5.43658c-0.41492,0.73433 -3.29021,2.18148 -3.90337,2.18796c-4.33023,0.04575 -5.54534,-7.34651 -5.54534,-7.34651z" fill="url(#color-3)" stroke-width="0"/><path d="M231.5194,178.45306c0,0 -1.33864,-3.08806 0.45209,-4.30602c0.76047,-0.51723 -1.37356,-5.65426 0.72015,-6.63753c2.83651,-1.33211 9.58143,0.50607 10.47635,3.02078c0.53588,1.50583 2.88552,5.09367 2.03381,6.73201c-0.71805,1.38122 -4.23748,0.10475 -5.99786,0.91273c-1.36168,0.62498 2.42822,4.26134 1.76417,5.43658c-0.41492,0.73433 -3.29021,2.18148 -3.90337,2.18796c-4.33023,0.04575 -5.54534,-7.34651 -5.54534,-7.34651z" fill="#b1fff2" stroke-width="0"/><path d="M231.5194,178.45306c0,0 -1.33864,-3.08806 0.45209,-4.30602c0.76047,-0.51723 -1.37356,-5.65426 0.72015,-6.63753c2.83651,-1.33211 9.58143,0.50607 10.47635,3.02078c0.53588,1.50583 2.88552,5.09367 2.03381,6.73201c-0.71805,1.38122 -4.23748,0.10475 -5.99786,0.91273c-1.36168,0.62498 2.42822,4.26134 1.76417,5.43658c-0.41492,0.73433 -3.29021,2.18148 -3.90337,2.18796c-4.33023,0.04575 -5.54534,-7.34651 -5.54534,-7.34651z" fill="#e1fffa" stroke-width="0"/><path d="M231.5194,178.45306c0,0 -1.33864,-3.08806 0.45209,-4.30602c0.76047,-0.51723 -1.37356,-5.65426 0.72015,-6.63753c2.83651,-1.33211 9.58143,0.50607 10.47635,3.02078c0.53588,1.50583 2.88552,5.09367 2.03381,6.73201c-0.71805,1.38122 -4.23748,0.10475 -5.99786,0.91273c-1.36168,0.62498 2.42822,4.26134 1.76417,5.43658c-0.41492,0.73433 -3.29021,2.18148 -3.90337,2.18796c-4.33023,0.04575 -5.54534,-7.34651 -5.54534,-7.34651z" fill="#c6fff5" stroke-width="0"/><path d="M248.33958,194.98143c-0.61316,-0.00648 -3.48845,-1.45364 -3.90337,-2.18797c-0.66406,-1.17524 0.41329,-3.68136 1.76416,-5.43658c1.29125,-2.05123 2.96826,-4.20615 3.72873,-3.68892c1.79074,1.21796 3.95581,3.96695 3.95581,3.96695c0,0 -1.56049,0.83748 -4.05631,2.72683c-0.64084,0.48512 -0.60434,4.62903 -1.48903,4.61968z" data-paper-data="{&quot;index&quot;:null}" fill="#cbb600" stroke-width="0"/><path d="M248.33958,194.98143c-0.61316,-0.00648 -3.48845,-1.45364 -3.90337,-2.18797c-0.66406,-1.17524 0.41329,-3.68136 1.76416,-5.43658c1.29125,-2.05123 2.96826,-4.20615 3.72873,-3.68892c1.79074,1.21796 3.95581,3.96695 3.95581,3.96695c0,0 -1.56049,0.83748 -4.05631,2.72683c-0.64084,0.48512 -0.60434,4.62903 -1.48903,4.61968z" data-paper-data="{&quot;index&quot;:null}" fill="#c2fff5" stroke-width="0"/><path d="M252.59512,168.91377c2.49583,1.88935 0.32655,8.83009 0.32655,8.83009c0,0 -3.34166,-0.3833 -4.63292,-2.43453c-1.35088,-1.75522 -4.57567,-4.26133 -3.91161,-5.43658c0.41492,-0.73433 1.82091,-3.19869 2.43407,-3.20517c0.88469,-0.00935 5.14307,1.76107 5.78391,2.24619z" data-paper-data="{&quot;index&quot;:null}" fill="#e2db00" stroke-width="0"/><path d="M252.59512,168.91377c2.49583,1.88935 0.32655,8.83009 0.32655,8.83009c0,0 -3.34166,-0.3833 -4.63292,-2.43453c-1.35088,-1.75522 -4.57567,-4.26133 -3.91161,-5.43658c0.41492,-0.73433 1.82091,-3.19869 2.43407,-3.20517c0.88469,-0.00935 5.14307,1.76107 5.78391,2.24619z" data-paper-data="{&quot;index&quot;:null}" fill="#b6fff3" stroke-width="0"/></g></g></svg>