<svg version="1.1" xmlns="http://www.w3.org/2000/svg" xmlns:xlink="http://www.w3.org/1999/xlink" width="30.26937" height="31.02215" viewBox="0,0,30.26937,31.02215"><g transform="translate(-224.86532,-164.48892)"><g data-paper-data="{&quot;isPaintingLayer&quot;:true}" fill-rule="nonzero" stroke="none" stroke-width="0" stroke-linecap="butt" stroke-linejoin="miter" stroke-miterlimit="10" stroke-dasharray="" stroke-dashoffset="0" style="mix-blend-mode: normal"><path d="M224.91261,195.51108v-30.99926h30.22207v30.99926z" fill="#ded88d"/><path d="M224.86532,189.74758v-3.55917h7.05181v3.55917z" fill="#bfba7a"/><path d="M248.03557,189.63277v-3.55918h7.05181v3.55918z" fill="#bfba7a"/><path d="M234.49161,177.23306v-4.13323h11.30529v4.13323z" fill="#bfba7a"/><path d="M241.09569,195.25857v-2.29624h7.94728v2.29624z" fill="#bfba7a"/><path d="M240.20022,168.39254v-3.90361h11.97689v3.90361z" fill="#bfba7a"/><path d="M225.98466,171.14802v-3.7888h7.49954v3.7888z" fill="#faf4a0"/><path d="M236.50641,183.77736v-3.32955h8.73082v3.32955z" fill="#faf4a0"/><path d="M224.86532,171.37765v-4.01842h4.14154v4.01842z" fill="#faf4a0"/><path d="M248.59523,171.8369v-3.67399h6.49214v3.67399z" fill="#faf4a0"/><path d="M227.66366,195.37338v-3.44436h9.62629v3.44436z" fill="#faf4a0"/><path d="M230.23813,168.04809v-3.44436h6.49214v3.44436z" fill="#faf4a0"/></g></g></svg>