<svg version="1.1" xmlns="http://www.w3.org/2000/svg" xmlns:xlink="http://www.w3.org/1999/xlink" width="25.32748" height="25.32748" viewBox="0,0,25.32748,25.32748"><g transform="translate(-227.33626,-167.33626)"><g data-paper-data="{&quot;isPaintingLayer&quot;:true}" fill-rule="nonzero" stroke-linejoin="miter" stroke-miterlimit="10" stroke-dasharray="" stroke-dashoffset="0" style="mix-blend-mode: normal"><path d="M228.75048,173.90444l5.15396,-5.15396l17.34509,17.34509l-5.15397,5.15396z" fill="#ff0000" stroke="#000000" stroke-width="2" stroke-linecap="butt"/><path d="M246.09556,168.75048l5.15397,5.15396l-17.34509,17.34509l-5.15396,-5.15396z" data-paper-data="{&quot;index&quot;:null}" fill="#ff0000" stroke="#000000" stroke-width="2" stroke-linecap="butt"/><path d="M235.11667,177.0561c0,-1.38071 1.11929,-2.5 2.5,-2.5c0.3555,0 0.69368,0.0742 0.99988,0.20797c0.09411,-0.02654 0.19339,-0.04075 0.29599,-0.04075c0.30664,0 0.58365,0.12686 0.78142,0.33095c0.31298,0.19106 0.52191,0.53577 0.52191,0.9293c0,0.20315 -0.05568,0.3933 -0.1526,0.55601c0.03501,0.16667 0.05342,0.33944 0.05342,0.51652c0,1.38071 -1.11929,2.5 -2.5,2.5c-0.08194,0 -0.16297,-0.00394 -0.24289,-0.01165c0.01776,0.24641 -0.04694,0.4574 -0.23691,0.56595l0.00001,0.00001c-0.18926,0.32067 -0.53833,0.5358 -0.93764,0.5358c-0.53453,0 -0.97902,-0.38548 -1.07067,-0.89361c-0.78037,-0.81248 -1.36282,-1.83884 0.14888,-1.81249c-0.10392,-0.27484 -0.16079,-0.57279 -0.16079,-0.88402z" fill="#ff0000" stroke="none" stroke-width="0.5" stroke-linecap="butt"/><path d="M240.11667,182.9561c0,-1.38071 1.11929,-2.5 2.5,-2.5c0.03763,0 0.07507,0.00083 0.1123,0.00248l0.07038,-0.28151c1.16992,-0.66852 2.95278,-0.58958 2.69276,1.46617c-0.05173,0.409 -0.22643,0.59999 -0.45317,0.69187c0.05075,0.19855 0.07773,0.40662 0.07773,0.62099c0,1.38071 -1.11929,2.5 -2.5,2.5c-0.2824,0 -0.55385,-0.04682 -0.80704,-0.13312c-0.54127,0.31366 -1.01079,0.05585 -1.33334,-0.37646c-0.67364,-0.24 -1.04854,-1.09598 -0.35202,-1.7925l0.00005,-0.00089c-0.00507,-0.06501 -0.00765,-0.13072 -0.00765,-0.19703z" fill="#ff0000" stroke="none" stroke-width="0.5" stroke-linecap="butt"/><path d="M245.75491,181.23257l-1.11765,-1.17647" fill="none" stroke="#000000" stroke-width="1" stroke-linecap="round"/><path d="M239.93138,184.46786l1.23529,1.23529" fill="none" stroke="#000000" stroke-width="1" stroke-linecap="round"/><path d="M235.34314,180.23257l-1.47059,-1.82353" fill="none" stroke="#000000" stroke-width="1" stroke-linecap="round"/><path d="M238.69608,174.29139l1.11765,1.05882" fill="none" stroke="#000000" stroke-width="1" stroke-linecap="round"/></g></g></svg>