<svg version="1.1" xmlns="http://www.w3.org/2000/svg" xmlns:xlink="http://www.w3.org/1999/xlink" width="30.0232" height="30.61704" viewBox="0,0,30.0232,30.61704"><g transform="translate(-224.96972,-164.69148)"><g data-paper-data="{&quot;isPaintingLayer&quot;:true}" fill-rule="nonzero" stroke="none" stroke-linecap="butt" stroke-linejoin="miter" stroke-miterlimit="10" stroke-dasharray="" stroke-dashoffset="0" style="mix-blend-mode: normal"><path d="M224.99138,195.16059v-30h30.00001v30z" fill="#9a9a9a" stroke-width="0"/><path d="M224.96972,188.30657v-8.30769l4.46154,2.38461l3.10012,2.70139l-4.48475,0.83707z" fill="#7a7a7a" stroke-width="0"/><path d="M253.99293,185.76811l-2.02321,-2.14477l-1.10837,-2.3638l-0.37695,-2.29594l1.91513,-1.67226l1.13347,3.87427l1.45992,-0.93596v8.30769z" data-paper-data="{&quot;index&quot;:null}" fill="#7a7a7a" stroke-width="0"/><path d="M239.29023,195.15272l2.28456,-1.62717l1.80851,-2.42871l3.25695,-1.57513l5.56024,-1.83053c0,0 -1.97027,5.82137 -1.34719,5.40275c0.90806,-0.6101 1.88565,0.36648 1.88565,0.36648l0.38462,1.69231z" fill="#4d4d4d" stroke-width="0"/><path d="M245.66202,165.20108l-1.61539,1.69231l-0.0395,1.90495l5.80269,2.01996l-2.34654,12.65413c0,0 -9.34789,-6.5529 -10.35282,-8.47383c-0.41809,-0.79918 5.00084,-3.25305 5.00084,-3.25305l-2.75698,-2.69831l-0.69231,-3.84616z" data-paper-data="{&quot;index&quot;:null}" fill="#4d4d4d" stroke-width="0"/><path d="M235.66022,180.06779l-6.72315,1.26674c0,0 -1.54967,-4.1202 -1.68878,-4.29645c-0.59434,-0.75298 0.83136,-3.36067 0.83136,-3.36067l1.98442,2.54753c0,0 2.27416,0.81824 2.54877,0.94438c0.82644,0.37961 3.04739,2.89848 3.04739,2.89848z" data-paper-data="{&quot;index&quot;:null}" fill="#676767" stroke-width="0"/><path d="M225.04664,195.22964l0.07693,-2.92307l4.16989,-3.56258l2.20943,3.4056l2.72221,0.8599l2.82155,2.06631z" fill="#cccccc" stroke-width="0"/><path d="M253.18042,195.15272l-0.46736,-1.61935l-0.92313,-0.61543l-0.78391,0.0961l-0.73169,0.3013l0.54461,-1.52465l1.33137,-4.08613l2.8194,3.34783v4.10033z" fill="#cccccc" stroke-width="0"/><path d="M228.25688,166.67018l-3.27778,-1.55556h11.22222l-1.22222,2.11111l1.16753,2.22425l-5.52932,0.46409z" fill="#cccccc" stroke-width="0"/><path d="M242.38889,183.80511l-3.32994,-1.66806l0.77438,-4.55416l0.44445,-3.55556l8.01205,0.44344l-1.56761,3.11212l-3.55555,-0.11112l1.63288,3.04534l3.64846,0.89132l-1.72579,5.61889z" fill="#cccccc" stroke-width="0"/><path d="M254.90757,178.84713v3.55735l-4.30701,0.64094l-4.10476,2.85611l2.94118,-7.05441z" data-paper-data="{&quot;index&quot;:null}" fill="#f3e0c0" stroke-width="0"/><path d="M236.70923,185.6148l-11.66054,-3.44083l0.03231,-3.2233l3.48312,-0.41713l1.90568,1.50446l2.19413,-1.71807l0.87653,0.20677l3.56213,-7.67574l3.82628,-1.15714l1.57963,2.5609l2.60863,0.00958l-1.08741,5.12846l-4.99308,3.57226l0.52945,3.10477l0.01579,-0.01054l3.06913,0.11341l0.45728,2.39892l8.40509,3.32706l-5.90674,2.38439l-0.10206,0.04184l-6.9832,-4.87044l-0.07389,0.00183l-0.91038,-0.31545l-0.58379,-1.0856l-0.24408,-0.44041z" data-paper-data="{&quot;index&quot;:null}" fill="#c7b492" stroke-width="0.5"/><path d="M245.97472,183.16067l-1.37463,-2.25489l-2.478,-1.22815l6.9803,-2.3948l0.9977,-0.38939l1.5,1.5375l-0.07594,0.48434l-5.54942,4.24539z" data-paper-data="{&quot;index&quot;:null}" fill="#b4a384" stroke-width="0.5"/><path d="M231.7819,193.00225l-0.93475,2.26229l-2.68509,0.04398l1.40949,-7.51088l-1.35592,-1.33885l-0.75579,-3.49691l5.40727,0.57076l0.19288,0.81535l1.01848,-0.42694l1.02159,-0.4117l0.10581,0.00377l1.39369,1.49324l0.00051,0.04049l-0.18214,0.73495l-4.63604,7.22046z" data-paper-data="{&quot;index&quot;:null}" fill="#e0cfb2" stroke-width="0.5"/><path d="M228.01921,164.69148l2.68509,0.04398l0.93475,2.26229l0.01434,6.73757l-6.4443,0.4176l-0.10146,-5.38595z" data-paper-data="{&quot;index&quot;:null}" fill="#f3e0c0" stroke-width="0.5"/><path d="M254.9513,168.62054l-0.10146,5.38595l-3.81777,2.04651l-2.0551,2.07517l-4.25426,-2.08286l3.30069,-2.35345l1.25363,-4.20483l5.67428,-0.8665z" data-paper-data="{&quot;index&quot;:null}" fill="#c7b492" stroke-width="0.5"/></g></g></svg>