<svg version="1.1" xmlns="http://www.w3.org/2000/svg" xmlns:xlink="http://www.w3.org/1999/xlink" width="28.76024" height="29.94201" viewBox="0,0,28.76024,29.94201"><defs><linearGradient x1="225.90321" y1="180" x2="240.36345" y2="180" gradientUnits="userSpaceOnUse" id="color-1"><stop offset="0" stop-color="#2f2f2f"/><stop offset="1" stop-color="#566f75"/></linearGradient><radialGradient cx="233.13333" cy="180" r="7.41605" gradientUnits="userSpaceOnUse" id="color-2"><stop offset="0" stop-color="#f1e900" stop-opacity="0"/><stop offset="1" stop-color="#f1e900"/></radialGradient><linearGradient x1="240.20321" y1="180" x2="254.66345" y2="180" gradientUnits="userSpaceOnUse" id="color-3"><stop offset="0" stop-color="#566f75"/><stop offset="1" stop-color="#2f2f2f"/></linearGradient><radialGradient cx="247.43334" cy="180" r="7.41605" gradientUnits="userSpaceOnUse" id="color-4"><stop offset="0" stop-color="#f1e900" stop-opacity="0"/><stop offset="1" stop-color="#f1e900"/></radialGradient><linearGradient x1="249.51765" y1="170.89572" x2="249.51765" y2="183.43114" gradientUnits="userSpaceOnUse" id="color-5"><stop offset="0" stop-color="#74eaff"/><stop offset="1" stop-color="#d2dee4"/></linearGradient><linearGradient x1="234.29543" y1="189.00683" x2="234.29543" y2="201.54225" gradientUnits="userSpaceOnUse" id="color-6"><stop offset="0" stop-color="#74eaff"/><stop offset="1" stop-color="#d2dee4"/></linearGradient><linearGradient x1="234.29543" y1="159.31933" x2="234.29543" y2="171.85476" gradientUnits="userSpaceOnUse" id="color-7"><stop offset="0" stop-color="#74eaff"/><stop offset="1" stop-color="#d2dee4"/></linearGradient></defs><g transform="translate(-225.90321,-165.00474)"><g data-paper-data="{&quot;isPaintingLayer&quot;:true}" fill-rule="nonzero" stroke-linejoin="miter" stroke-miterlimit="10" stroke-dasharray="" stroke-dashoffset="0" style="mix-blend-mode: normal"><path d="M225.90321,194.84838v-29.69676h14.46024v29.69676z" data-paper-data="{&quot;index&quot;:null}" fill="url(#color-1)" stroke="url(#color-2)" stroke-width="0" stroke-linecap="butt"/><path d="M240.20321,194.84838v-29.69676h14.46024v29.69676z" fill="url(#color-3)" stroke="url(#color-4)" stroke-width="0" stroke-linecap="butt"/><path d="M228.8161,166.53006v27.125" fill="none" stroke="#004359" stroke-width="2.5" stroke-linecap="round"/><path d="M227.57027,194.82499v-2.4h2.46667v2.4z" fill="#004359" stroke="none" stroke-width="0" stroke-linecap="butt"/><path d="M227.57027,167.89165v-2.4h2.46667v2.4z" fill="#004359" stroke="none" stroke-width="0" stroke-linecap="butt"/><g><path d="M234.4125,193.63008v-27.125" fill="none" stroke="#004359" stroke-width="2.5" stroke-linecap="round"/><path d="M233.16667,194.8v-2.4h2.46667v2.4z" fill="#005874" stroke="none" stroke-width="0" stroke-linecap="butt"/><path d="M233.16667,167.86667v-2.4h2.46667v2.4z" fill="#004359" stroke="none" stroke-width="0" stroke-linecap="butt"/></g><g><path d="M240.27917,166.57174v27.125" fill="none" stroke="#004359" stroke-width="2.5" stroke-linecap="round"/><path d="M239.03333,194.86667v-2.4h2.46666v2.4z" fill="#004359" stroke="none" stroke-width="0" stroke-linecap="butt"/><path d="M239.03333,167.93333v-2.4h2.46666v2.4z" fill="#004359" stroke="none" stroke-width="0" stroke-linecap="butt"/></g><g><path d="M246.34584,166.57174v27.125" fill="none" stroke="#004359" stroke-width="2.5" stroke-linecap="round"/><path d="M245.1,194.86667v-2.4h2.46666v2.4z" fill="#004359" stroke="none" stroke-width="0" stroke-linecap="butt"/><path d="M245.1,167.93333v-2.4h2.46666v2.4z" fill="#004359" stroke="none" stroke-width="0" stroke-linecap="butt"/></g><g><path d="M252.34584,166.57175v27.125" fill="none" stroke="#004359" stroke-width="2.5" stroke-linecap="round"/><path d="M251.1,194.86667v-2.4h2.46666v2.4z" fill="#004359" stroke="none" stroke-width="0" stroke-linecap="butt"/><path d="M251.1,167.93334v-2.4h2.46666v2.4z" fill="#004359" stroke="none" stroke-width="0" stroke-linecap="butt"/></g><path d="M245.45743,172.45127c0,0 1.16526,0.49071 2.16447,0.2993c0.28025,-0.05369 1.54109,-0.01382 1.96067,-0.0942c0.69825,-0.13376 1.52839,-1.29278 2.28728,-1.43815c1.22456,-0.23458 1.70803,-0.3225 1.70803,-0.3225c0,0 -1.45337,4.34253 -1.94593,5.00358c-0.6091,0.81743 -1.28295,8.50123 -1.35877,7.42955c-0.07477,-1.05685 -1.75573,-1.96664 -1.65369,-3.08227c-1.44487,-1.33464 -1.05097,-3.01753 -1.05097,-3.01753z" fill="url(#color-5)" stroke="none" stroke-width="0" stroke-linecap="butt"/><path d="M232.59023,194.69223c-0.49256,-0.66105 -2.46614,-3.35207 -2.46614,-3.35207c0,0 0.7057,-1.68985 1.93025,-1.45528c0.75889,0.14538 1.47792,0.74884 2.17617,0.8826c0.41958,0.08038 1.56931,-1.29282 1.84956,-1.23913c0.99921,0.19141 3.16447,-1.41041 3.16447,-1.41041c0,0 -0.29872,1.43023 -0.52296,2.17023c-0.20706,0.6833 -1.16799,4.44823 -1.16799,4.44823c0,0 -4.66629,0.35452 -4.96337,-0.04417z" data-paper-data="{&quot;index&quot;:null}" fill="url(#color-6)" stroke="none" stroke-width="0" stroke-linecap="butt"/><path d="M237.67292,165.0489c0,0 -0.3963,1.16202 -1.89216,1.99186c-0.17321,0.5105 -0.31254,1.55678 -0.55857,2.23004c-0.3301,0.9033 -0.75227,1.38517 -0.75227,1.38517c0,0 -0.12031,-2.01877 -0.73899,-2.79238c-1.27595,-1.59549 -2.04979,-2.85885 -2.04979,-2.85885z" data-paper-data="{&quot;index&quot;:null}" fill="url(#color-7)" stroke="none" stroke-width="0" stroke-linecap="butt"/></g></g></svg>