<svg version="1.1" xmlns="http://www.w3.org/2000/svg" xmlns:xlink="http://www.w3.org/1999/xlink" width="29.53896" height="30.43576" viewBox="0,0,29.53896,30.43576"><g transform="translate(-225.15436,-164.85138)"><g data-paper-data="{&quot;isPaintingLayer&quot;:true}" fill-rule="nonzero" stroke-linejoin="miter" stroke-miterlimit="10" stroke-dasharray="" stroke-dashoffset="0" style="mix-blend-mode: normal"><path d="M225.30668,194.87864v-29.75725h29.38664v29.75725z" fill="#404646" stroke="none" stroke-width="3" stroke-linecap="butt"/><path d="M236.09954,192.12097h-5.99371" fill="none" stroke="#00ffff" stroke-width="0.5" stroke-linecap="round"/><path d="M235.46863,191.17459h-4.10096" fill="none" stroke="#00ffff" stroke-width="0.5" stroke-linecap="round"/><path d="M238.00756,189.40712c0,-2.28916 0,-9.13541 0,-10.53631c0,-0.47334 0.44493,-0.91022 0.86802,-0.91022c0.63919,0 1.39035,0 1.76657,0c0.3456,0 0.80492,0.47125 0.80492,0.97332c0,1.39377 0,8.02562 0,10.47322c0,0.56764 -0.37991,0.91022 -0.86802,0.91022c-0.69305,0 -1.47806,0 -1.82966,0c-0.27979,0 -0.74184,-0.45653 -0.74184,-0.91022z" fill="#5a5a5a" stroke="none" stroke-width="0" stroke-linecap="butt"/><path d="M235.50635,172.61144c0,-1.38071 1.11929,-2.5 2.5,-2.5c1.38071,0 2.5,1.11929 2.5,2.5c0,1.38071 -1.11929,2.5 -2.5,2.5c-1.38071,0 -2.5,-1.11929 -2.5,-2.5z" fill="#7d7d7d" stroke="none" stroke-width="0.5" stroke-linecap="butt"/><path d="M225.15437,185.22298c0,-0.75 0.75,-0.75 0.75,-0.75h0.12739c1.86434,0.00576 5.07074,-0.01668 6.58619,1.18587c2.04633,1.62382 1.17022,6.15528 1.17022,8.48139c0,0 0,0.75 -0.75,0.75c-0.75,0 -0.75,-0.75 -0.75,-0.75c0,-1.67417 0.82423,-6.1471 -0.61324,-7.31489c-1.15893,-0.94151 -4.21905,-0.85755 -5.64318,-0.85237h-0.12739c0,0 -0.75,0 -0.75,-0.75z" fill="#ff0000" stroke="none" stroke-width="0.5" stroke-linecap="butt"/><path d="M238.62896,172.48405c0,0.75 -0.75,0.75 -0.75,0.75h-0.25478c-5.03198,0 -6.07868,-3.14839 -5.32581,-7.75232c0,0 0.1233,-0.73979 0.86309,-0.61649c0.73979,0.1233 0.6165,0.86309 0.6165,0.86309c-0.647,3.79799 -0.20004,6.00572 3.84622,6.00572h0.25478c0,0 0.75,0 0.75,0.75z" fill="#ff0000" stroke="none" stroke-width="0.5" stroke-linecap="butt"/><path d="M244.45542,188.18475c0,-1.38071 1.11929,-2.5 2.5,-2.5c1.38071,0 2.5,1.11929 2.5,2.5c0,1.38071 -1.11929,2.5 -2.5,2.5c-1.38071,0 -2.5,-1.11929 -2.5,-2.5z" fill="#7d7d7d" stroke="none" stroke-width="0.5" stroke-linecap="butt"/><path d="M246.9236,189.03032c-0.75,0 -0.75,-0.75 -0.75,-0.75l0.03849,-0.74673c1.12195,-3.2314 4.80244,-2.55105 7.59053,-2.55105c0,0 0.75,0 0.75,0.75c0,0.75 -0.75,0.75 -0.75,0.75c-1.92163,0 -5.45077,-0.7555 -6.16751,1.5254l0.03849,0.27239c0,0 0,0.75 -0.75,0.75z" fill="#ff0000" stroke="none" stroke-width="0.5" stroke-linecap="butt"/><path d="M240.75609,179.72763c-0.23717,0.71151 -0.94869,0.47434 -0.94869,0.47434l-0.14499,-0.0889c-1.2251,-0.01342 -1.78127,-0.23019 -2.66581,-1.08288c-0.71968,-0.59529 -4.05099,-1.62786 -4.71284,-0.43409c-0.67319,1.21422 0.47923,2.47679 -1.41774,3.25814c-1.19308,0.49142 -3.53554,0.04228 -4.83427,0.04228c0,0 -0.75,0 -0.75,-0.75c0,-0.75 0.75,-0.75 0.75,-0.75c1.29121,0 3.09991,0.33917 4.33776,0.04228c0.74632,-0.17899 0.32176,-2.1172 0.6205,-2.60178c1.32345,-2.14675 5.46952,-1.12793 7.00697,0.07547c0.62724,0.65884 0.77473,0.71396 1.66542,0.70057l0.61934,0.16587c0,0 0.71151,0.23718 0.47434,0.94869z" fill="#00ff08" stroke="none" stroke-width="0.5" stroke-linecap="butt"/><path d="M246.39808,183.121c0,-1.38071 1.11929,-2.5 2.5,-2.5c1.38071,0 2.5,1.11929 2.5,2.5c0,1.38071 -1.11929,2.5 -2.5,2.5c-1.38071,0 -2.5,-1.11929 -2.5,-2.5z" fill="#7d7d7d" stroke="none" stroke-width="0.5" stroke-linecap="butt"/><path d="M248.21183,183.18475c0,-0.75 0.75,-0.75 0.75,-0.75l0.17415,0.07918c0.58151,-0.27268 0.71314,-1.07252 1.1334,-1.5582c0.87754,-1.01416 2.49067,-0.81398 3.66064,-0.81398c0,0 0.75,0 0.75,0.75c0,0.75 -0.75,0.75 -0.75,0.75c-0.38089,0 -2.1998,-0.22307 -2.45405,0.20514c-0.55778,0.9394 -0.50013,1.39883 -1.66916,2.00869l-0.84497,0.07917c0,0 -0.75,0 -0.75,-0.75z" fill="#00ff08" stroke="none" stroke-width="0.5" stroke-linecap="butt"/><path d="M242.79936,172.64326c0,-1.38071 1.11929,-2.5 2.5,-2.5c1.38071,0 2.5,1.11929 2.5,2.5c0,1.38071 -1.11929,2.5 -2.5,2.5c-1.38071,0 -2.5,-1.11929 -2.5,-2.5z" fill="#7d7d7d" stroke="none" stroke-width="0.5" stroke-linecap="butt"/><path d="M244.51754,172.73883c0,-0.75 0.75,-0.75 0.75,-0.75h0.50956c2.83709,0.04265 2.82156,-4.18822 2.8169,-6.25641c0,0 0,-0.75 0.75,-0.75c0.75,0 0.75,0.75 0.75,0.75c-0.00617,3.08617 -0.34341,7.7129 -4.3169,7.75641h-0.50956c0,0 -0.75,0 -0.75,-0.75z" fill="#00ff08" stroke="none" stroke-width="0.5" stroke-linecap="butt"/><path d="M239.7898,188.16727c0.75,0 0.75,0.75 0.75,0.75l-0.01021,0.37807c-0.69181,4.06108 5.59861,2.09849 7.84021,2.71366c1.19325,0.32747 1.64309,1.16637 2.15456,2.17798c0,0 0.33541,0.67083 -0.33541,1.00624c-0.67082,0.33541 -1.00623,-0.33542 -1.00623,-0.33542c-1.8496,-3.74951 -11.29332,1.28809 -10.13272,-5.80906l-0.0102,-0.13148c0,0 0,-0.75 0.75,-0.75z" fill="#00ff08" stroke="none" stroke-width="0.5" stroke-linecap="butt"/><path d="M246.06803,177.73516h-2.96531" fill="none" stroke="#00ffff" stroke-width="0.5" stroke-linecap="round"/><path d="M243.03963,178.87081h2.96531" fill="none" stroke="#00ffff" stroke-width="0.5" stroke-linecap="round"/><path d="M248.27623,179.94337h-3.65931" fill="none" stroke="#00ffff" stroke-width="0.5" stroke-linecap="round"/><path d="M247.32986,179.12318v-2.39748" fill="none" stroke="#00ffff" stroke-width="0.5" stroke-linecap="round"/><path d="M248.08696,179.18627v-4.85806" fill="none" stroke="#00ffff" stroke-width="0.5" stroke-linecap="round"/><path d="M250.67371,174.51748h-1.70347" fill="none" stroke="#00ffff" stroke-width="0.5" stroke-linecap="round"/><path d="M251.74627,175.33768h-2.77603" fill="none" stroke="#00ffff" stroke-width="0.5" stroke-linecap="round"/><path d="M228.71782,173.31874v2.46058" fill="none" stroke="#00ffff" stroke-width="0.5" stroke-linecap="round"/><path d="M229.47492,173.25565v4.10095" fill="none" stroke="#00ffff" stroke-width="0.5" stroke-linecap="round"/><path d="M230.54748,176.03168h2.77603" fill="none" stroke="#00ffff" stroke-width="0.5" stroke-linecap="round"/><path d="M234.77462,175.27458h-2.83913" fill="none" stroke="#00ffff" stroke-width="0.5" stroke-linecap="round"/><path d="M235.21626,190.3544v-2.71294" fill="none" stroke="#00ffff" stroke-width="0.5" stroke-linecap="round"/><path d="M236.16263,191.30078v-3.59623" fill="none" stroke="#00ffff" stroke-width="0.5" stroke-linecap="round"/><path d="M236.85664,192.24716v-1.76657" fill="none" stroke="#00ffff" stroke-width="0.5" stroke-linecap="round"/><path d="M230.42129,191.23769h-2.01893" fill="none" stroke="#00ffff" stroke-width="0.5" stroke-linecap="round"/><path d="M227.58217,191.30078v-4.10095" fill="none" stroke="#00ffff" stroke-width="0.5" stroke-linecap="round"/><path d="M228.97018,192.31024h-2.01893" fill="none" stroke="#00ffff" stroke-width="0.5" stroke-linecap="round"/><path d="M226.63579,191.74242v-2.83912" fill="none" stroke="#00ffff" stroke-width="0.5" stroke-linecap="round"/><path d="M236.03645,193.06734v1.45111" fill="none" stroke="#00ffff" stroke-width="0.5" stroke-linecap="round"/><path d="M236.91973,194.77082v-1.5142" fill="none" stroke="#00ffff" stroke-width="0.5" stroke-linecap="round"/><path d="M236.69679,167.73669v-0.63091v-1.82966" fill="none" stroke="#00ffff" stroke-width="0.5" stroke-linecap="round"/><path d="M235.93969,165.4023v2.33439" fill="none" stroke="#00ffff" stroke-width="0.5" stroke-linecap="round"/><path d="M239.03118,168.49379h-3.0284" fill="none" stroke="#00ffff" stroke-width="0.5" stroke-linecap="round"/><path d="M240.04065,167.79979h-2.52367" fill="none" stroke="#00ffff" stroke-width="0.5" stroke-linecap="round"/><path d="M225.30668,194.87863v-29.75725h29.38664v29.75725z" fill-opacity="0.57647" fill="#000000" stroke="none" stroke-width="3" stroke-linecap="butt"/></g></g></svg>