<svg version="1.1" xmlns="http://www.w3.org/2000/svg" xmlns:xlink="http://www.w3.org/1999/xlink" width="28.76024" height="29.79512" viewBox="0,0,28.76024,29.79512"><defs><linearGradient x1="240.36346" y1="180" x2="225.90321" y2="180" gradientUnits="userSpaceOnUse" id="color-1"><stop offset="0" stop-color="#fff500"/><stop offset="1" stop-color="#af9e00"/></linearGradient><radialGradient cx="233.13333" cy="180" r="7.41605" gradientUnits="userSpaceOnUse" id="color-2"><stop offset="0" stop-color="#f1e900" stop-opacity="0"/><stop offset="1" stop-color="#f1e900"/></radialGradient><linearGradient x1="240.20321" y1="180" x2="254.66346" y2="180" gradientUnits="userSpaceOnUse" id="color-3"><stop offset="0" stop-color="#fff500"/><stop offset="1" stop-color="#af9e00"/></linearGradient><radialGradient cx="247.43334" cy="180" r="7.41605" gradientUnits="userSpaceOnUse" id="color-4"><stop offset="0" stop-color="#f1e900" stop-opacity="0"/><stop offset="1" stop-color="#f1e900"/></radialGradient></defs><g transform="translate(-225.90321,-165.15162)"><g data-paper-data="{&quot;isPaintingLayer&quot;:true}" fill-rule="nonzero" stroke-linejoin="miter" stroke-miterlimit="10" stroke-dasharray="" stroke-dashoffset="0" style="mix-blend-mode: normal"><path d="M225.90321,194.84838v-29.69676h14.46024v29.69676z" data-paper-data="{&quot;index&quot;:null}" fill="url(#color-1)" stroke="url(#color-2)" stroke-width="0" stroke-linecap="butt"/><path d="M240.20321,194.84838v-29.69676h14.46024v29.69676z" fill="url(#color-3)" stroke="url(#color-4)" stroke-width="0" stroke-linecap="butt"/><path d="M228.8161,166.53006v27.125" fill="none" stroke="#b09e00" stroke-width="2.5" stroke-linecap="round"/><path d="M227.57027,194.82499v-2.4h2.46667v2.4z" fill="#b09e00" stroke="none" stroke-width="0" stroke-linecap="butt"/><path d="M227.57027,167.89165v-2.4h2.46667v2.4z" fill="#b09e00" stroke="none" stroke-width="0" stroke-linecap="butt"/><g><path d="M234.4125,166.50508v27.125" fill="none" stroke="#b09e00" stroke-width="2.5" stroke-linecap="round"/><path d="M233.16667,194.8v-2.4h2.46667v2.4z" fill="#b09e00" stroke="none" stroke-width="0" stroke-linecap="butt"/><path d="M233.16667,167.86667v-2.4h2.46667v2.4z" fill="#b09e00" stroke="none" stroke-width="0" stroke-linecap="butt"/></g><g><path d="M240.27917,166.57174v27.125" fill="none" stroke="#b09e00" stroke-width="2.5" stroke-linecap="round"/><path d="M239.03333,194.86667v-2.4h2.46666v2.4z" fill="#b09e00" stroke="none" stroke-width="0" stroke-linecap="butt"/><path d="M239.03333,167.93333v-2.4h2.46666v2.4z" fill="#b09e00" stroke="none" stroke-width="0" stroke-linecap="butt"/></g><g><path d="M246.34584,166.57174v27.125" fill="none" stroke="#b09e00" stroke-width="2.5" stroke-linecap="round"/><path d="M245.1,194.86667v-2.4h2.46666v2.4z" fill="#b09e00" stroke="none" stroke-width="0" stroke-linecap="butt"/><path d="M245.1,167.93333v-2.4h2.46666v2.4z" fill="#b09e00" stroke="none" stroke-width="0" stroke-linecap="butt"/></g><g><path d="M252.34584,166.57175v27.125" fill="none" stroke="#b09e00" stroke-width="2.5" stroke-linecap="round"/><path d="M251.1,194.86667v-2.4h2.46666v2.4z" fill="#b09e00" stroke="none" stroke-width="0" stroke-linecap="butt"/><path d="M251.1,167.93334v-2.4h2.46666v2.4z" fill="#b09e00" stroke="none" stroke-width="0" stroke-linecap="butt"/></g></g></g></svg>