<svg version="1.1" xmlns="http://www.w3.org/2000/svg" xmlns:xlink="http://www.w3.org/1999/xlink" width="30.0232" height="30.11502" viewBox="0,0,30.0232,30.11502"><g transform="translate(-224.96972,-165.11462)"><g data-paper-data="{&quot;isPaintingLayer&quot;:true}" fill-rule="nonzero" stroke="none" stroke-width="0" stroke-linecap="butt" stroke-linejoin="miter" stroke-miterlimit="10" stroke-dasharray="" stroke-dashoffset="0" style="mix-blend-mode: normal"><path d="M224.99138,195.16059v-30h30.00001v30z" fill="#9a9a9a"/><path d="M224.96972,188.30657v-8.30769l4.46154,2.38461l3.10012,2.70139l-4.48475,0.83707z" fill="#7a7a7a"/><path d="M253.99293,185.76811l-2.02321,-2.14477l-1.10837,-2.3638l-0.37695,-2.29594l1.91513,-1.67226l1.13347,3.87427l1.45992,-0.93596v8.30769z" data-paper-data="{&quot;index&quot;:null}" fill="#7a7a7a"/><path d="M239.29023,195.15272l2.28456,-1.62717l1.80851,-2.42871l3.25695,-1.57513l5.56024,-1.83053c0,0 -1.97027,5.82137 -1.34719,5.40275c0.90806,-0.6101 1.88565,0.36648 1.88565,0.36648l0.38462,1.69231z" fill="#4d4d4d"/><path d="M245.66202,165.20108l-1.61539,1.69231l-0.0395,1.90495l5.80269,2.01996l-2.34654,12.65413c0,0 -9.34789,-6.5529 -10.35282,-8.47383c-0.41809,-0.79918 5.00084,-3.25305 5.00084,-3.25305l-2.75698,-2.69831l-0.69231,-3.84616z" data-paper-data="{&quot;index&quot;:null}" fill="#4d4d4d"/><path d="M235.66022,180.06779l-6.72315,1.26674c0,0 -1.54967,-4.1202 -1.68878,-4.29645c-0.59434,-0.75298 0.83136,-3.36067 0.83136,-3.36067l1.98442,2.54753c0,0 2.27416,0.81824 2.54877,0.94438c0.82644,0.37961 3.04739,2.89848 3.04739,2.89848z" data-paper-data="{&quot;index&quot;:null}" fill="#676767"/><path d="M225.04664,195.22964l0.07693,-2.92307l4.16989,-3.56258l2.20943,3.4056l2.72221,0.8599l2.82155,2.06631z" fill="#cccccc"/><path d="M253.18042,195.15272l-0.46736,-1.61935l-0.92313,-0.61543l-0.78391,0.0961l-0.73169,0.3013l0.54461,-1.52465l1.33137,-4.08613l2.8194,3.34783v4.10033z" fill="#cccccc"/><path d="M228.25688,166.67018l-3.27778,-1.55556h11.22222l-1.22222,2.11111l1.16753,2.22425l-5.52932,0.46409z" fill="#cccccc"/><path d="M242.38889,183.80511l-3.32994,-1.66806l0.77438,-4.55416l0.44445,-3.55556l8.01205,0.44344l-1.56761,3.11212l-3.55555,-0.11112l1.63288,3.04534l3.64846,0.89132l-1.72579,5.61889z" fill="#cccccc"/></g></g></svg>