<svg version="1.1" xmlns="http://www.w3.org/2000/svg" xmlns:xlink="http://www.w3.org/1999/xlink" width="30.08906" height="30.4009" viewBox="0,0,30.08906,30.4009"><g transform="translate(-224.95906,-164.80384)"><g data-paper-data="{&quot;isPaintingLayer&quot;:true}" fill-rule="nonzero" stroke="none" stroke-width="0" stroke-linecap="butt" stroke-linejoin="miter" stroke-miterlimit="10" stroke-dasharray="" stroke-dashoffset="0" style="mix-blend-mode: normal"><path d="M224.99137,195.16058v-30c0,0 3.34998,0.45454 5.13637,0.45454c0.50726,0 3.91451,-0.64149 4.7248,-0.65066c0.72331,-0.00818 4.33794,0.98757 5.18389,0.98654c0.69083,-0.00085 4.38821,-0.55442 5.08438,-0.56836c1.12403,-0.02253 4.97304,0.50155 5.90922,0.48158c4.46746,-0.09527 3.96135,-0.70364 3.96135,-0.70364v30z" fill="#623e00"/><path d="M225,172.29545c0,-3.10408 0,-7.29545 0,-7.29545c0,0 3.33983,0.45455 5.1208,0.45455c0.50572,0 3.90265,-0.64149 4.71049,-0.65066c0.72112,-0.00818 4.32481,0.98758 5.1682,0.98654c0.68874,-0.00085 4.37492,-0.55441 5.06897,-0.56836c1.12064,-0.02253 4.95798,0.50154 5.89132,0.48158c4.45393,-0.09527 3.94935,-0.70364 3.94935,-0.70364c0,0 0,4.70763 0,7.47727c0,2.05137 -2.32397,-2.19786 -5.38273,-2.01447c-1.17123,0.07022 -1.4447,4.26334 -3.21998,4.02403c-0.63462,-0.08555 -1.80228,-2.7594 -3.11486,-3.40692c-0.75633,-0.37311 -3.97815,0.14106 -4.37701,0.09333c-0.93693,-0.11214 -3.40346,2.30059 -4.30286,2.14909c-1.07252,-0.18065 -3.34725,-0.47053 -4.25346,-0.68261c-2.5225,-0.59035 -5.25825,0.94119 -5.25825,-0.34427z" fill="#7d7272"/><path d="M225.12433,191.21324c0.45721,-1.13473 5.09322,-2.67807 4.89274,-3.55056c-0.12692,-0.55235 -0.67328,-1.62553 -0.08759,-2.24958c0.14513,-0.15463 0.89303,0.38617 1.53961,0.26345c0.48158,-0.0914 0.87912,-0.80134 1.07834,-1.10147c1.03908,-1.5654 2.90742,-2.67534 3.75137,-1.78698c0.40568,0.42703 -1.64445,4.49047 -1.05846,5.11181c0.69853,0.74065 2.79775,0.68857 2.4815,1.46077c-0.08362,0.20417 4.09546,5.52814 2.77449,5.77861c-0.95294,0.18069 -1.89779,-0.0711 -2.86975,-0.06134c-1.10388,0.01108 -3.53856,-3.71005 -3.89028,-3.3353c-0.75042,0.79956 -5.52986,1.83633 -6.12882,1.54619c-0.28661,-0.13883 -2.53142,0.78339 -2.57145,0.25956c-0.03618,-0.47352 0.13837,-0.96617 0.11084,-1.24848c-0.03719,-0.38142 -0.24906,-0.52451 -0.02254,-1.08669z" fill="#825200"/><path d="M246.10417,186.31628c-0.71965,-0.88481 -2.98999,-0.02889 -3.43044,-1.26733c-0.33968,-0.95511 2.24767,-1.92578 2.67822,-3.39597c0.46776,-1.59728 -2.42441,-3.02732 -1.66445,-3.9617c0.86865,-1.06802 3.77239,-0.52747 4.9851,-0.87447c2.09105,-0.59833 2.52408,-2.61903 3.80657,-1.0422c0.473,0.58156 2.10907,4.31152 2.39284,5.12604c0.15244,0.43757 0.23747,1.16519 0.09704,1.65174c-0.11514,0.39893 0.39822,1.35082 -0.27872,1.39325c-1.07433,0.06734 -3.60635,-0.8904 -3.50963,-0.39013c0.22237,1.15019 0.27245,4.24904 -0.6182,5.3441c-0.69498,0.85448 -0.457,-1.44764 -0.85908,-2.40151c-0.34433,-0.81689 -1.3136,-0.24507 -1.99634,-0.3394c-1.24333,-0.17177 -0.74567,1.21157 -1.60291,0.15758z" fill="#4e3200"/><path d="M224.97059,183.48785c-0.05271,-1.54738 0.0874,-1.44849 0.17647,-2.76471c0.03636,-0.53732 0.23351,0.42931 1.08136,0.5635c0.52551,0.08317 2.58183,-1.37115 2.91864,-1.09291c0.3515,0.29037 1.27933,1.70156 1.50594,2.2556c0.24625,0.60204 -1.12213,0.88088 -1.56225,1.26874c-0.1691,0.14902 -1.15539,0.30678 -1.29663,0.47566c-0.84716,1.01291 -2.78483,0.43002 -2.82353,-0.70588z" fill="#4e3200"/><path d="M253.14706,193.6055c-0.04903,-0.0696 -1.46303,0.10263 -1.8984,-0.33653c-0.69921,-0.70529 -0.54644,-2.15141 -0.72346,-2.4278c-0.63411,-0.9901 0.56782,-0.5992 0.9748,-1.17685c0.33017,-0.46863 1.23174,0.98294 2.04291,1.42979c0.64162,0.35345 1.41113,-0.42543 1.42768,-0.07685c0.02731,0.57532 0.01793,2.23554 0,2.58824c-0.05974,1.17512 -1.41365,0.58177 -1.82353,0z" fill="#825200"/></g></g></svg>