<svg version="1.1" xmlns="http://www.w3.org/2000/svg" xmlns:xlink="http://www.w3.org/1999/xlink" width="30.26936" height="31.02214" viewBox="0,0,30.26936,31.02214"><defs><linearGradient x1="233.43069" y1="176.81269" x2="233.43069" y2="193.31309" gradientUnits="userSpaceOnUse" id="color-1"><stop offset="0" stop-color="#fff500"/><stop offset="1" stop-color="#e2db00"/></linearGradient><linearGradient x1="231.03875" y1="176.43145" x2="245.3859" y2="176.43145" gradientUnits="userSpaceOnUse" id="color-2"><stop offset="0" stop-color="#d5c000"/><stop offset="1" stop-color="#fff500"/></linearGradient></defs><g transform="translate(-224.86532,-164.48894)"><g data-paper-data="{&quot;isPaintingLayer&quot;:true}" fill-rule="nonzero" stroke="none" stroke-width="0" stroke-linecap="butt" stroke-linejoin="miter" stroke-miterlimit="10" stroke-dasharray="" stroke-dashoffset="0" style="mix-blend-mode: normal"><path d="M224.91261,195.51109v-30.99926h30.22207v30.99926z" fill="#ded88d"/><path d="M224.91261,195.51109v-30.99926h30.22207v30.99926z" fill="#ded88d"/><path d="M224.86532,189.7476v-3.55917h7.05181v3.55917z" fill="#bfba7a"/><path d="M248.03557,189.63278v-3.55918h7.05181v3.55918z" fill="#bfba7a"/><path d="M234.49161,177.23308v-4.13323h11.30529v4.13323z" fill="#bfba7a"/><path d="M241.09569,195.25858v-2.29624h7.94728v2.29624z" fill="#bfba7a"/><path d="M240.20022,168.39256v-3.90361h11.97689v3.90361z" fill="#bfba7a"/><path d="M225.98466,171.14804v-3.7888h7.49954v3.7888z" fill="#faf4a0"/><path d="M236.50641,183.77737v-3.32955h8.73082v3.32955z" fill="#faf4a0"/><path d="M224.86532,171.37766v-4.01842h4.14154v4.01842z" fill="#faf4a0"/><path d="M248.59523,171.83692v-3.67399h6.49214v3.67399z" fill="#faf4a0"/><path d="M227.66366,195.3734v-3.44436h9.62629v3.44436z" fill="#faf4a0"/><path d="M230.23813,168.04811v-3.44436h6.49214v3.44436z" fill="#faf4a0"/><path d="M239.45743,184.14494c2.49583,1.88935 0.32655,8.83009 0.32655,8.83009c0,0 -1.93903,-3.58032 -3.72977,-2.36235c-0.76047,0.51723 -7.07143,4.1265 -8.36268,2.07527c-1.35088,-1.75522 -1.86311,-9.68645 -1.19905,-10.8617c0.41492,-0.73433 1.14277,-5.00707 1.75593,-5.01355c0.61316,-0.00648 10.56818,6.84712 11.20902,7.33224z" data-paper-data="{&quot;index&quot;:null}" fill="url(#color-1)"/><path d="M231.51939,178.45306c0,0 -1.33864,-3.08806 0.45209,-4.30602c0.76047,-0.51723 -1.37356,-5.65426 0.72015,-6.63753c2.83651,-1.33211 9.58143,0.50607 10.47635,3.02078c0.53588,1.50583 2.88552,5.09367 2.03381,6.73201c-0.71805,1.38122 -4.23748,0.10475 -5.99786,0.91273c-1.36168,0.62498 2.42822,4.26134 1.76417,5.43658c-0.41492,0.73433 -3.29021,2.18148 -3.90337,2.18796c-4.33023,0.04575 -5.54534,-7.34651 -5.54534,-7.34651z" fill="url(#color-2)"/><path d="M248.33956,194.98143c-0.61316,-0.00648 -3.48845,-1.45364 -3.90337,-2.18797c-0.66406,-1.17524 0.41329,-3.68136 1.76416,-5.43658c1.29125,-2.05123 2.96826,-4.20615 3.72873,-3.68892c1.79074,1.21796 3.95581,3.96695 3.95581,3.96695c0,0 -1.56049,0.83748 -4.05631,2.72683c-0.64084,0.48512 -0.60434,4.62903 -1.48903,4.61968z" data-paper-data="{&quot;index&quot;:null}" fill="#cbb600"/><path d="M252.5951,168.91377c2.49583,1.88935 0.32655,8.83009 0.32655,8.83009c0,0 -3.34166,-0.3833 -4.63292,-2.43453c-1.35088,-1.75522 -4.57567,-4.26133 -3.91161,-5.43658c0.41492,-0.73433 1.82091,-3.19869 2.43407,-3.20517c0.88469,-0.00935 5.14307,1.76107 5.78391,2.24619z" data-paper-data="{&quot;index&quot;:null}" fill="#e2db00"/><path d="M252.5951,168.91377c2.49583,1.88935 0.32655,8.83009 0.32655,8.83009c0,0 -3.34166,-0.3833 -4.63292,-2.43453c-1.35088,-1.75522 -4.57567,-4.26133 -3.91161,-5.43658c0.41492,-0.73433 1.82091,-3.19869 2.43407,-3.20517c0.88469,-0.00935 5.14307,1.76107 5.78391,2.24619z" data-paper-data="{&quot;index&quot;:null}" fill="#e2db00"/></g></g></svg>