<svg version="1.1" xmlns="http://www.w3.org/2000/svg" xmlns:xlink="http://www.w3.org/1999/xlink" width="36" height="37.75" viewBox="0,0,36,37.75"><g transform="translate(-222,-162)"><g data-paper-data="{&quot;isPaintingLayer&quot;:true}" fill-rule="nonzero" stroke-linecap="butt" stroke-linejoin="miter" stroke-miterlimit="10" stroke-dasharray="" stroke-dashoffset="0" style="mix-blend-mode: normal"><path d="M222,180c0,-9.94113 8.05887,-18 18,-18c9.94113,0 18,8.05887 18,18c0,9.94113 -8.05887,18 -18,18c-9.94113,0 -18,-8.05887 -18,-18z" fill="#000eff" stroke="none" stroke-width="NaN"/><path d="M229.37912,194.57638c-2.63895,-1.81707 0.69231,-4.69231 0.69231,-4.69231c0,0 4.04294,0.59036 6.15471,-1.12573c0.63843,-0.5188 -0.75664,-2.74815 -0.73726,-3.94532c0.01169,-0.72246 1.36995,-0.72666 1.64236,-0.72343c0.98254,0.01166 5.89624,5.94833 5.89624,5.94833c0,0 -2.45055,8.31082 -5.53847,7.84615c-3.59837,-0.54147 -2.84702,-0.12339 -4.79101,-1.28922c-2.85553,-1.7125 -0.90981,-0.35968 -3.31888,-2.01847z" fill="#00ff10" stroke="none" stroke-width="0"/><path d="M228.71296,165.86939c1.61461,-1.59101 0.98291,-1.00768 4.35242,-2.38166c1.45885,-0.59488 1.63735,1.49349 5.49611,2.8705c3.78952,1.3523 7.77942,-0.80997 11.27342,1.98844c3.494,2.79841 -1.93364,3.25511 -4.05199,3.79534c-1.10554,0.28194 -5.08268,-1.30235 -10.07677,-0.53114c-4.33576,0.66954 -10.02527,3.94803 -7.96481,1.39921c2.05657,-2.54402 -3.91487,-2.0095 -1.7783,-4.39713c1.95046,-2.17965 0.37823,-0.40652 2.74993,-2.74356z" data-paper-data="{&quot;index&quot;:null}" fill="#00ff10" stroke="none" stroke-width="0"/><path d="M249.88314,178.47244c0.15281,0.6806 -1.88758,2.46463 -1.36563,2.57416c1.24588,0.26146 4.25871,-4.03796 5.47301,-4.71828c0.66523,-0.3727 0.03697,2.70959 0.03697,2.70959c0,0 -2.45055,8.31082 -5.53847,7.84615c-3.59837,-0.54147 -2.84702,-0.12339 -4.79101,-1.28922c-1.37227,-0.82297 -4.7139,-7.03766 -3.82487,-8.50771c0.96094,-1.58895 9.79792,0.4407 10.01001,1.38531z" fill="#00ff10" stroke="none" stroke-width="0"/><path d="M241.31818,179.90909l6.90909,-6.54545l6.81818,6.54545z" fill="#6d6d6d" stroke="#000000" stroke-width="0.5"/><path d="M245.09091,199.5v-19.54545h6.18182v19.54545z" fill="#6d6d6d" stroke="#000000" stroke-width="0.5"/><path d="M245.36998,181.1209v-1.81818h5.66558v1.81818z" fill="#6d6d6d" stroke="none" stroke-width="0"/></g></g></svg>